M48
METRIC,LZ,000.000
;FILE_FORMAT=3:3
;TYPE=PLATED
;Layer: PTH_Through
;EasyEDA v6.5.48, 2025-01-21 22:01:40
;ce5bcd5d7360488599399ea35ca3f730,208856bd7ad64deca1bfdec547b981c7,10
;Gerber Generator version 0.2
;Holesize 1 = 0.305 mm
T01C0.305
;Holesize 2 = 0.310 mm
T02C0.310
;Holesize 3 = 0.600 mm
T03C0.600
;Holesize 4 = 0.889 mm
T04C0.889
;Holesize 5 = 0.915 mm
T05C0.915
;Holesize 6 = 1.301 mm
T06C1.301
;Holesize 7 = 2.901 mm
T07C2.901
%
G05
G90
T01
X075500Y-052500
X074500Y-052500
X075500Y-051500
X074500Y-051500
X075500Y-022500
X074500Y-022500
X075500Y-021500
X074500Y-021500
T02
X067000Y-048705
X076905Y-049279
X081934Y-052000
X071690Y-057150
X081934Y-022000
X076905Y-019279
X067000Y-018705
X071690Y-027178
X065024Y-045720
X065024Y-044450
X063373Y-018796
X062357Y-018034
X064897Y-070866
X064897Y-068326
X064897Y-078486
X064897Y-081026
X061214Y-045720
X060325Y-044450
X059436Y-062103
X060198Y-021971
X058420Y-061976
X059436Y-020955
X025556Y-019906
X028956Y-030226
X019304Y-020295
X041910Y-031882
X035306Y-019304
X034499Y-016557
X028956Y-019906
X019812Y-054919
X026699Y-052371
X030099Y-052371
X030099Y-062691
X035642Y-048514
X054991Y-036830
X043815Y-062061
X025400Y-045847
X013716Y-051308
X034290Y-067945
X035179Y-068707
X035560Y-069596
X036830Y-059944
X037592Y-061087
X038354Y-061976
X039116Y-060833
X019812Y-076327
X071882Y-046736
X073152Y-017526
X064897Y-058166
X068834Y-059182
X046609Y-053086
X042545Y-058293
X074930Y-043688
X055753Y-049149
T03
X038250Y-007500G85X038250Y-006500
X051750Y-007500G85X051750Y-006500
T04
X085000Y-076810
X085000Y-074270
X085000Y-071730
X085000Y-069190
X085000Y-046810
X085000Y-044270
X085000Y-041730
X085000Y-039190
X004826Y-061341
X004826Y-063881
X004826Y-066421
X004826Y-068961
X004826Y-071501
X004826Y-074041
X004826Y-076581
X004826Y-079121
X024257Y-087503
X021717Y-087503
X019177Y-087503
X016637Y-087503
X014097Y-087503
X011557Y-087503
X006270Y-018810
X003730Y-018810
X006270Y-016270
X003730Y-016270
X006270Y-013730
X003730Y-013730
X006270Y-011190
X003730Y-011190
X036068Y-087503
X033528Y-087503
X030988Y-087503
T05
X026730Y-003730
X029270Y-003730
X026730Y-006270
X029270Y-006270
T06
X085000Y-027674
X085000Y-032682
X085000Y-057495
X085000Y-062504
X057495Y-005000
X062504Y-005000
T07
X041400Y-013000
X048600Y-013000
M30
