G04 Layer: TopSolderMaskLayer*
G04 EasyEDA v6.5.48, 2025-01-21 22:01:40*
G04 ce5bcd5d7360488599399ea35ca3f730,208856bd7ad64deca1bfdec547b981c7,10*
G04 Gerber Generator version 0.2*
G04 Scale: 100 percent, Rotated: No, Reflected: No *
G04 Dimensions in millimeters *
G04 leading zeros omitted , absolute positions ,4 integer and 5 decimal *
%FSLAX45Y45*%
%MOMM*%

%AMMACRO1*4,1,8,-0.4211,-0.5008,-0.4508,-0.471,-0.4508,0.4711,-0.4211,0.5008,0.421,0.5008,0.4508,0.4711,0.4508,-0.471,0.421,-0.5008,-0.4211,-0.5008,0*%
%AMMACRO2*4,1,8,-0.8211,-2.5508,-0.8508,-2.521,-0.8508,2.5211,-0.8211,2.5508,0.821,2.5508,0.8508,2.5211,0.8508,-2.521,0.821,-2.5508,-0.8211,-2.5508,0*%
%AMMACRO3*4,1,8,-0.846,-2.3008,-0.8758,-2.271,-0.8758,2.2711,-0.846,2.3008,0.846,2.3008,0.8758,2.2711,0.8758,-2.271,0.846,-2.3008,-0.846,-2.3008,0*%
%AMMACRO4*4,1,8,-0.9311,-0.9608,-0.9608,-0.931,-0.9608,0.9311,-0.9311,0.9608,0.931,0.9608,0.9608,0.9311,0.9608,-0.931,0.931,-0.9608,-0.9311,-0.9608,0*%
%AMMACRO5*4,1,8,-0.8085,-0.8382,-0.8382,-0.8084,-0.8382,0.8085,-0.8085,0.8382,0.8084,0.8382,0.8382,0.8085,0.8382,-0.8084,0.8084,-0.8382,-0.8085,-0.8382,0*%
%AMMACRO6*4,1,8,-0.7831,-0.8128,-0.8128,-0.783,-0.8128,0.7831,-0.7831,0.8128,0.783,0.8128,0.8128,0.7831,0.8128,-0.783,0.783,-0.8128,-0.7831,-0.8128,0*%
%AMMACRO7*4,1,8,-1.1331,-2.3608,-1.1628,-2.331,-1.1628,2.3311,-1.1331,2.3608,1.133,2.3608,1.1628,2.3311,1.1628,-2.331,1.133,-2.3608,-1.1331,-2.3608,0*%
%AMMACRO8*4,1,8,-0.6623,-1.7788,-0.6921,-1.749,-0.6921,1.749,-0.6623,1.7788,0.6623,1.7788,0.6921,1.749,0.6921,-1.749,0.6623,-1.7788,-0.6623,-1.7788,0*%
%AMMACRO9*4,1,8,-1.5701,-1.2558,-1.5998,-1.226,-1.5998,1.2261,-1.5701,1.2558,1.57,1.2558,1.5998,1.2261,1.5998,-1.226,1.57,-1.2558,-1.5701,-1.2558,0*%
%AMMACRO10*4,1,8,-0.6511,-1.8558,-0.6808,-1.826,-0.6808,1.8261,-0.6511,1.8558,0.651,1.8558,0.6808,1.8261,0.6808,-1.826,0.651,-1.8558,-0.6511,-1.8558,0*%
%AMMACRO11*4,1,8,-0.5311,-1.5922,-0.5608,-1.5624,-0.5608,1.5625,-0.5311,1.5922,0.531,1.5922,0.5608,1.5625,0.5608,-1.5624,0.531,-1.5922,-0.5311,-1.5922,0*%
%AMMACRO12*4,1,8,-5.521,-4.3008,-5.5508,-4.271,-5.5508,4.271,-5.521,4.3008,5.521,4.3008,5.5508,4.271,5.5508,-4.271,5.521,-4.3008,-5.521,-4.3008,0*%
%ADD10MACRO1*%
%ADD11MACRO2*%
%ADD12MACRO3*%
%ADD13O,1.3000228X2.3000208*%
%ADD14C,3.9000*%
%ADD15MACRO4*%
%ADD16MACRO5*%
%ADD17C,1.6764*%
%ADD18MACRO6*%
%ADD19C,1.6256*%
%ADD20MACRO7*%
%ADD21C,2.1016*%
%ADD22MACRO8*%
%ADD23O,0.7036053999999999X2.0425918000000003*%
%ADD24MACRO9*%
%ADD25MACRO10*%
%ADD26MACRO11*%
%ADD27MACRO12*%

%LPD*%
D10*
G01*
X7308999Y-5715000D03*
G01*
X7169000Y-5715000D03*
G01*
X7308999Y-2717800D03*
G01*
X7169000Y-2717800D03*
D11*
G01*
X4381500Y-5046101D03*
G01*
X4381500Y-6206098D03*
G01*
X4191000Y-2028210D03*
G01*
X4191000Y-3188207D03*
D12*
G01*
X1981200Y-4591902D03*
G01*
X1981200Y-5491897D03*
G01*
X1930400Y-1129511D03*
G01*
X1930400Y-2029506D03*
D13*
G01*
X3824986Y-699998D03*
G01*
X5174995Y-699998D03*
D14*
G01*
X4139996Y-1299997D03*
G01*
X4859985Y-1299997D03*
D15*
G01*
X3564199Y-4851407D03*
G01*
X3192195Y-4851407D03*
G01*
X3449899Y-1655716D03*
G01*
X3077895Y-1655716D03*
D16*
G01*
X8499983Y-7680985D03*
D17*
G01*
X8499983Y-7426985D03*
G01*
X8499983Y-7172985D03*
G01*
X8499983Y-6918985D03*
D16*
G01*
X8499983Y-4680991D03*
D17*
G01*
X8499983Y-4426991D03*
G01*
X8499983Y-4172991D03*
G01*
X8499983Y-3918991D03*
D16*
G01*
X482600Y-6134100D03*
D17*
G01*
X482600Y-6388100D03*
G01*
X482600Y-6642100D03*
G01*
X482600Y-6896100D03*
G01*
X482600Y-7150100D03*
G01*
X482600Y-7404100D03*
G01*
X482600Y-7658100D03*
G01*
X482600Y-7912100D03*
G01*
X2425700Y-8750300D03*
G01*
X2171700Y-8750300D03*
G01*
X1917700Y-8750300D03*
G01*
X1663700Y-8750300D03*
G01*
X1409700Y-8750300D03*
D16*
G01*
X1155700Y-8750300D03*
D18*
G01*
X2672994Y-372999D03*
D19*
G01*
X2926994Y-372998D03*
G01*
X2672994Y-626998D03*
G01*
X2926994Y-626998D03*
D16*
G01*
X626999Y-1880997D03*
D17*
G01*
X372998Y-1880996D03*
G01*
X626998Y-1626996D03*
G01*
X372998Y-1626996D03*
G01*
X626998Y-1372996D03*
G01*
X372998Y-1372996D03*
G01*
X626998Y-1118996D03*
G01*
X372998Y-1118996D03*
G01*
X3606800Y-8750300D03*
G01*
X3352800Y-8750300D03*
D16*
G01*
X3098800Y-8750300D03*
D20*
G01*
X3192699Y-4419600D03*
G01*
X2827100Y-4419600D03*
G01*
X3052999Y-1223909D03*
G01*
X2687400Y-1223909D03*
D21*
G01*
X8499983Y-2767355D03*
G01*
X8499983Y-3268243D03*
G01*
X8499983Y-5749544D03*
G01*
X8499983Y-6250431D03*
G01*
X5749543Y-499998D03*
G01*
X6250431Y-499998D03*
D22*
G01*
X8193356Y-2199995D03*
G01*
X8806609Y-2199995D03*
G01*
X8806609Y-5199989D03*
G01*
X8193356Y-5199989D03*
D23*
G01*
X7690484Y-4927930D03*
G01*
X7563484Y-4927930D03*
G01*
X7436484Y-4927930D03*
G01*
X7309484Y-4927930D03*
G01*
X7690484Y-5472048D03*
G01*
X7563484Y-5472048D03*
G01*
X7436484Y-5472048D03*
G01*
X7309484Y-5472048D03*
D24*
G01*
X7499985Y-5199989D03*
D23*
G01*
X7690484Y-1927936D03*
G01*
X7563484Y-1927936D03*
G01*
X7436484Y-1927936D03*
G01*
X7309484Y-1927936D03*
G01*
X7690484Y-2472054D03*
G01*
X7563484Y-2472054D03*
G01*
X7436484Y-2472054D03*
G01*
X7309484Y-2472054D03*
D24*
G01*
X7499985Y-2199995D03*
D25*
G01*
X6699994Y-2529502D03*
G01*
X6699994Y-1870504D03*
G01*
X6699994Y-5529496D03*
G01*
X6699994Y-4870498D03*
D26*
G01*
X3349900Y-5237102D03*
G01*
X3179899Y-5237102D03*
G01*
X3009900Y-5237102D03*
G01*
X2839900Y-5237102D03*
G01*
X2669899Y-5237102D03*
D27*
G01*
X3009900Y-6269087D03*
D26*
G01*
X3235600Y-1990611D03*
G01*
X3065599Y-1990611D03*
G01*
X2895600Y-1990611D03*
G01*
X2725600Y-1990611D03*
G01*
X2555599Y-1990611D03*
D27*
G01*
X2895600Y-3022596D03*
M02*
