G04 Layer: TopSilkscreenLayer*
G04 EasyEDA v6.5.48, 2025-01-21 22:01:40*
G04 ce5bcd5d7360488599399ea35ca3f730,208856bd7ad64deca1bfdec547b981c7,10*
G04 Gerber Generator version 0.2*
G04 Scale: 100 percent, Rotated: No, Reflected: No *
G04 Dimensions in millimeters *
G04 leading zeros omitted , absolute positions ,4 integer and 5 decimal *
%FSLAX45Y45*%
%MOMM*%

%ADD10C,0.1524*%
%ADD11C,0.2032*%
%ADD12C,0.2540*%
%ADD13C,0.2030*%
%ADD14C,0.1500*%
%ADD15C,0.3000*%
%ADD16C,0.4000*%
%ADD17C,0.0115*%

%LPD*%
G36*
X1024128Y-7145172D02*
G01*
X1024128Y-7250582D01*
X1364284Y-7250582D01*
X1394104Y-7251395D01*
X1408379Y-7252208D01*
X1422298Y-7253325D01*
X1435811Y-7254697D01*
X1448917Y-7256373D01*
X1461617Y-7258354D01*
X1473962Y-7260640D01*
X1485849Y-7263231D01*
X1497330Y-7266127D01*
X1508404Y-7269327D01*
X1519072Y-7272883D01*
X1529334Y-7276795D01*
X1539189Y-7281011D01*
X1548587Y-7285583D01*
X1557578Y-7290511D01*
X1566164Y-7295794D01*
X1574292Y-7301433D01*
X1581962Y-7307427D01*
X1589227Y-7313828D01*
X1596085Y-7320584D01*
X1602486Y-7327747D01*
X1608429Y-7335266D01*
X1613916Y-7343190D01*
X1618996Y-7351522D01*
X1623618Y-7360259D01*
X1627784Y-7369403D01*
X1631492Y-7379004D01*
X1634744Y-7389012D01*
X1637538Y-7399426D01*
X1639874Y-7410297D01*
X1641754Y-7421575D01*
X1643176Y-7433309D01*
X1644142Y-7445502D01*
X1644599Y-7458202D01*
X1644599Y-7471054D01*
X1644142Y-7483551D01*
X1643176Y-7495692D01*
X1641754Y-7507478D01*
X1639874Y-7518857D01*
X1637538Y-7529880D01*
X1634744Y-7540498D01*
X1631492Y-7550759D01*
X1627784Y-7560716D01*
X1623618Y-7570266D01*
X1618996Y-7579410D01*
X1613916Y-7588250D01*
X1608429Y-7596733D01*
X1602486Y-7604810D01*
X1596085Y-7612532D01*
X1589227Y-7619898D01*
X1581962Y-7626908D01*
X1574292Y-7633563D01*
X1566164Y-7639862D01*
X1557578Y-7645806D01*
X1548587Y-7651394D01*
X1539189Y-7656626D01*
X1529334Y-7661503D01*
X1519072Y-7666024D01*
X1508404Y-7670190D01*
X1497330Y-7674000D01*
X1485849Y-7677454D01*
X1473962Y-7680604D01*
X1461617Y-7683347D01*
X1448917Y-7685786D01*
X1435811Y-7687818D01*
X1422298Y-7689545D01*
X1408379Y-7690916D01*
X1394104Y-7691983D01*
X1379372Y-7692644D01*
X1364284Y-7692999D01*
X1154938Y-7693050D01*
X1154938Y-7250582D01*
X1024128Y-7250582D01*
X1024128Y-8297824D01*
X1154938Y-8297824D01*
X1154938Y-7800238D01*
X1370584Y-7800238D01*
X1658874Y-8297824D01*
X1805432Y-8297824D01*
X1507744Y-7787538D01*
X1519783Y-7784693D01*
X1531620Y-7781594D01*
X1543253Y-7778242D01*
X1554632Y-7774584D01*
X1565757Y-7770723D01*
X1576679Y-7766558D01*
X1587398Y-7762138D01*
X1597812Y-7757464D01*
X1608023Y-7752537D01*
X1617929Y-7747355D01*
X1627632Y-7741869D01*
X1637030Y-7736128D01*
X1646174Y-7730083D01*
X1655064Y-7723835D01*
X1663649Y-7717281D01*
X1671980Y-7710474D01*
X1680006Y-7703362D01*
X1687779Y-7695996D01*
X1695196Y-7688376D01*
X1702358Y-7680502D01*
X1709216Y-7672324D01*
X1715770Y-7663891D01*
X1721967Y-7655153D01*
X1727911Y-7646162D01*
X1733499Y-7636916D01*
X1738731Y-7627366D01*
X1743659Y-7617561D01*
X1748282Y-7607452D01*
X1752498Y-7597089D01*
X1756410Y-7586472D01*
X1759966Y-7575550D01*
X1763166Y-7564323D01*
X1766011Y-7552893D01*
X1768500Y-7541107D01*
X1770583Y-7529068D01*
X1772361Y-7516774D01*
X1773682Y-7504175D01*
X1774698Y-7491272D01*
X1775256Y-7478115D01*
X1775460Y-7464704D01*
X1775256Y-7451242D01*
X1774748Y-7438085D01*
X1773834Y-7425334D01*
X1772615Y-7412837D01*
X1770989Y-7400747D01*
X1769059Y-7388910D01*
X1766773Y-7377430D01*
X1764182Y-7366253D01*
X1761236Y-7355433D01*
X1757934Y-7344867D01*
X1754327Y-7334656D01*
X1750415Y-7324750D01*
X1746199Y-7315098D01*
X1741627Y-7305802D01*
X1736801Y-7296759D01*
X1731619Y-7288022D01*
X1726184Y-7279589D01*
X1720443Y-7271461D01*
X1714398Y-7263587D01*
X1708048Y-7256018D01*
X1701444Y-7248753D01*
X1694535Y-7241692D01*
X1687372Y-7234986D01*
X1679905Y-7228484D01*
X1672183Y-7222286D01*
X1664207Y-7216343D01*
X1655978Y-7210653D01*
X1647494Y-7205218D01*
X1638706Y-7200087D01*
X1629714Y-7195159D01*
X1620469Y-7190486D01*
X1611020Y-7186066D01*
X1596339Y-7179919D01*
X1586280Y-7176109D01*
X1575968Y-7172553D01*
X1565452Y-7169200D01*
X1554734Y-7166102D01*
X1543761Y-7163206D01*
X1521256Y-7158126D01*
X1497888Y-7153909D01*
X1473758Y-7150557D01*
X1448917Y-7148017D01*
X1423314Y-7146290D01*
X1397050Y-7145375D01*
X1383690Y-7145172D01*
G37*
G36*
X2306066Y-7145172D02*
G01*
X2676144Y-8297824D01*
X2825750Y-8297824D01*
X3194304Y-7145172D01*
X3061970Y-7145172D01*
X2856179Y-7831378D01*
X2797606Y-8030006D01*
X2779826Y-8088731D01*
X2756408Y-8162442D01*
X2750312Y-8162442D01*
X2742184Y-8137347D01*
X2730652Y-8100720D01*
X2710891Y-8035848D01*
X2688996Y-7960969D01*
X2653385Y-7837525D01*
X2638704Y-7787589D01*
X2443226Y-7145172D01*
G37*
G36*
X3356610Y-7145172D02*
G01*
X3356610Y-8297824D01*
X3487165Y-8297824D01*
X3487165Y-7145172D01*
G37*
G36*
X3808476Y-7145172D02*
G01*
X3808476Y-8297824D01*
X3939286Y-8297824D01*
X3939286Y-7145172D01*
G37*
G36*
X1868424Y-7808112D02*
G01*
X1868424Y-7908950D01*
X2266696Y-7908950D01*
X2266696Y-7808112D01*
G37*
G36*
X5078476Y-8001152D02*
G01*
X5072126Y-8001304D01*
X5065979Y-8001914D01*
X5060086Y-8002828D01*
X5054396Y-8004098D01*
X5048859Y-8005724D01*
X5043576Y-8007654D01*
X5038394Y-8009890D01*
X5033365Y-8012430D01*
X5028539Y-8015274D01*
X5023815Y-8018373D01*
X5019192Y-8021726D01*
X5014671Y-8025333D01*
X5005933Y-8033258D01*
X4997450Y-8042046D01*
X5015738Y-8059572D01*
X5019802Y-8055000D01*
X5028488Y-8046567D01*
X5033060Y-8042757D01*
X5037785Y-8039252D01*
X5042712Y-8036102D01*
X5047742Y-8033308D01*
X5052923Y-8030972D01*
X5058257Y-8029092D01*
X5063744Y-8027720D01*
X5069382Y-8026857D01*
X5075174Y-8026552D01*
X5081727Y-8026806D01*
X5087823Y-8027670D01*
X5093462Y-8029041D01*
X5098643Y-8030921D01*
X5103418Y-8033258D01*
X5107736Y-8036052D01*
X5111648Y-8039303D01*
X5115102Y-8042960D01*
X5118150Y-8046974D01*
X5120792Y-8051393D01*
X5123027Y-8056118D01*
X5124805Y-8061147D01*
X5126228Y-8066481D01*
X5127193Y-8072069D01*
X5127802Y-8077911D01*
X5128006Y-8083956D01*
X5127650Y-8092084D01*
X5126532Y-8100415D01*
X5124653Y-8108899D01*
X5122011Y-8117586D01*
X5118608Y-8126425D01*
X5114442Y-8135518D01*
X5109464Y-8144814D01*
X5103672Y-8154365D01*
X5097068Y-8164169D01*
X5089601Y-8174228D01*
X5081371Y-8184591D01*
X5072227Y-8195259D01*
X5062270Y-8206231D01*
X5051450Y-8217560D01*
X5039715Y-8229193D01*
X5027117Y-8241182D01*
X5013655Y-8253577D01*
X4999228Y-8266328D01*
X4999228Y-8285124D01*
X5171948Y-8285124D01*
X5171948Y-8258454D01*
X5086502Y-8258454D01*
X5063388Y-8259318D01*
X5046218Y-8260740D01*
X5068011Y-8239607D01*
X5078171Y-8229244D01*
X5087823Y-8218982D01*
X5096967Y-8208772D01*
X5105603Y-8198713D01*
X5113629Y-8188706D01*
X5121046Y-8178800D01*
X5127904Y-8168944D01*
X5134102Y-8159140D01*
X5139639Y-8149437D01*
X5144516Y-8139785D01*
X5148681Y-8130184D01*
X5152186Y-8120634D01*
X5154879Y-8111083D01*
X5156860Y-8101584D01*
X5158079Y-8092135D01*
X5158486Y-8082686D01*
X5158333Y-8076590D01*
X5157876Y-8070697D01*
X5157063Y-8065008D01*
X5155996Y-8059521D01*
X5154625Y-8054238D01*
X5152948Y-8049158D01*
X5150967Y-8044281D01*
X5148732Y-8039608D01*
X5146243Y-8035239D01*
X5143449Y-8031022D01*
X5140401Y-8027111D01*
X5137048Y-8023402D01*
X5133492Y-8019999D01*
X5129631Y-8016849D01*
X5125567Y-8013953D01*
X5121249Y-8011312D01*
X5116677Y-8008975D01*
X5111851Y-8006943D01*
X5106873Y-8005216D01*
X5101590Y-8003743D01*
X5096154Y-8002625D01*
X5090464Y-8001812D01*
X5084572Y-8001304D01*
G37*
G36*
X5296154Y-8001152D02*
G01*
X5291277Y-8001253D01*
X5286502Y-8001660D01*
X5281879Y-8002371D01*
X5277358Y-8003336D01*
X5272989Y-8004556D01*
X5268722Y-8006080D01*
X5264556Y-8007858D01*
X5260543Y-8009940D01*
X5256682Y-8012277D01*
X5252923Y-8014919D01*
X5249367Y-8017814D01*
X5245862Y-8021015D01*
X5239410Y-8028228D01*
X5236362Y-8032292D01*
X5230774Y-8041182D01*
X5225846Y-8051241D01*
X5221528Y-8062468D01*
X5217871Y-8074812D01*
X5214924Y-8088274D01*
X5212689Y-8102955D01*
X5211165Y-8118754D01*
X5210403Y-8135721D01*
X5210302Y-8144662D01*
X5240528Y-8144662D01*
X5240629Y-8134705D01*
X5241544Y-8116163D01*
X5243322Y-8099450D01*
X5244541Y-8091779D01*
X5247538Y-8077809D01*
X5249367Y-8071459D01*
X5251348Y-8065516D01*
X5253532Y-8060080D01*
X5255869Y-8055000D01*
X5258409Y-8050377D01*
X5261102Y-8046212D01*
X5263946Y-8042402D01*
X5266944Y-8039049D01*
X5270093Y-8036102D01*
X5273446Y-8033512D01*
X5276900Y-8031378D01*
X5280456Y-8029600D01*
X5284216Y-8028279D01*
X5288076Y-8027314D01*
X5292039Y-8026704D01*
X5296154Y-8026552D01*
X5300167Y-8026704D01*
X5304129Y-8027314D01*
X5307888Y-8028279D01*
X5311597Y-8029600D01*
X5315102Y-8031378D01*
X5318506Y-8033512D01*
X5321757Y-8036102D01*
X5324856Y-8039049D01*
X5327853Y-8042402D01*
X5330647Y-8046212D01*
X5333288Y-8050377D01*
X5335727Y-8055000D01*
X5338064Y-8060080D01*
X5340197Y-8065516D01*
X5342128Y-8071459D01*
X5343906Y-8077809D01*
X5345480Y-8084566D01*
X5346852Y-8091779D01*
X5348020Y-8099450D01*
X5349748Y-8116163D01*
X5350662Y-8134705D01*
X5350662Y-8154771D01*
X5349748Y-8173669D01*
X5348020Y-8190636D01*
X5346852Y-8198459D01*
X5345480Y-8205825D01*
X5343906Y-8212734D01*
X5342128Y-8219186D01*
X5340197Y-8225180D01*
X5338064Y-8230717D01*
X5335727Y-8235848D01*
X5333288Y-8240572D01*
X5330647Y-8244840D01*
X5327853Y-8248700D01*
X5324856Y-8252104D01*
X5321757Y-8255101D01*
X5318506Y-8257692D01*
X5315102Y-8259876D01*
X5311597Y-8261654D01*
X5307888Y-8263026D01*
X5304129Y-8263991D01*
X5300167Y-8264601D01*
X5296154Y-8264804D01*
X5292039Y-8264601D01*
X5288076Y-8263991D01*
X5284216Y-8263026D01*
X5280456Y-8261654D01*
X5276900Y-8259876D01*
X5273446Y-8257692D01*
X5270093Y-8255101D01*
X5266944Y-8252104D01*
X5263946Y-8248700D01*
X5261102Y-8244840D01*
X5258409Y-8240572D01*
X5255869Y-8235848D01*
X5253532Y-8230717D01*
X5251348Y-8225180D01*
X5249367Y-8219186D01*
X5247538Y-8212734D01*
X5244541Y-8198459D01*
X5243322Y-8190636D01*
X5241544Y-8173669D01*
X5240629Y-8154771D01*
X5240528Y-8144662D01*
X5210302Y-8144662D01*
X5210708Y-8162290D01*
X5211826Y-8178850D01*
X5213705Y-8194192D01*
X5214924Y-8201456D01*
X5217871Y-8215122D01*
X5221528Y-8227618D01*
X5225846Y-8238998D01*
X5230774Y-8249208D01*
X5236362Y-8258302D01*
X5239410Y-8262416D01*
X5242560Y-8266226D01*
X5245862Y-8269782D01*
X5252923Y-8276031D01*
X5256682Y-8278723D01*
X5260543Y-8281111D01*
X5264556Y-8283244D01*
X5268722Y-8285073D01*
X5272989Y-8286648D01*
X5277358Y-8287918D01*
X5281879Y-8288934D01*
X5286502Y-8289645D01*
X5291277Y-8290052D01*
X5296154Y-8290204D01*
X5300980Y-8290052D01*
X5305704Y-8289645D01*
X5310276Y-8288934D01*
X5314746Y-8287918D01*
X5319115Y-8286648D01*
X5323332Y-8285073D01*
X5327396Y-8283244D01*
X5331358Y-8281111D01*
X5335219Y-8278723D01*
X5338927Y-8276031D01*
X5342483Y-8273034D01*
X5345887Y-8269782D01*
X5352288Y-8262416D01*
X5355285Y-8258302D01*
X5360771Y-8249208D01*
X5363311Y-8244230D01*
X5367883Y-8233460D01*
X5371795Y-8221522D01*
X5373522Y-8215122D01*
X5376418Y-8201456D01*
X5378653Y-8186674D01*
X5380126Y-8170722D01*
X5380634Y-8162290D01*
X5380990Y-8144662D01*
X5380634Y-8127136D01*
X5379466Y-8110778D01*
X5377637Y-8095538D01*
X5375046Y-8081518D01*
X5373522Y-8074914D01*
X5369915Y-8062569D01*
X5367883Y-8056829D01*
X5363311Y-8046212D01*
X5360771Y-8041284D01*
X5355285Y-8032394D01*
X5352288Y-8028330D01*
X5349138Y-8024571D01*
X5345887Y-8021116D01*
X5342483Y-8017916D01*
X5338927Y-8014970D01*
X5335219Y-8012328D01*
X5331358Y-8009991D01*
X5327396Y-8007908D01*
X5323332Y-8006130D01*
X5319115Y-8004606D01*
X5314746Y-8003336D01*
X5310276Y-8002371D01*
X5300980Y-8001253D01*
G37*
G36*
X5496814Y-8001152D02*
G01*
X5490464Y-8001304D01*
X5484317Y-8001914D01*
X5478424Y-8002828D01*
X5472734Y-8004098D01*
X5467197Y-8005724D01*
X5461914Y-8007654D01*
X5456732Y-8009890D01*
X5451754Y-8012430D01*
X5446877Y-8015274D01*
X5442153Y-8018373D01*
X5437530Y-8021726D01*
X5433009Y-8025333D01*
X5424271Y-8033258D01*
X5415788Y-8042046D01*
X5433822Y-8059572D01*
X5442153Y-8050682D01*
X5446623Y-8046567D01*
X5451195Y-8042757D01*
X5455970Y-8039252D01*
X5460847Y-8036102D01*
X5465927Y-8033308D01*
X5471109Y-8030972D01*
X5476494Y-8029092D01*
X5481929Y-8027720D01*
X5487517Y-8026857D01*
X5493258Y-8026552D01*
X5499862Y-8026806D01*
X5505958Y-8027670D01*
X5511647Y-8029041D01*
X5516880Y-8030921D01*
X5521655Y-8033258D01*
X5526024Y-8036052D01*
X5529935Y-8039303D01*
X5533440Y-8042960D01*
X5536488Y-8046974D01*
X5539130Y-8051393D01*
X5541365Y-8056118D01*
X5543143Y-8061147D01*
X5544566Y-8066481D01*
X5545531Y-8072069D01*
X5546140Y-8077911D01*
X5546344Y-8083956D01*
X5545988Y-8092084D01*
X5544870Y-8100415D01*
X5542991Y-8108899D01*
X5540349Y-8117586D01*
X5536946Y-8126425D01*
X5532780Y-8135518D01*
X5527802Y-8144814D01*
X5522010Y-8154365D01*
X5515406Y-8164169D01*
X5507939Y-8174228D01*
X5499709Y-8184591D01*
X5490565Y-8195259D01*
X5480608Y-8206231D01*
X5469788Y-8217560D01*
X5458053Y-8229193D01*
X5445455Y-8241182D01*
X5431993Y-8253577D01*
X5417566Y-8266328D01*
X5417566Y-8285124D01*
X5590286Y-8285124D01*
X5590286Y-8258454D01*
X5504637Y-8258454D01*
X5481726Y-8259318D01*
X5464556Y-8260740D01*
X5486349Y-8239607D01*
X5496509Y-8229244D01*
X5506161Y-8218982D01*
X5515305Y-8208772D01*
X5523941Y-8198713D01*
X5531967Y-8188706D01*
X5539384Y-8178800D01*
X5546191Y-8168944D01*
X5552440Y-8159140D01*
X5557977Y-8149437D01*
X5562854Y-8139785D01*
X5567019Y-8130184D01*
X5570524Y-8120634D01*
X5573217Y-8111083D01*
X5575198Y-8101584D01*
X5576417Y-8092135D01*
X5576824Y-8082686D01*
X5576671Y-8076590D01*
X5576214Y-8070697D01*
X5575401Y-8065008D01*
X5574334Y-8059521D01*
X5572963Y-8054238D01*
X5571286Y-8049158D01*
X5569305Y-8044281D01*
X5567070Y-8039608D01*
X5564581Y-8035239D01*
X5561787Y-8031022D01*
X5558739Y-8027111D01*
X5555386Y-8023402D01*
X5551830Y-8019999D01*
X5547969Y-8016849D01*
X5543905Y-8013953D01*
X5539587Y-8011312D01*
X5535015Y-8008975D01*
X5530189Y-8006943D01*
X5525211Y-8005216D01*
X5519928Y-8003743D01*
X5514492Y-8002625D01*
X5508802Y-8001812D01*
X5502910Y-8001304D01*
G37*
G36*
X3987292Y-8006232D02*
G01*
X3987292Y-8032902D01*
X4072128Y-8032902D01*
X4072128Y-8285124D01*
X4104386Y-8285124D01*
X4104386Y-8032902D01*
X4189476Y-8032902D01*
X4189476Y-8006232D01*
G37*
G36*
X4279900Y-8006232D02*
G01*
X4279900Y-8201812D01*
X4279696Y-8209534D01*
X4279188Y-8216696D01*
X4278274Y-8223300D01*
X4277055Y-8229346D01*
X4275429Y-8234832D01*
X4273448Y-8239810D01*
X4271111Y-8244230D01*
X4268419Y-8248142D01*
X4265320Y-8251545D01*
X4261916Y-8254441D01*
X4258106Y-8256879D01*
X4253992Y-8258860D01*
X4249420Y-8260334D01*
X4244543Y-8261400D01*
X4239310Y-8262061D01*
X4233672Y-8262264D01*
X4228541Y-8262061D01*
X4223664Y-8261502D01*
X4218940Y-8260537D01*
X4214418Y-8259165D01*
X4210050Y-8257336D01*
X4205833Y-8255050D01*
X4201871Y-8252307D01*
X4198010Y-8249056D01*
X4194301Y-8245297D01*
X4190796Y-8241030D01*
X4187393Y-8236153D01*
X4184142Y-8230768D01*
X4161536Y-8246770D01*
X4164634Y-8251952D01*
X4167936Y-8256778D01*
X4171442Y-8261350D01*
X4175150Y-8265566D01*
X4179112Y-8269427D01*
X4183227Y-8272983D01*
X4187596Y-8276234D01*
X4192168Y-8279130D01*
X4196892Y-8281720D01*
X4201922Y-8283956D01*
X4207103Y-8285835D01*
X4212539Y-8287410D01*
X4218178Y-8288629D01*
X4224070Y-8289493D01*
X4230166Y-8290001D01*
X4236466Y-8290204D01*
X4243019Y-8290001D01*
X4249216Y-8289391D01*
X4255058Y-8288477D01*
X4260646Y-8287156D01*
X4265879Y-8285480D01*
X4270806Y-8283498D01*
X4275378Y-8281162D01*
X4279696Y-8278571D01*
X4283710Y-8275624D01*
X4287469Y-8272424D01*
X4290872Y-8268970D01*
X4294022Y-8265210D01*
X4296918Y-8261248D01*
X4299508Y-8257031D01*
X4301794Y-8252612D01*
X4303877Y-8247989D01*
X4307230Y-8238134D01*
X4309567Y-8227568D01*
X4310380Y-8222081D01*
X4311294Y-8210702D01*
X4311396Y-8006232D01*
G37*
G36*
X4359402Y-8006232D02*
G01*
X4419600Y-8285124D01*
X4456684Y-8285124D01*
X4500118Y-8111388D01*
X4504893Y-8090103D01*
X4511040Y-8064144D01*
X4514596Y-8048142D01*
X4516120Y-8048142D01*
X4529836Y-8111388D01*
X4574286Y-8285124D01*
X4611624Y-8285124D01*
X4670552Y-8006232D01*
X4640326Y-8006232D01*
X4608271Y-8166963D01*
X4593082Y-8251596D01*
X4591050Y-8251596D01*
X4570476Y-8161426D01*
X4530598Y-8006232D01*
X4501134Y-8006232D01*
X4461510Y-8161426D01*
X4446270Y-8228787D01*
X4441444Y-8251596D01*
X4439920Y-8251596D01*
X4423968Y-8166963D01*
X4391914Y-8006232D01*
G37*
G36*
X5735320Y-8006232D02*
G01*
X5619534Y-8182762D01*
X5649976Y-8182762D01*
X5717286Y-8082686D01*
X5731408Y-8057540D01*
X5739384Y-8042554D01*
X5741416Y-8042554D01*
X5740501Y-8054136D01*
X5739333Y-8080349D01*
X5739130Y-8091830D01*
X5739130Y-8182762D01*
X5619534Y-8182762D01*
X5616702Y-8187080D01*
X5616702Y-8207400D01*
X5739130Y-8207400D01*
X5739130Y-8285124D01*
X5768340Y-8285124D01*
X5768340Y-8207400D01*
X5806440Y-8207400D01*
X5806440Y-8182762D01*
X5768340Y-8182762D01*
X5768340Y-8006232D01*
G37*
G36*
X4783836Y-8166760D02*
G01*
X4783836Y-8191144D01*
X4880356Y-8191144D01*
X4880356Y-8166760D01*
G37*
G36*
X285496Y-824636D02*
G01*
X279196Y-824941D01*
X273100Y-825804D01*
X267309Y-827278D01*
X261772Y-829259D01*
X256590Y-831850D01*
X251714Y-834948D01*
X247192Y-838555D01*
X243027Y-842670D01*
X239318Y-847293D01*
X236016Y-852373D01*
X233121Y-857961D01*
X230733Y-863955D01*
X228854Y-870407D01*
X227431Y-877265D01*
X226618Y-884529D01*
X226314Y-892200D01*
X226567Y-899871D01*
X227431Y-907186D01*
X228752Y-914044D01*
X230632Y-920496D01*
X232968Y-926490D01*
X235762Y-932027D01*
X238963Y-937056D01*
X242620Y-941628D01*
X246684Y-945743D01*
X251104Y-949299D01*
X255930Y-952398D01*
X261010Y-954887D01*
X266496Y-956919D01*
X272186Y-958342D01*
X278231Y-959205D01*
X284480Y-959510D01*
X290779Y-959205D01*
X296773Y-958392D01*
X302412Y-957122D01*
X307644Y-955344D01*
X312420Y-953160D01*
X316788Y-950620D01*
X320700Y-947724D01*
X324104Y-944524D01*
X324104Y-890676D01*
X282194Y-890676D01*
X282194Y-902868D01*
X310388Y-902868D01*
X310388Y-938428D01*
X305663Y-941832D01*
X299770Y-944371D01*
X293014Y-945997D01*
X285750Y-946556D01*
X278942Y-946099D01*
X272694Y-944829D01*
X266954Y-942695D01*
X261772Y-939800D01*
X257149Y-936142D01*
X253085Y-931773D01*
X249631Y-926693D01*
X246735Y-920902D01*
X244500Y-914501D01*
X242874Y-907491D01*
X241909Y-899871D01*
X241554Y-891692D01*
X241909Y-883615D01*
X242976Y-876147D01*
X244652Y-869238D01*
X247040Y-862939D01*
X249986Y-857250D01*
X253542Y-852271D01*
X257657Y-847953D01*
X262331Y-844397D01*
X267462Y-841552D01*
X273151Y-839520D01*
X279247Y-838250D01*
X285750Y-837844D01*
X294995Y-838758D01*
X302666Y-841400D01*
X309067Y-845312D01*
X314452Y-850290D01*
X322580Y-840638D01*
X319582Y-837742D01*
X316179Y-834898D01*
X312318Y-832205D01*
X307949Y-829767D01*
X303123Y-827684D01*
X297738Y-826058D01*
X291896Y-824992D01*
G37*
G36*
X355600Y-827176D02*
G01*
X355600Y-957224D01*
X369570Y-957224D01*
X369519Y-880821D01*
X368706Y-860907D01*
X367792Y-846226D01*
X368554Y-846226D01*
X382778Y-872896D01*
X431800Y-957224D01*
X447040Y-957224D01*
X447040Y-827176D01*
X433070Y-827176D01*
X433120Y-902512D01*
X433425Y-912672D01*
X434848Y-937920D01*
X434085Y-937920D01*
X420116Y-911250D01*
X370840Y-827176D01*
G37*
G36*
X483362Y-827176D02*
G01*
X483362Y-839114D01*
X514096Y-839114D01*
X519836Y-839317D01*
X525170Y-839978D01*
X530148Y-841095D01*
X534720Y-842619D01*
X538937Y-844600D01*
X542798Y-846937D01*
X546303Y-849731D01*
X549402Y-852932D01*
X552145Y-856487D01*
X554532Y-860399D01*
X556514Y-864717D01*
X558190Y-869442D01*
X559460Y-874471D01*
X560374Y-879856D01*
X560882Y-885596D01*
X561086Y-891692D01*
X560882Y-897737D01*
X560374Y-903528D01*
X559460Y-908964D01*
X558190Y-914044D01*
X556514Y-918768D01*
X554532Y-923188D01*
X552145Y-927201D01*
X549402Y-930808D01*
X546303Y-934059D01*
X542798Y-936904D01*
X538937Y-939342D01*
X534720Y-941374D01*
X530148Y-942949D01*
X525170Y-944067D01*
X519836Y-944778D01*
X514096Y-945032D01*
X498093Y-945032D01*
X498093Y-839114D01*
X483362Y-839114D01*
X483362Y-957224D01*
X515874Y-957224D01*
X523036Y-956919D01*
X529742Y-956056D01*
X536041Y-954684D01*
X541883Y-952703D01*
X547268Y-950264D01*
X552246Y-947267D01*
X556717Y-943762D01*
X560730Y-939800D01*
X564286Y-935329D01*
X567385Y-930402D01*
X570026Y-925017D01*
X572211Y-919175D01*
X573887Y-912926D01*
X575106Y-906221D01*
X575818Y-899160D01*
X576072Y-891692D01*
X575818Y-884224D01*
X575106Y-877163D01*
X573887Y-870559D01*
X572211Y-864362D01*
X570026Y-858570D01*
X567385Y-853287D01*
X564286Y-848461D01*
X560679Y-844092D01*
X556615Y-840181D01*
X552094Y-836777D01*
X547116Y-833882D01*
X541680Y-831494D01*
X535787Y-829614D01*
X529437Y-828243D01*
X522630Y-827430D01*
X515366Y-827176D01*
G37*
G36*
X645922Y-827176D02*
G01*
X641604Y-887628D01*
X649732Y-892454D01*
X655066Y-889152D01*
X660196Y-886714D01*
X665683Y-885139D01*
X671830Y-884580D01*
X677824Y-885088D01*
X683260Y-886714D01*
X688035Y-889304D01*
X692099Y-892810D01*
X695350Y-897280D01*
X697738Y-902563D01*
X699262Y-908659D01*
X699770Y-915568D01*
X699160Y-922528D01*
X697484Y-928776D01*
X694842Y-934212D01*
X691337Y-938784D01*
X687070Y-942390D01*
X682193Y-945083D01*
X676808Y-946759D01*
X671068Y-947318D01*
X665530Y-947013D01*
X660501Y-946099D01*
X655929Y-944727D01*
X651764Y-942898D01*
X648004Y-940714D01*
X644550Y-938174D01*
X641451Y-935482D01*
X638556Y-932586D01*
X631190Y-942238D01*
X634695Y-945540D01*
X638505Y-948690D01*
X642772Y-951585D01*
X647496Y-954176D01*
X652729Y-956360D01*
X658571Y-958037D01*
X665124Y-959103D01*
X672338Y-959510D01*
X677722Y-959154D01*
X682955Y-958138D01*
X687984Y-956513D01*
X692810Y-954227D01*
X697280Y-951331D01*
X701395Y-947826D01*
X705053Y-943762D01*
X708202Y-939088D01*
X710742Y-933907D01*
X712622Y-928116D01*
X713841Y-921867D01*
X714248Y-915060D01*
X713892Y-908202D01*
X712876Y-902004D01*
X711200Y-896416D01*
X708914Y-891489D01*
X706120Y-887171D01*
X702818Y-883462D01*
X699058Y-880313D01*
X694944Y-877824D01*
X690473Y-875842D01*
X685698Y-874471D01*
X680618Y-873658D01*
X675386Y-873404D01*
X669645Y-873810D01*
X664464Y-874928D01*
X659688Y-876706D01*
X655066Y-878992D01*
X658622Y-839622D01*
X708152Y-839622D01*
X708152Y-827176D01*
G37*
G36*
X724154Y-827176D02*
G01*
X766064Y-957224D01*
X782828Y-957224D01*
X824484Y-827176D01*
X809498Y-827176D01*
X776782Y-936396D01*
X774954Y-941984D01*
X774446Y-941984D01*
X767791Y-920496D01*
X761492Y-898804D01*
X739648Y-827176D01*
G37*
G36*
X2991358Y-8442452D02*
G01*
X2987294Y-8502904D01*
X2995168Y-8507730D01*
X3000603Y-8504478D01*
X3005734Y-8501989D01*
X3011119Y-8500414D01*
X3017266Y-8499856D01*
X3023362Y-8500414D01*
X3028797Y-8501989D01*
X3033572Y-8504580D01*
X3037636Y-8508136D01*
X3040837Y-8512556D01*
X3043224Y-8517839D01*
X3044698Y-8523986D01*
X3045206Y-8530844D01*
X3044596Y-8537803D01*
X3042920Y-8544052D01*
X3040278Y-8549487D01*
X3036773Y-8554059D01*
X3032506Y-8557717D01*
X3027629Y-8560358D01*
X3022244Y-8562035D01*
X3016504Y-8562594D01*
X3005937Y-8561374D01*
X2997301Y-8558174D01*
X2990088Y-8553500D01*
X2983992Y-8547862D01*
X2976880Y-8557514D01*
X2980283Y-8560816D01*
X2984093Y-8563965D01*
X2988310Y-8566861D01*
X2993034Y-8569502D01*
X2998317Y-8571687D01*
X3004108Y-8573312D01*
X3010611Y-8574430D01*
X3017774Y-8574786D01*
X3023158Y-8574430D01*
X3028391Y-8573465D01*
X3033471Y-8571788D01*
X3038297Y-8569502D01*
X3042818Y-8566607D01*
X3046933Y-8563152D01*
X3050641Y-8559038D01*
X3053791Y-8554415D01*
X3056382Y-8549182D01*
X3058312Y-8543442D01*
X3059531Y-8537143D01*
X3059938Y-8530336D01*
X3059582Y-8523478D01*
X3058515Y-8517280D01*
X3056839Y-8511743D01*
X3054604Y-8506764D01*
X3051759Y-8502446D01*
X3048457Y-8498738D01*
X3044698Y-8495639D01*
X3040583Y-8493099D01*
X3036062Y-8491169D01*
X3031236Y-8489797D01*
X3026105Y-8488934D01*
X3020822Y-8488680D01*
X3015081Y-8489086D01*
X3009900Y-8490254D01*
X3005124Y-8491982D01*
X3000502Y-8494268D01*
X3004058Y-8454898D01*
X3053588Y-8454898D01*
X3053588Y-8442452D01*
G37*
G36*
X3069844Y-8442452D02*
G01*
X3111500Y-8572500D01*
X3128518Y-8572500D01*
X3170174Y-8442452D01*
X3155188Y-8442452D01*
X3122472Y-8551672D01*
X3120644Y-8557260D01*
X3119882Y-8557260D01*
X3107182Y-8514080D01*
X3085338Y-8442452D01*
G37*
G36*
X8172958Y-7629652D02*
G01*
X8168894Y-7690103D01*
X8176768Y-7694930D01*
X8182203Y-7691678D01*
X8187334Y-7689189D01*
X8192719Y-7687614D01*
X8198866Y-7687056D01*
X8204962Y-7687614D01*
X8210397Y-7689189D01*
X8215172Y-7691780D01*
X8219236Y-7695336D01*
X8222437Y-7699756D01*
X8224824Y-7705039D01*
X8226298Y-7711186D01*
X8226806Y-7718044D01*
X8226196Y-7725003D01*
X8224520Y-7731252D01*
X8221878Y-7736687D01*
X8218373Y-7741259D01*
X8214106Y-7744917D01*
X8209229Y-7747558D01*
X8203844Y-7749235D01*
X8198103Y-7749794D01*
X8187537Y-7748574D01*
X8178901Y-7745374D01*
X8171688Y-7740700D01*
X8165592Y-7735062D01*
X8158480Y-7744714D01*
X8161883Y-7748016D01*
X8165693Y-7751165D01*
X8169909Y-7754061D01*
X8174634Y-7756702D01*
X8179917Y-7758887D01*
X8185708Y-7760512D01*
X8192211Y-7761630D01*
X8199374Y-7761986D01*
X8204758Y-7761630D01*
X8209991Y-7760665D01*
X8215071Y-7758988D01*
X8219897Y-7756702D01*
X8224418Y-7753807D01*
X8228533Y-7750352D01*
X8232241Y-7746238D01*
X8235391Y-7741615D01*
X8237981Y-7736382D01*
X8239912Y-7730642D01*
X8241131Y-7724343D01*
X8241538Y-7717536D01*
X8241182Y-7710678D01*
X8240115Y-7704480D01*
X8238439Y-7698943D01*
X8236203Y-7693964D01*
X8233359Y-7689646D01*
X8230057Y-7685938D01*
X8226298Y-7682839D01*
X8222183Y-7680299D01*
X8217662Y-7678369D01*
X8212836Y-7676997D01*
X8207705Y-7676134D01*
X8202422Y-7675880D01*
X8196681Y-7676286D01*
X8191500Y-7677454D01*
X8186724Y-7679181D01*
X8182102Y-7681468D01*
X8185658Y-7642098D01*
X8235188Y-7642098D01*
X8235188Y-7629652D01*
G37*
G36*
X8251444Y-7629652D02*
G01*
X8293100Y-7759700D01*
X8310118Y-7759700D01*
X8351774Y-7629652D01*
X8336788Y-7629652D01*
X8304072Y-7738872D01*
X8302244Y-7744459D01*
X8301481Y-7744459D01*
X8288781Y-7701280D01*
X8266938Y-7629652D01*
G37*
G36*
X8160258Y-4632452D02*
G01*
X8156194Y-4692904D01*
X8164068Y-4697730D01*
X8169503Y-4694478D01*
X8174634Y-4691989D01*
X8180019Y-4690414D01*
X8186166Y-4689856D01*
X8192262Y-4690414D01*
X8197697Y-4691989D01*
X8202472Y-4694580D01*
X8206536Y-4698136D01*
X8209737Y-4702556D01*
X8212124Y-4707839D01*
X8213598Y-4713986D01*
X8214106Y-4720844D01*
X8213496Y-4727803D01*
X8211820Y-4734052D01*
X8209178Y-4739487D01*
X8205673Y-4744059D01*
X8201406Y-4747717D01*
X8196529Y-4750358D01*
X8191144Y-4752035D01*
X8185403Y-4752594D01*
X8174837Y-4751374D01*
X8166201Y-4748174D01*
X8158988Y-4743500D01*
X8152892Y-4737862D01*
X8145780Y-4747514D01*
X8149183Y-4750816D01*
X8152993Y-4753965D01*
X8157209Y-4756861D01*
X8161934Y-4759502D01*
X8167217Y-4761687D01*
X8173008Y-4763312D01*
X8179511Y-4764430D01*
X8186674Y-4764786D01*
X8192058Y-4764430D01*
X8197291Y-4763465D01*
X8202371Y-4761788D01*
X8207197Y-4759502D01*
X8211718Y-4756607D01*
X8215833Y-4753152D01*
X8219541Y-4749038D01*
X8222691Y-4744415D01*
X8225281Y-4739182D01*
X8227212Y-4733442D01*
X8228431Y-4727143D01*
X8228838Y-4720336D01*
X8228482Y-4713478D01*
X8227415Y-4707280D01*
X8225739Y-4701743D01*
X8223503Y-4696764D01*
X8220659Y-4692446D01*
X8217357Y-4688738D01*
X8213598Y-4685639D01*
X8209483Y-4683099D01*
X8204962Y-4681169D01*
X8200136Y-4679797D01*
X8195005Y-4678934D01*
X8189722Y-4678680D01*
X8183981Y-4679086D01*
X8178800Y-4680254D01*
X8174024Y-4681982D01*
X8169402Y-4684268D01*
X8172958Y-4644898D01*
X8222488Y-4644898D01*
X8222488Y-4632452D01*
G37*
G36*
X8238744Y-4632452D02*
G01*
X8280400Y-4762500D01*
X8297418Y-4762500D01*
X8339074Y-4632452D01*
X8324088Y-4632452D01*
X8291372Y-4741672D01*
X8289544Y-4747260D01*
X8288781Y-4747260D01*
X8276081Y-4704080D01*
X8254238Y-4632452D01*
G37*
G36*
X6227826Y-1045718D02*
G01*
X6227826Y-1084834D01*
X6191758Y-1084834D01*
X6191758Y-1095756D01*
X6227826Y-1095756D01*
X6227826Y-1134872D01*
X6239764Y-1134872D01*
X6239764Y-1095756D01*
X6275832Y-1095756D01*
X6275832Y-1084834D01*
X6239764Y-1084834D01*
X6239764Y-1045718D01*
G37*
G36*
X2597658Y-784352D02*
G01*
X2593594Y-844803D01*
X2601468Y-849630D01*
X2606903Y-846378D01*
X2612034Y-843889D01*
X2617419Y-842314D01*
X2623566Y-841756D01*
X2629662Y-842314D01*
X2635097Y-843889D01*
X2639872Y-846480D01*
X2643936Y-850036D01*
X2647137Y-854456D01*
X2649524Y-859739D01*
X2650998Y-865886D01*
X2651506Y-872744D01*
X2650896Y-879703D01*
X2649220Y-885952D01*
X2646578Y-891387D01*
X2643073Y-895959D01*
X2638806Y-899617D01*
X2633929Y-902258D01*
X2628544Y-903935D01*
X2622804Y-904494D01*
X2612237Y-903274D01*
X2603601Y-900074D01*
X2596388Y-895400D01*
X2590292Y-889762D01*
X2583180Y-899414D01*
X2586583Y-902716D01*
X2590393Y-905865D01*
X2594610Y-908761D01*
X2599334Y-911402D01*
X2604617Y-913587D01*
X2610408Y-915212D01*
X2616911Y-916330D01*
X2624074Y-916686D01*
X2629458Y-916330D01*
X2634691Y-915365D01*
X2639771Y-913688D01*
X2644597Y-911402D01*
X2649118Y-908507D01*
X2653233Y-905052D01*
X2656941Y-900937D01*
X2660091Y-896315D01*
X2662682Y-891082D01*
X2664612Y-885342D01*
X2665831Y-879043D01*
X2666238Y-872236D01*
X2665882Y-865378D01*
X2664815Y-859180D01*
X2663139Y-853643D01*
X2660904Y-848664D01*
X2658059Y-844346D01*
X2654757Y-840638D01*
X2650998Y-837539D01*
X2646883Y-834999D01*
X2642362Y-833069D01*
X2637536Y-831697D01*
X2632405Y-830834D01*
X2627122Y-830580D01*
X2621381Y-830986D01*
X2616200Y-832154D01*
X2611424Y-833882D01*
X2606802Y-836168D01*
X2610358Y-796798D01*
X2659888Y-796798D01*
X2659888Y-784352D01*
G37*
G36*
X2676144Y-784352D02*
G01*
X2717800Y-914400D01*
X2734818Y-914400D01*
X2776474Y-784352D01*
X2761488Y-784352D01*
X2728772Y-893571D01*
X2726944Y-899160D01*
X2726182Y-899160D01*
X2713482Y-855980D01*
X2691638Y-784352D01*
G37*
D10*
X6986777Y-5689092D02*
G01*
X6981443Y-5678678D01*
X6971029Y-5668263D01*
X6960870Y-5663184D01*
X6940041Y-5663184D01*
X6929627Y-5668263D01*
X6919213Y-5678678D01*
X6913879Y-5689092D01*
X6908800Y-5704839D01*
X6908800Y-5730747D01*
X6913879Y-5746242D01*
X6919213Y-5756655D01*
X6929627Y-5767070D01*
X6940041Y-5772150D01*
X6960870Y-5772150D01*
X6971029Y-5767070D01*
X6981443Y-5756655D01*
X6986777Y-5746242D01*
X7021068Y-5684012D02*
G01*
X7031481Y-5678678D01*
X7046975Y-5663184D01*
X7046975Y-5772150D01*
X6948677Y-2691892D02*
G01*
X6943343Y-2681478D01*
X6932929Y-2671063D01*
X6922770Y-2665984D01*
X6901941Y-2665984D01*
X6891527Y-2671063D01*
X6881113Y-2681478D01*
X6875779Y-2691892D01*
X6870700Y-2707639D01*
X6870700Y-2733547D01*
X6875779Y-2749042D01*
X6881113Y-2759455D01*
X6891527Y-2769870D01*
X6901941Y-2774950D01*
X6922770Y-2774950D01*
X6932929Y-2769870D01*
X6943343Y-2759455D01*
X6948677Y-2749042D01*
X6993381Y-2665984D02*
G01*
X7050531Y-2665984D01*
X7019290Y-2707639D01*
X7034784Y-2707639D01*
X7045197Y-2712720D01*
X7050531Y-2717800D01*
X7055611Y-2733547D01*
X7055611Y-2743962D01*
X7050531Y-2759455D01*
X7040118Y-2769870D01*
X7024370Y-2774950D01*
X7008875Y-2774950D01*
X6993381Y-2769870D01*
X6988047Y-2764789D01*
X6982968Y-2754376D01*
X3974591Y-5560821D02*
G01*
X3964177Y-5566155D01*
X3953763Y-5576570D01*
X3948684Y-5586729D01*
X3948684Y-5607557D01*
X3953763Y-5617971D01*
X3964177Y-5628386D01*
X3974591Y-5633720D01*
X3990340Y-5638800D01*
X4016247Y-5638800D01*
X4031741Y-5633720D01*
X4042156Y-5628386D01*
X4052570Y-5617971D01*
X4057650Y-5607557D01*
X4057650Y-5586729D01*
X4052570Y-5576570D01*
X4042156Y-5566155D01*
X4031741Y-5560821D01*
X3948684Y-5453887D02*
G01*
X4057650Y-5505704D01*
X3948684Y-5526531D02*
G01*
X3948684Y-5453887D01*
X3898391Y-2517531D02*
G01*
X3887977Y-2522865D01*
X3877563Y-2533279D01*
X3872484Y-2543439D01*
X3872484Y-2564267D01*
X3877563Y-2574681D01*
X3887977Y-2585095D01*
X3898391Y-2590429D01*
X3914140Y-2595509D01*
X3940047Y-2595509D01*
X3955541Y-2590429D01*
X3965956Y-2585095D01*
X3976370Y-2574681D01*
X3981450Y-2564267D01*
X3981450Y-2543439D01*
X3976370Y-2533279D01*
X3965956Y-2522865D01*
X3955541Y-2517531D01*
X3893311Y-2483241D02*
G01*
X3887977Y-2472827D01*
X3872484Y-2457333D01*
X3981450Y-2457333D01*
X3872484Y-2391801D02*
G01*
X3877563Y-2407549D01*
X3893311Y-2417709D01*
X3919220Y-2423043D01*
X3934713Y-2423043D01*
X3960875Y-2417709D01*
X3976370Y-2407549D01*
X3981450Y-2391801D01*
X3981450Y-2381387D01*
X3976370Y-2365893D01*
X3960875Y-2355479D01*
X3934713Y-2350399D01*
X3919220Y-2350399D01*
X3893311Y-2355479D01*
X3877563Y-2365893D01*
X3872484Y-2381387D01*
X3872484Y-2391801D01*
X2350008Y-5107178D02*
G01*
X2360422Y-5101844D01*
X2370836Y-5091429D01*
X2375915Y-5081270D01*
X2375915Y-5060442D01*
X2370836Y-5050028D01*
X2360422Y-5039613D01*
X2350008Y-5034279D01*
X2334259Y-5029200D01*
X2308352Y-5029200D01*
X2292858Y-5034279D01*
X2282443Y-5039613D01*
X2272029Y-5050028D01*
X2266950Y-5060442D01*
X2266950Y-5081270D01*
X2272029Y-5091429D01*
X2282443Y-5101844D01*
X2292858Y-5107178D01*
X2375915Y-5167376D02*
G01*
X2370836Y-5151881D01*
X2360422Y-5146547D01*
X2350008Y-5146547D01*
X2339593Y-5151881D01*
X2334259Y-5162295D01*
X2329179Y-5182870D01*
X2324100Y-5198618D01*
X2313686Y-5209031D01*
X2303272Y-5214112D01*
X2287524Y-5214112D01*
X2277109Y-5209031D01*
X2272029Y-5203697D01*
X2266950Y-5188204D01*
X2266950Y-5167376D01*
X2272029Y-5151881D01*
X2277109Y-5146547D01*
X2287524Y-5141468D01*
X2303272Y-5141468D01*
X2313686Y-5146547D01*
X2324100Y-5156962D01*
X2329179Y-5172710D01*
X2334259Y-5193284D01*
X2339593Y-5203697D01*
X2350008Y-5209031D01*
X2360422Y-5209031D01*
X2370836Y-5203697D01*
X2375915Y-5188204D01*
X2375915Y-5167376D01*
X2286508Y-1619387D02*
G01*
X2296922Y-1614053D01*
X2307336Y-1603639D01*
X2312415Y-1593479D01*
X2312415Y-1572651D01*
X2307336Y-1562237D01*
X2296922Y-1551823D01*
X2286508Y-1546489D01*
X2270759Y-1541409D01*
X2244852Y-1541409D01*
X2229358Y-1546489D01*
X2218943Y-1551823D01*
X2208529Y-1562237D01*
X2203450Y-1572651D01*
X2203450Y-1593479D01*
X2208529Y-1603639D01*
X2218943Y-1614053D01*
X2229358Y-1619387D01*
X2276093Y-1721241D02*
G01*
X2260600Y-1715907D01*
X2250186Y-1705493D01*
X2244852Y-1689999D01*
X2244852Y-1684919D01*
X2250186Y-1669171D01*
X2260600Y-1658757D01*
X2276093Y-1653677D01*
X2281174Y-1653677D01*
X2296922Y-1658757D01*
X2307336Y-1669171D01*
X2312415Y-1684919D01*
X2312415Y-1689999D01*
X2307336Y-1705493D01*
X2296922Y-1715907D01*
X2276093Y-1721241D01*
X2250186Y-1721241D01*
X2224024Y-1715907D01*
X2208529Y-1705493D01*
X2203450Y-1689999D01*
X2203450Y-1679585D01*
X2208529Y-1664091D01*
X2218943Y-1658757D01*
X4534408Y-611378D02*
G01*
X4544822Y-606044D01*
X4555236Y-595629D01*
X4560315Y-585470D01*
X4560315Y-564642D01*
X4555236Y-554228D01*
X4544822Y-543813D01*
X4534408Y-538479D01*
X4518659Y-533400D01*
X4492752Y-533400D01*
X4477258Y-538479D01*
X4466843Y-543813D01*
X4456429Y-554228D01*
X4451350Y-564642D01*
X4451350Y-585470D01*
X4456429Y-595629D01*
X4466843Y-606044D01*
X4477258Y-611378D01*
X4560315Y-645668D02*
G01*
X4451350Y-645668D01*
X4560315Y-645668D02*
G01*
X4451350Y-718312D01*
X4560315Y-718312D02*
G01*
X4451350Y-718312D01*
X4539488Y-752602D02*
G01*
X4544822Y-763015D01*
X4560315Y-778510D01*
X4451350Y-778510D01*
D11*
X3890380Y-961354D02*
G01*
X4056750Y-961354D01*
X5078338Y-903696D02*
G01*
X5078338Y-1069812D01*
X4995280Y-986754D02*
G01*
X5161650Y-986754D01*
D10*
X2895600Y-4799584D02*
G01*
X2895600Y-4908550D01*
X2895600Y-4799584D02*
G01*
X2931922Y-4799584D01*
X2947670Y-4804663D01*
X2957829Y-4815078D01*
X2963163Y-4825492D01*
X2968243Y-4841239D01*
X2968243Y-4867147D01*
X2963163Y-4882642D01*
X2957829Y-4893055D01*
X2947670Y-4903470D01*
X2931922Y-4908550D01*
X2895600Y-4908550D01*
X3002534Y-4820412D02*
G01*
X3012947Y-4815078D01*
X3028695Y-4799584D01*
X3028695Y-4908550D01*
X2705100Y-1578493D02*
G01*
X2705100Y-1687459D01*
X2705100Y-1578493D02*
G01*
X2741422Y-1578493D01*
X2757170Y-1583573D01*
X2767329Y-1593987D01*
X2772663Y-1604401D01*
X2777743Y-1620149D01*
X2777743Y-1646057D01*
X2772663Y-1661551D01*
X2767329Y-1671965D01*
X2757170Y-1682379D01*
X2741422Y-1687459D01*
X2705100Y-1687459D01*
X2817368Y-1604401D02*
G01*
X2817368Y-1599321D01*
X2822447Y-1588907D01*
X2827781Y-1583573D01*
X2838195Y-1578493D01*
X2858770Y-1578493D01*
X2869184Y-1583573D01*
X2874518Y-1588907D01*
X2879597Y-1599321D01*
X2879597Y-1609735D01*
X2874518Y-1620149D01*
X2864104Y-1635643D01*
X2812034Y-1687459D01*
X2884931Y-1687459D01*
X8232266Y-7325385D02*
G01*
X8341233Y-7325385D01*
X8232266Y-7252741D02*
G01*
X8341233Y-7252741D01*
X8284083Y-7325385D02*
G01*
X8284083Y-7252741D01*
X8253095Y-7218451D02*
G01*
X8247761Y-7208037D01*
X8232266Y-7192289D01*
X8341233Y-7192289D01*
X8232266Y-4325391D02*
G01*
X8341233Y-4325391D01*
X8232266Y-4252747D02*
G01*
X8341233Y-4252747D01*
X8284083Y-4325391D02*
G01*
X8284083Y-4252747D01*
X8258175Y-4213123D02*
G01*
X8253095Y-4213123D01*
X8242681Y-4208043D01*
X8237347Y-4202709D01*
X8232266Y-4192295D01*
X8232266Y-4171721D01*
X8237347Y-4161307D01*
X8242681Y-4155973D01*
X8253095Y-4150893D01*
X8263509Y-4150893D01*
X8273922Y-4155973D01*
X8289416Y-4166387D01*
X8341233Y-4218457D01*
X8341233Y-4145559D01*
X750315Y-6997700D02*
G01*
X641350Y-6997700D01*
X750315Y-7070344D02*
G01*
X641350Y-7070344D01*
X698500Y-6997700D02*
G01*
X698500Y-7070344D01*
X750315Y-7115047D02*
G01*
X750315Y-7172197D01*
X708660Y-7141210D01*
X708660Y-7156704D01*
X703579Y-7167118D01*
X698500Y-7172197D01*
X682752Y-7177531D01*
X672337Y-7177531D01*
X656844Y-7172197D01*
X646429Y-7161784D01*
X641350Y-7146289D01*
X641350Y-7130795D01*
X646429Y-7115047D01*
X651510Y-7109968D01*
X661923Y-7104634D01*
X1765300Y-8482584D02*
G01*
X1765300Y-8591550D01*
X1837944Y-8482584D02*
G01*
X1837944Y-8591550D01*
X1765300Y-8534400D02*
G01*
X1837944Y-8534400D01*
X1924304Y-8482584D02*
G01*
X1872234Y-8555228D01*
X1950211Y-8555228D01*
X1924304Y-8482584D02*
G01*
X1924304Y-8591550D01*
X3220110Y-474598D02*
G01*
X3111144Y-474598D01*
X3220110Y-547243D02*
G01*
X3111144Y-547243D01*
X3168294Y-474598D02*
G01*
X3168294Y-547243D01*
X3204616Y-644017D02*
G01*
X3215030Y-638682D01*
X3220110Y-623188D01*
X3220110Y-612775D01*
X3215030Y-597280D01*
X3199282Y-586867D01*
X3173374Y-581532D01*
X3147466Y-581532D01*
X3126638Y-586867D01*
X3116224Y-597280D01*
X3111144Y-612775D01*
X3111144Y-618109D01*
X3116224Y-633603D01*
X3126638Y-644017D01*
X3142132Y-649096D01*
X3147466Y-649096D01*
X3162960Y-644017D01*
X3173374Y-633603D01*
X3178454Y-618109D01*
X3178454Y-612775D01*
X3173374Y-597280D01*
X3162960Y-586867D01*
X3147466Y-581532D01*
X105282Y-1473327D02*
G01*
X188340Y-1473327D01*
X204088Y-1478661D01*
X209169Y-1483740D01*
X214248Y-1494154D01*
X214248Y-1504569D01*
X209169Y-1514982D01*
X204088Y-1520317D01*
X188340Y-1525396D01*
X177927Y-1525396D01*
X126111Y-1439037D02*
G01*
X120777Y-1428877D01*
X105282Y-1413129D01*
X214248Y-1413129D01*
X3379470Y-8482584D02*
G01*
X3379470Y-8565642D01*
X3374136Y-8581389D01*
X3369056Y-8586470D01*
X3358641Y-8591550D01*
X3348227Y-8591550D01*
X3337813Y-8586470D01*
X3332479Y-8581389D01*
X3327400Y-8565642D01*
X3327400Y-8555228D01*
X3418840Y-8508492D02*
G01*
X3418840Y-8503412D01*
X3423920Y-8492997D01*
X3429254Y-8487663D01*
X3439668Y-8482584D01*
X3460495Y-8482584D01*
X3470909Y-8487663D01*
X3475990Y-8492997D01*
X3481070Y-8503412D01*
X3481070Y-8513826D01*
X3475990Y-8524239D01*
X3465575Y-8539734D01*
X3413759Y-8591550D01*
X3486404Y-8591550D01*
X3351784Y-4495800D02*
G01*
X3460750Y-4495800D01*
X3460750Y-4495800D02*
G01*
X3460750Y-4433570D01*
X3372611Y-4399279D02*
G01*
X3367277Y-4388865D01*
X3351784Y-4373118D01*
X3460750Y-4373118D01*
X3199384Y-1325509D02*
G01*
X3308350Y-1325509D01*
X3308350Y-1325509D02*
G01*
X3308350Y-1263279D01*
X3225291Y-1223655D02*
G01*
X3220211Y-1223655D01*
X3209797Y-1218575D01*
X3204463Y-1213241D01*
X3199384Y-1202827D01*
X3199384Y-1181999D01*
X3204463Y-1171839D01*
X3209797Y-1166505D01*
X3220211Y-1161425D01*
X3230625Y-1161425D01*
X3241040Y-1166505D01*
X3256534Y-1176919D01*
X3308350Y-1228989D01*
X3308350Y-1156091D01*
X9096375Y-2993918D02*
G01*
X8987409Y-2993918D01*
X9096375Y-2993918D02*
G01*
X9096375Y-3040654D01*
X9091295Y-3056148D01*
X9085961Y-3061482D01*
X9075547Y-3066562D01*
X9060052Y-3066562D01*
X9049638Y-3061482D01*
X9044559Y-3056148D01*
X9039225Y-3040654D01*
X9039225Y-2993918D01*
X9075547Y-3100852D02*
G01*
X9080881Y-3111266D01*
X9096375Y-3127014D01*
X8987409Y-3127014D01*
X9096375Y-5976112D02*
G01*
X8987409Y-5976112D01*
X9096375Y-5976112D02*
G01*
X9096375Y-6022847D01*
X9091295Y-6038342D01*
X9085961Y-6043676D01*
X9075547Y-6048755D01*
X9060052Y-6048755D01*
X9049638Y-6043676D01*
X9044559Y-6038342D01*
X9039225Y-6022847D01*
X9039225Y-5976112D01*
X9070466Y-6088379D02*
G01*
X9075547Y-6088379D01*
X9085961Y-6093460D01*
X9091295Y-6098794D01*
X9096375Y-6109207D01*
X9096375Y-6129781D01*
X9091295Y-6140195D01*
X9085961Y-6145529D01*
X9075547Y-6150610D01*
X9065133Y-6150610D01*
X9054718Y-6145529D01*
X9039225Y-6135115D01*
X8987409Y-6083045D01*
X8987409Y-6155944D01*
X5976111Y96393D02*
G01*
X5976111Y-12572D01*
X5976111Y96393D02*
G01*
X6022847Y96393D01*
X6038341Y91312D01*
X6043675Y85979D01*
X6048756Y75564D01*
X6048756Y60070D01*
X6043675Y49656D01*
X6038341Y44577D01*
X6022847Y39243D01*
X5976111Y39243D01*
X6093459Y96393D02*
G01*
X6150609Y96393D01*
X6119622Y54737D01*
X6135115Y54737D01*
X6145529Y49656D01*
X6150609Y44577D01*
X6155943Y28829D01*
X6155943Y18414D01*
X6150609Y2920D01*
X6140195Y-7493D01*
X6124702Y-12572D01*
X6109208Y-12572D01*
X6093459Y-7493D01*
X6088379Y-2412D01*
X6083045Y8001D01*
X8449183Y-2110079D02*
G01*
X8449183Y-2219045D01*
X8449183Y-2110079D02*
G01*
X8495918Y-2110079D01*
X8511413Y-2115159D01*
X8516747Y-2120493D01*
X8521827Y-2130907D01*
X8521827Y-2141321D01*
X8516747Y-2151735D01*
X8511413Y-2156815D01*
X8495918Y-2161895D01*
X8449183Y-2161895D01*
X8485504Y-2161895D02*
G01*
X8521827Y-2219045D01*
X8556116Y-2130907D02*
G01*
X8566531Y-2125573D01*
X8582279Y-2110079D01*
X8582279Y-2219045D01*
X8407400Y-5155184D02*
G01*
X8407400Y-5264150D01*
X8407400Y-5155184D02*
G01*
X8454136Y-5155184D01*
X8469629Y-5160263D01*
X8474963Y-5165597D01*
X8480043Y-5176012D01*
X8480043Y-5186426D01*
X8474963Y-5196839D01*
X8469629Y-5201920D01*
X8454136Y-5207000D01*
X8407400Y-5207000D01*
X8443722Y-5207000D02*
G01*
X8480043Y-5264150D01*
X8519668Y-5181092D02*
G01*
X8519668Y-5176012D01*
X8524747Y-5165597D01*
X8530081Y-5160263D01*
X8540495Y-5155184D01*
X8561070Y-5155184D01*
X8571484Y-5160263D01*
X8576818Y-5165597D01*
X8581897Y-5176012D01*
X8581897Y-5186426D01*
X8576818Y-5196839D01*
X8566404Y-5212334D01*
X8514334Y-5264150D01*
X8587231Y-5264150D01*
X7900415Y-5143500D02*
G01*
X7822438Y-5143500D01*
X7806943Y-5148579D01*
X7796529Y-5158994D01*
X7791450Y-5174742D01*
X7791450Y-5185155D01*
X7796529Y-5200650D01*
X7806943Y-5211063D01*
X7822438Y-5216144D01*
X7900415Y-5216144D01*
X7879588Y-5250434D02*
G01*
X7884922Y-5260847D01*
X7900415Y-5276595D01*
X7791450Y-5276595D01*
X7900415Y-2120900D02*
G01*
X7822438Y-2120900D01*
X7806943Y-2125979D01*
X7796529Y-2136394D01*
X7791450Y-2152142D01*
X7791450Y-2162555D01*
X7796529Y-2178050D01*
X7806943Y-2188463D01*
X7822438Y-2193544D01*
X7900415Y-2193544D01*
X7874508Y-2233168D02*
G01*
X7879588Y-2233168D01*
X7890002Y-2238247D01*
X7895336Y-2243581D01*
X7900415Y-2253995D01*
X7900415Y-2274570D01*
X7895336Y-2284984D01*
X7890002Y-2290318D01*
X7879588Y-2295397D01*
X7869174Y-2295397D01*
X7858759Y-2290318D01*
X7843265Y-2279904D01*
X7791450Y-2227834D01*
X7791450Y-2300731D01*
X6343370Y-2238095D02*
G01*
X6421348Y-2238095D01*
X6436842Y-2233015D01*
X6447256Y-2222601D01*
X6452336Y-2206853D01*
X6452336Y-2196439D01*
X6447256Y-2180945D01*
X6436842Y-2170531D01*
X6421348Y-2165451D01*
X6343370Y-2165451D01*
X6343370Y-2120747D02*
G01*
X6343370Y-2063597D01*
X6385026Y-2094585D01*
X6385026Y-2079091D01*
X6390106Y-2068677D01*
X6395186Y-2063597D01*
X6410934Y-2058263D01*
X6421348Y-2058263D01*
X6436842Y-2063597D01*
X6447256Y-2074011D01*
X6452336Y-2089505D01*
X6452336Y-2104999D01*
X6447256Y-2120747D01*
X6442176Y-2125827D01*
X6431762Y-2131161D01*
X6412484Y-5283200D02*
G01*
X6490461Y-5283200D01*
X6505956Y-5278120D01*
X6516370Y-5267705D01*
X6521450Y-5251957D01*
X6521450Y-5241544D01*
X6516370Y-5226050D01*
X6505956Y-5215636D01*
X6490461Y-5210555D01*
X6412484Y-5210555D01*
X6412484Y-5124195D02*
G01*
X6485127Y-5176265D01*
X6485127Y-5098287D01*
X6412484Y-5124195D02*
G01*
X6521450Y-5124195D01*
X2882900Y-5675884D02*
G01*
X2882900Y-5753862D01*
X2887979Y-5769355D01*
X2898393Y-5779770D01*
X2914141Y-5784850D01*
X2924556Y-5784850D01*
X2940050Y-5779770D01*
X2950463Y-5769355D01*
X2955543Y-5753862D01*
X2955543Y-5675884D01*
X3057397Y-5712205D02*
G01*
X3052318Y-5727700D01*
X3041904Y-5738113D01*
X3026409Y-5743447D01*
X3021075Y-5743447D01*
X3005581Y-5738113D01*
X2995168Y-5727700D01*
X2989834Y-5712205D01*
X2989834Y-5707126D01*
X2995168Y-5691378D01*
X3005581Y-5680963D01*
X3021075Y-5675884D01*
X3026409Y-5675884D01*
X3041904Y-5680963D01*
X3052318Y-5691378D01*
X3057397Y-5712205D01*
X3057397Y-5738113D01*
X3052318Y-5764276D01*
X3041904Y-5779770D01*
X3026409Y-5784850D01*
X3015995Y-5784850D01*
X3000247Y-5779770D01*
X2995168Y-5769355D01*
X2527300Y-2416693D02*
G01*
X2527300Y-2494671D01*
X2532379Y-2510165D01*
X2542793Y-2520579D01*
X2558541Y-2525659D01*
X2568956Y-2525659D01*
X2584450Y-2520579D01*
X2594863Y-2510165D01*
X2599943Y-2494671D01*
X2599943Y-2416693D01*
X2634234Y-2437521D02*
G01*
X2644647Y-2432187D01*
X2660395Y-2416693D01*
X2660395Y-2525659D01*
X2725674Y-2416693D02*
G01*
X2710179Y-2421773D01*
X2699765Y-2437521D01*
X2694686Y-2463429D01*
X2694686Y-2478923D01*
X2699765Y-2505085D01*
X2710179Y-2520579D01*
X2725674Y-2525659D01*
X2736088Y-2525659D01*
X2751836Y-2520579D01*
X2762250Y-2505085D01*
X2767329Y-2478923D01*
X2767329Y-2463429D01*
X2762250Y-2437521D01*
X2751836Y-2421773D01*
X2736088Y-2416693D01*
X2725674Y-2416693D01*
G36*
X4973472Y-5783122D02*
G01*
X3784498Y-5785104D01*
X3809492Y-5851093D01*
X3832504Y-5917082D01*
X3865524Y-5968085D01*
X3893515Y-6001105D01*
X3926484Y-6050076D01*
X3967479Y-6088075D01*
X4025493Y-6133084D01*
X4079494Y-6156096D01*
X4119524Y-6184087D01*
X4165498Y-6197092D01*
X4207510Y-6215075D01*
X4239514Y-6226098D01*
X4265523Y-6230112D01*
X4270502Y-6230112D01*
X4269536Y-5921095D01*
X4504486Y-5921095D01*
X4506518Y-6226098D01*
X4564481Y-6211112D01*
X4626508Y-6190081D01*
X4694478Y-6155080D01*
X4751476Y-6121095D01*
X4826508Y-6053124D01*
X4863490Y-6010097D01*
X4906518Y-5942076D01*
X4956505Y-5841085D01*
X4976520Y-5784088D01*
G37*
G36*
X4782972Y-2765196D02*
G01*
X3593998Y-2767228D01*
X3618992Y-2833217D01*
X3642004Y-2899206D01*
X3675024Y-2950210D01*
X3703015Y-2983230D01*
X3735984Y-3032201D01*
X3776979Y-3070199D01*
X3834993Y-3115208D01*
X3888994Y-3138220D01*
X3929024Y-3166211D01*
X3974998Y-3179216D01*
X4017010Y-3197199D01*
X4049014Y-3208223D01*
X4075023Y-3212185D01*
X4080001Y-3212185D01*
X4079036Y-2903220D01*
X4313986Y-2903220D01*
X4316018Y-3208223D01*
X4373981Y-3193186D01*
X4436008Y-3172206D01*
X4503978Y-3137204D01*
X4560976Y-3103219D01*
X4636008Y-3035198D01*
X4672990Y-2992221D01*
X4716018Y-2924200D01*
X4766005Y-2823210D01*
X4786020Y-2766212D01*
G37*
G36*
X1728876Y-5402376D02*
G01*
X1728876Y-5526024D01*
X1759762Y-5526024D01*
X1759762Y-5402376D01*
G37*
G36*
X1728876Y-4557776D02*
G01*
X1728876Y-4681423D01*
X1759762Y-4681423D01*
X1759762Y-4557776D01*
G37*
G36*
X1641297Y-4604156D02*
G01*
X1641297Y-4635042D01*
X1847291Y-4635042D01*
X1847291Y-4604156D01*
G37*
G36*
X1678076Y-1940001D02*
G01*
X1678076Y-2063597D01*
X1708962Y-2063597D01*
X1708962Y-1940001D01*
G37*
G36*
X1678076Y-1095400D02*
G01*
X1678076Y-1218996D01*
X1708962Y-1218996D01*
X1708962Y-1095400D01*
G37*
G36*
X1590497Y-1141780D02*
G01*
X1590497Y-1172667D01*
X1796491Y-1172667D01*
X1796491Y-1141780D01*
G37*
G36*
X6496659Y-1809902D02*
G01*
X6496659Y-1909521D01*
X6521551Y-1909521D01*
X6521551Y-1809902D01*
G37*
G36*
X6496659Y-2490520D02*
G01*
X6496659Y-2590088D01*
X6521551Y-2590088D01*
X6521551Y-2490520D01*
G37*
G36*
X6426098Y-2527858D02*
G01*
X6426098Y-2552750D01*
X6592112Y-2552750D01*
X6592112Y-2527858D01*
G37*
G36*
X6496659Y-4809896D02*
G01*
X6496659Y-4909515D01*
X6521551Y-4909515D01*
X6521551Y-4809896D01*
G37*
G36*
X6496659Y-5490514D02*
G01*
X6496659Y-5590082D01*
X6521551Y-5590082D01*
X6521551Y-5490514D01*
G37*
G36*
X6426098Y-5527852D02*
G01*
X6426098Y-5552744D01*
X6592112Y-5552744D01*
X6592112Y-5527852D01*
G37*
D12*
X7210981Y-5785957D02*
G01*
X7130983Y-5785957D01*
X7267026Y-5786003D02*
G01*
X7347023Y-5786003D01*
X7210981Y-5643989D02*
G01*
X7130983Y-5643989D01*
X7267026Y-5644037D02*
G01*
X7347023Y-5644037D01*
X7100008Y-5754974D02*
G01*
X7100008Y-5674969D01*
X7378001Y-5675022D02*
G01*
X7378001Y-5755025D01*
X7210981Y-2788757D02*
G01*
X7130983Y-2788757D01*
X7267026Y-2788803D02*
G01*
X7347023Y-2788803D01*
X7210981Y-2646789D02*
G01*
X7130983Y-2646789D01*
X7267026Y-2646837D02*
G01*
X7347023Y-2646837D01*
X7100008Y-2757774D02*
G01*
X7100008Y-2677769D01*
X7378001Y-2677822D02*
G01*
X7378001Y-2757825D01*
X3706500Y-6301099D02*
G01*
X3706500Y-5176100D01*
X5056499Y-6301099D02*
G01*
X5056499Y-5176100D01*
X5056499Y-6301099D02*
G01*
X4484613Y-6301099D01*
X4278386Y-6301099D02*
G01*
X3706500Y-6301099D01*
X4831499Y-4951100D02*
G01*
X4484613Y-4951100D01*
X4278386Y-4951100D02*
G01*
X3931500Y-4951100D01*
X5056499Y-5176100D02*
G01*
X4831499Y-4951100D01*
X3931500Y-4951100D02*
G01*
X3706500Y-5176100D01*
X3516000Y-3283209D02*
G01*
X3516000Y-2158210D01*
X4865999Y-3283209D02*
G01*
X4865999Y-2158210D01*
X4865999Y-3283209D02*
G01*
X4294113Y-3283209D01*
X4087886Y-3283209D02*
G01*
X3516000Y-3283209D01*
X4640999Y-1933209D02*
G01*
X4294113Y-1933209D01*
X4087886Y-1933209D02*
G01*
X3741000Y-1933209D01*
X4865999Y-2158210D02*
G01*
X4640999Y-1933209D01*
X3741000Y-1933209D02*
G01*
X3516000Y-2158210D01*
D10*
X2066442Y-5564522D02*
G01*
X2503822Y-5564522D01*
X2503822Y-4732901D01*
X2290198Y-4519277D01*
X2066442Y-4519277D01*
X1895957Y-5564522D02*
G01*
X1458577Y-5564522D01*
X1458577Y-4732901D01*
X1672201Y-4519277D01*
X1895957Y-4519277D01*
X2015642Y-2102131D02*
G01*
X2453022Y-2102131D01*
X2453022Y-1270510D01*
X2239398Y-1056886D01*
X2015642Y-1056886D01*
X1845157Y-2102131D02*
G01*
X1407777Y-2102131D01*
X1407777Y-1270510D01*
X1621401Y-1056886D01*
X1845157Y-1056886D01*
D12*
X3724983Y316552D02*
G01*
X3724983Y-1099987D01*
X5274978Y316552D02*
G01*
X5274978Y-1099987D01*
X3724983Y316552D02*
G01*
X5274978Y316552D01*
X4045623Y-1490916D02*
G01*
X3900622Y-1490154D01*
X4773810Y-1494744D02*
G01*
X4232358Y-1491899D01*
X5106177Y-1496491D02*
G01*
X4944107Y-1495640D01*
X3619500Y-4991402D02*
G01*
X3619500Y-4965707D01*
X3568199Y-4991402D02*
G01*
X3619500Y-4991402D01*
X3568700Y-4711707D02*
G01*
X3619500Y-4711707D01*
X3619500Y-4737107D01*
X3188197Y-4991402D02*
G01*
X3149600Y-4991402D01*
X3149600Y-4965707D01*
X3149600Y-4711707D02*
G01*
X3149600Y-4737107D01*
X3568700Y-4711707D02*
G01*
X3149600Y-4711707D01*
X3188197Y-4991402D02*
G01*
X3568199Y-4991402D01*
X3334760Y-4711412D02*
G01*
X3334760Y-4991402D01*
X3505200Y-1795711D02*
G01*
X3505200Y-1770016D01*
X3453899Y-1795711D02*
G01*
X3505200Y-1795711D01*
X3454400Y-1516016D02*
G01*
X3505200Y-1516016D01*
X3505200Y-1541416D01*
X3073897Y-1795711D02*
G01*
X3035300Y-1795711D01*
X3035300Y-1770016D01*
X3035300Y-1516016D02*
G01*
X3035300Y-1541416D01*
X3454400Y-1516016D02*
G01*
X3035300Y-1516016D01*
X3073897Y-1795711D02*
G01*
X3453899Y-1795711D01*
X3220460Y-1515722D02*
G01*
X3220460Y-1795711D01*
D11*
X8372983Y-6791985D02*
G01*
X8626983Y-6791985D01*
X8626983Y-7807985D01*
X8372983Y-7807985D01*
X8372983Y-7617485D01*
D13*
X8372983Y-6791985D02*
G01*
X8372983Y-7617485D01*
D11*
X8372983Y-3791991D02*
G01*
X8626983Y-3791991D01*
X8626983Y-4807991D01*
X8372983Y-4807991D01*
X8372983Y-4617491D01*
D13*
X8372983Y-3791991D02*
G01*
X8372983Y-4617491D01*
D11*
X609600Y-8039100D02*
G01*
X355600Y-8039100D01*
X355600Y-6007100D01*
X609600Y-6007100D01*
X609600Y-6197600D01*
D13*
X609600Y-8039100D02*
G01*
X609600Y-6197600D01*
D11*
X1219200Y-8623300D02*
G01*
X1028700Y-8623300D01*
X1028700Y-8877300D01*
X2552700Y-8877300D01*
X2552700Y-8623300D01*
D13*
X2552700Y-8623300D02*
G01*
X1219200Y-8623300D01*
D12*
X3053994Y-245998D02*
G01*
X3053994Y-753998D01*
X2545994Y-753998D01*
X2545994Y-245998D01*
X3053994Y-245998D01*
D11*
X245998Y-2007996D02*
G01*
X753998Y-2007996D01*
X753998Y-991996D01*
X245998Y-991996D01*
X245998Y-2007996D01*
X3162300Y-8623300D02*
G01*
X2971800Y-8623300D01*
X2971800Y-8877300D01*
X3733800Y-8877300D01*
X3733800Y-8623300D01*
D13*
X3733800Y-8623300D02*
G01*
X3162300Y-8623300D01*
D12*
X2961413Y-4209600D02*
G01*
X3058386Y-4209600D01*
X2959900Y-4629599D02*
G01*
X3056872Y-4629599D01*
X2821713Y-1013909D02*
G01*
X2918686Y-1013909D01*
X2820200Y-1433908D02*
G01*
X2917172Y-1433908D01*
X8923045Y-3538316D02*
G01*
X8023047Y-3538316D01*
X8920048Y-2488331D02*
G01*
X8020050Y-2488331D01*
X8923045Y-2488331D02*
G01*
X8923045Y-3538316D01*
X8740063Y-2485334D02*
G01*
X8740063Y-3535319D01*
X8863050Y-2488331D02*
G01*
X8863050Y-3538316D01*
X8020050Y-2488331D02*
G01*
X8020050Y-3538316D01*
X8923045Y-6520510D02*
G01*
X8023047Y-6520510D01*
X8920048Y-5470525D02*
G01*
X8020050Y-5470525D01*
X8923045Y-5470525D02*
G01*
X8923045Y-6520510D01*
X8740063Y-5467527D02*
G01*
X8740063Y-6517512D01*
X8863050Y-5470525D02*
G01*
X8863050Y-6520510D01*
X8020050Y-5470525D02*
G01*
X8020050Y-6520510D01*
X6520510Y-76936D02*
G01*
X6520510Y-976934D01*
X5470525Y-79933D02*
G01*
X5470525Y-979931D01*
X5470525Y-76936D02*
G01*
X6520510Y-76936D01*
X5467527Y-259918D02*
G01*
X6517513Y-259918D01*
X5470525Y-136931D02*
G01*
X6520510Y-136931D01*
X5470525Y-979931D02*
G01*
X6520510Y-979931D01*
D10*
X8249864Y-2004336D02*
G01*
X8106369Y-2004336D01*
X8106369Y-2395654D01*
X8249864Y-2395654D01*
X8750101Y-2004336D02*
G01*
X8893596Y-2004336D01*
X8893596Y-2395654D01*
X8750101Y-2395654D01*
X8750101Y-5395648D02*
G01*
X8893596Y-5395648D01*
X8893596Y-5004330D01*
X8750101Y-5004330D01*
X8249864Y-5395648D02*
G01*
X8106369Y-5395648D01*
X8106369Y-5004330D01*
X8249864Y-5004330D01*
X7752605Y-5047848D02*
G01*
X7752605Y-5352130D01*
X7247364Y-5352130D01*
X7247364Y-5047848D01*
X7752605Y-5047848D01*
X7752605Y-2047854D02*
G01*
X7752605Y-2352136D01*
X7247364Y-2352136D01*
X7247364Y-2047854D01*
X7752605Y-2047854D01*
X6621754Y-1777380D02*
G01*
X6277371Y-1777380D01*
X6277371Y-2448999D01*
X6450998Y-2622626D01*
X6621754Y-2622626D01*
X6778233Y-1777380D02*
G01*
X7122617Y-1777380D01*
X7122617Y-2448999D01*
X6948990Y-2622626D01*
X6778233Y-2622626D01*
X6621754Y-4777374D02*
G01*
X6277371Y-4777374D01*
X6277371Y-5448993D01*
X6450998Y-5622620D01*
X6621754Y-5622620D01*
X6778233Y-4777374D02*
G01*
X7122617Y-4777374D01*
X7122617Y-5448993D01*
X6948990Y-5622620D01*
X6778233Y-5622620D01*
D14*
X3525520Y-5637545D02*
G01*
X3525520Y-5818901D01*
X2494279Y-5640014D02*
G01*
X2494279Y-5818901D01*
X2494279Y-5649925D02*
G01*
X2494279Y-5602998D01*
X3525520Y-5649925D02*
G01*
X3525520Y-5602998D01*
D10*
X3525520Y-5602998D02*
G01*
X2494279Y-5602998D01*
D14*
X3411220Y-2391054D02*
G01*
X3411220Y-2572410D01*
X2379979Y-2393523D02*
G01*
X2379979Y-2572410D01*
X2379979Y-2403434D02*
G01*
X2379979Y-2356507D01*
X3411220Y-2403434D02*
G01*
X3411220Y-2356507D01*
D10*
X3411220Y-2356507D02*
G01*
X2379979Y-2356507D01*
D12*
G75*
G01*
X7347019Y-5644037D02*
G02*
X7378001Y-5675023I0J-30983D01*
G75*
G01*
X7378001Y-5755020D02*
G02*
X7347019Y-5786003I-30982J0D01*
G75*
G01*
X7130989Y-5785957D02*
G02*
X7100009Y-5754975I3J30982D01*
G75*
G01*
X7100009Y-5674977D02*
G02*
X7130989Y-5643989I30983J5D01*
G75*
G01*
X7347019Y-2646837D02*
G02*
X7378001Y-2677823I0J-30983D01*
G75*
G01*
X7378001Y-2757820D02*
G02*
X7347019Y-2788803I-30982J0D01*
G75*
G01*
X7130989Y-2788757D02*
G02*
X7100009Y-2757775I3J30982D01*
G75*
G01*
X7100009Y-2677777D02*
G02*
X7130989Y-2646789I30983J5D01*
G75*
G01*
X4509501Y-6226099D02*
G03*
X4489501Y-5023101I-141332J599315D01*
G75*
G01*
X4273499Y-5020102D02*
G03*
X4262443Y-6230463I114838J-606280D01*
G75*
G01*
X4319001Y-3208208D02*
G03*
X4299001Y-2005211I-141332J599315D01*
G75*
G01*
X4082999Y-2002211D02*
G03*
X4071943Y-3212572I114838J-606280D01*
G75*
G01*
X5274681Y-1093688D02*
G02*
X5106177Y-1496492I-599829J14278D01*
G75*
G01*
X3725281Y-1088888D02*
G03*
X3893784Y-1491691I599829J14278D01*
D15*
G75*
G01
X7718196Y-5098390D02*
G03X7718196Y-5098390I-15011J0D01*
G75*
G01
X7780833Y-4927930D02*
G03X7780833Y-4927930I-15011J0D01*
G75*
G01
X7718196Y-2098396D02*
G03X7718196Y-2098396I-15011J0D01*
G75*
G01
X7780833Y-1927936D02*
G03X7780833Y-1927936I-15011J0D01*
D16*
G75*
G01
X3487090Y-5247411D02*
G03X3487090Y-5247411I-19990J0D01*
G75*
G01
X3372790Y-2000910D02*
G03X3372790Y-2000910I-19990J0D01*
M02*
