G04 Layer: BottomSilkscreenLayer*
G04 EasyEDA v6.5.48, 2025-01-21 22:01:40*
G04 ce5bcd5d7360488599399ea35ca3f730,208856bd7ad64deca1bfdec547b981c7,10*
G04 Gerber Generator version 0.2*
G04 Scale: 100 percent, Rotated: No, Reflected: No *
G04 Dimensions in millimeters *
G04 leading zeros omitted , absolute positions ,4 integer and 5 decimal *
%FSLAX45Y45*%
%MOMM*%

%ADD10C,0.1524*%
%ADD11C,0.2032*%
%ADD12C,0.1500*%
%ADD13C,0.3000*%
%ADD14C,0.2540*%
%ADD15C,0.0175*%

%LPD*%
G36*
X6709765Y-1077010D02*
G01*
X6689090Y-1080160D01*
X6683857Y-1081278D01*
X6679844Y-1082446D01*
X6675018Y-1084580D01*
X6669684Y-1086154D01*
X6662420Y-1087932D01*
X6645351Y-1091488D01*
X6637070Y-1093419D01*
X6630162Y-1095298D01*
X6621119Y-1098245D01*
X6614414Y-1100023D01*
X6606387Y-1101852D01*
X6589877Y-1105052D01*
X6582918Y-1106627D01*
X6577838Y-1108049D01*
X6572758Y-1110183D01*
X6560261Y-1113485D01*
X6543090Y-1117244D01*
X6527901Y-1121105D01*
X6519367Y-1123950D01*
X6507988Y-1126845D01*
X6495592Y-1129334D01*
X6480810Y-1132840D01*
X6458204Y-1139088D01*
X6430924Y-1145997D01*
X6381496Y-1157376D01*
X6368491Y-1161440D01*
X6353708Y-1165352D01*
X6284772Y-1181811D01*
X6274308Y-1184148D01*
X6262420Y-1187196D01*
X6251549Y-1190244D01*
X6221831Y-1197102D01*
X6197803Y-1204010D01*
X6171336Y-1209802D01*
X6146647Y-1216761D01*
X6120180Y-1222603D01*
X6113526Y-1224381D01*
X6102146Y-1227836D01*
X6087922Y-1231290D01*
X6075273Y-1233678D01*
X6070092Y-1234846D01*
X6066180Y-1235964D01*
X6062319Y-1237742D01*
X6054394Y-1240282D01*
X6043218Y-1243076D01*
X6031280Y-1245463D01*
X6021527Y-1247038D01*
X6017666Y-1247851D01*
X6014720Y-1248714D01*
X6011164Y-1250492D01*
X6007862Y-1251712D01*
X5998057Y-1254404D01*
X5986119Y-1257096D01*
X5966561Y-1260652D01*
X5963564Y-1261516D01*
X5960059Y-1263294D01*
X5952236Y-1265834D01*
X5941060Y-1268577D01*
X5929071Y-1271016D01*
X5919266Y-1272590D01*
X5912459Y-1274216D01*
X5906363Y-1277213D01*
X5899353Y-1279601D01*
X5890361Y-1281785D01*
X5874258Y-1284833D01*
X5868873Y-1286154D01*
X5864453Y-1287576D01*
X5859068Y-1290218D01*
X5851093Y-1293418D01*
X5841949Y-1296466D01*
X5836767Y-1298549D01*
X5827674Y-1303020D01*
X5814568Y-1310690D01*
X5798566Y-1319580D01*
X5792012Y-1323848D01*
X5783478Y-1330401D01*
X5773724Y-1338529D01*
X5763361Y-1347673D01*
X5753100Y-1357223D01*
X5743600Y-1366520D01*
X5735574Y-1375003D01*
X5729681Y-1381963D01*
X5715304Y-1401064D01*
X5708142Y-1411071D01*
X5705957Y-1414576D01*
X5704687Y-1417726D01*
X5701233Y-1422654D01*
X5696305Y-1428648D01*
X5694273Y-1431594D01*
X5692902Y-1434033D01*
X5692038Y-1437284D01*
X5689752Y-1441704D01*
X5686145Y-1446885D01*
X5684113Y-1450492D01*
X5677255Y-1466088D01*
X5675274Y-1469644D01*
X5671667Y-1474978D01*
X5670042Y-1478127D01*
X5668721Y-1481429D01*
X5666892Y-1487830D01*
X5663539Y-1496009D01*
X5659526Y-1503781D01*
X5656072Y-1512265D01*
X5654090Y-1519478D01*
X5652566Y-1523949D01*
X5646724Y-1537360D01*
X5644845Y-1542491D01*
X5643321Y-1547571D01*
X5641390Y-1556664D01*
X5639866Y-1562049D01*
X5637987Y-1567586D01*
X5631078Y-1583486D01*
X5629503Y-1596898D01*
X5628538Y-1603248D01*
X5626963Y-1610563D01*
X5625084Y-1618030D01*
X5623102Y-1624634D01*
X5618226Y-1638909D01*
X5616346Y-1662125D01*
X5615025Y-1672488D01*
X5613247Y-1684121D01*
X5611215Y-1695602D01*
X5605068Y-1724914D01*
X5604930Y-1729028D01*
X6066231Y-1729028D01*
X6066383Y-1688236D01*
X6066891Y-1657045D01*
X6067755Y-1628292D01*
X6068974Y-1603146D01*
X6070549Y-1582724D01*
X6071412Y-1574647D01*
X6072428Y-1568196D01*
X6074410Y-1559356D01*
X6076238Y-1545742D01*
X6079490Y-1513636D01*
X6081166Y-1501495D01*
X6083046Y-1489913D01*
X6085078Y-1479296D01*
X6088583Y-1463751D01*
X6091631Y-1447850D01*
X6095492Y-1423162D01*
X6103010Y-1410360D01*
X6106922Y-1386586D01*
X6108090Y-1380794D01*
X6109208Y-1376578D01*
X6110020Y-1374546D01*
X6111544Y-1372819D01*
X6112916Y-1376324D01*
X6113424Y-1378813D01*
X6113881Y-1383030D01*
X6114237Y-1394206D01*
X6114237Y-1408633D01*
X6105347Y-1442313D01*
X6094577Y-1606397D01*
X6097003Y-1697583D01*
X6329883Y-1697583D01*
X6335877Y-1536090D01*
X6343040Y-1498295D01*
X6345326Y-1483868D01*
X6349746Y-1451813D01*
X6351117Y-1444599D01*
X6352540Y-1438757D01*
X6355080Y-1432052D01*
X6356299Y-1427988D01*
X6357366Y-1423416D01*
X6360871Y-1400860D01*
X6364376Y-1381302D01*
X6372047Y-1377188D01*
X6372047Y-1371600D01*
X6372758Y-1363675D01*
X6374434Y-1352499D01*
X6376771Y-1338986D01*
X6378752Y-1338986D01*
X6380937Y-1340256D01*
X6382258Y-1344269D01*
X6382613Y-1351280D01*
X6382105Y-1361541D01*
X6380937Y-1377289D01*
X6373876Y-1391208D01*
X6369405Y-1443685D01*
X6366865Y-1466850D01*
X6364224Y-1487271D01*
X6359347Y-1519021D01*
X6359296Y-1697786D01*
X6364173Y-1745945D01*
X6365849Y-1745945D01*
X6366611Y-1745335D01*
X6367424Y-1743506D01*
X6369100Y-1736750D01*
X6370878Y-1726641D01*
X6372555Y-1714144D01*
X6374028Y-1700072D01*
X6375247Y-1685442D01*
X6376060Y-1671218D01*
X6376517Y-1649171D01*
X6376771Y-1646936D01*
X6377076Y-1646123D01*
X6377584Y-1647393D01*
X6640728Y-1647393D01*
X6640931Y-1613408D01*
X6641592Y-1588871D01*
X6642658Y-1568246D01*
X6644690Y-1540764D01*
X6647942Y-1529588D01*
X6649364Y-1523644D01*
X6650837Y-1515618D01*
X6653326Y-1497736D01*
X6655460Y-1477010D01*
X6661353Y-1463294D01*
X6664299Y-1454048D01*
X6666890Y-1441653D01*
X6668973Y-1434134D01*
X6671309Y-1428140D01*
X6674866Y-1422298D01*
X6676237Y-1419402D01*
X6679895Y-1408430D01*
X6683248Y-1401064D01*
X6686803Y-1395831D01*
X6690918Y-1389176D01*
X6694881Y-1382217D01*
X6697929Y-1377746D01*
X6706057Y-1367434D01*
X6715556Y-1356512D01*
X6724954Y-1346708D01*
X6732727Y-1339596D01*
X6735572Y-1337564D01*
X6738518Y-1336446D01*
X6742582Y-1333754D01*
X6751066Y-1326692D01*
X6767423Y-1322933D01*
X6777736Y-1319987D01*
X6789775Y-1315567D01*
X6822694Y-1315872D01*
X6835292Y-1320241D01*
X6840423Y-1321511D01*
X6850989Y-1323340D01*
X6862470Y-1324711D01*
X6872731Y-1331468D01*
X6876338Y-1333296D01*
X6879793Y-1334770D01*
X6885889Y-1336649D01*
X6889902Y-1338478D01*
X6894220Y-1340764D01*
X6902348Y-1345793D01*
X6908952Y-1349146D01*
X6912508Y-1350060D01*
X6914845Y-1351229D01*
X6920433Y-1355090D01*
X6928510Y-1361186D01*
X6938162Y-1367790D01*
X6946544Y-1373073D01*
X6951980Y-1375664D01*
X6955688Y-1378458D01*
X6967677Y-1389684D01*
X6992620Y-1412240D01*
X7013295Y-1431645D01*
X7031990Y-1449933D01*
X7047484Y-1465884D01*
X7069226Y-1489811D01*
X7079538Y-1501546D01*
X7097369Y-1522831D01*
X7104227Y-1531569D01*
X7109358Y-1538528D01*
X7113930Y-1545844D01*
X7118400Y-1551330D01*
X7122922Y-1555699D01*
X7124700Y-1557731D01*
X7125868Y-1559509D01*
X7126731Y-1562049D01*
X7127900Y-1563725D01*
X7129576Y-1565554D01*
X7133742Y-1569161D01*
X7135418Y-1570990D01*
X7136536Y-1572615D01*
X7138466Y-1577238D01*
X7142632Y-1583690D01*
X7149185Y-1592580D01*
X7160463Y-1607007D01*
X7164120Y-1612696D01*
X7165086Y-1615389D01*
X7167930Y-1619554D01*
X7172198Y-1624533D01*
X7175753Y-1629867D01*
X7177684Y-1634185D01*
X7181646Y-1640179D01*
X7186523Y-1646174D01*
X7188453Y-1649069D01*
X7189774Y-1651558D01*
X7190384Y-1654556D01*
X7190790Y-1655572D01*
X7191349Y-1656232D01*
X7192060Y-1656486D01*
X7193330Y-1657451D01*
X7197852Y-1664106D01*
X7203440Y-1674063D01*
X7208672Y-1682140D01*
X7211720Y-1685391D01*
X7213447Y-1688084D01*
X7214260Y-1690979D01*
X7218222Y-1697888D01*
X7224064Y-1706422D01*
X7228027Y-1713331D01*
X7228890Y-1716379D01*
X7229602Y-1717852D01*
X7230719Y-1719325D01*
X7233767Y-1722526D01*
X7235748Y-1725523D01*
X7237831Y-1729181D01*
X7241590Y-1737207D01*
X7245858Y-1744624D01*
X7249312Y-1749094D01*
X7250887Y-1751584D01*
X7254189Y-1759204D01*
X7257592Y-1765452D01*
X7261707Y-1771396D01*
X7266076Y-1778762D01*
X7269683Y-1786077D01*
X7275525Y-1796846D01*
X7281875Y-1807972D01*
X7287615Y-1818741D01*
X7293660Y-1831492D01*
X7295946Y-1835302D01*
X7299350Y-1842109D01*
X7303008Y-1850085D01*
X7306411Y-1856892D01*
X7308748Y-1860905D01*
X7317638Y-1879396D01*
X7323074Y-1889506D01*
X7331202Y-1906828D01*
X7339990Y-1924659D01*
X7343546Y-1933549D01*
X7346950Y-1940001D01*
X7350963Y-1946605D01*
X7352792Y-1950567D01*
X7354316Y-1954631D01*
X7356246Y-1961845D01*
X7357770Y-1965756D01*
X7359650Y-1969516D01*
X7363663Y-1975815D01*
X7365492Y-1979422D01*
X7366965Y-1983079D01*
X7368743Y-1989632D01*
X7370114Y-1993239D01*
X7371842Y-1996795D01*
X7375652Y-2002993D01*
X7377480Y-2006803D01*
X7379055Y-2010765D01*
X7381240Y-2018284D01*
X7382916Y-2022500D01*
X7384897Y-2026615D01*
X7387031Y-2030171D01*
X7392060Y-2037588D01*
X7394854Y-2055114D01*
X7399934Y-2062988D01*
X7402017Y-2066747D01*
X7403947Y-2071065D01*
X7405471Y-2075434D01*
X7407351Y-2082952D01*
X7408621Y-2086660D01*
X7410196Y-2090064D01*
X7413498Y-2095449D01*
X7415326Y-2099411D01*
X7417003Y-2103983D01*
X7419644Y-2113534D01*
X7421372Y-2118309D01*
X7423200Y-2122474D01*
X7426655Y-2128621D01*
X7428331Y-2132634D01*
X7429804Y-2137156D01*
X7432090Y-2146503D01*
X7433868Y-2152142D01*
X7436053Y-2157831D01*
X7440472Y-2167483D01*
X7442200Y-2171954D01*
X7443368Y-2175764D01*
X7444231Y-2181047D01*
X7445349Y-2184908D01*
X7446975Y-2189429D01*
X7451191Y-2199182D01*
X7455306Y-2210765D01*
X7457948Y-2220569D01*
X7461402Y-2230780D01*
X7464856Y-2239162D01*
X7468260Y-2249982D01*
X7470851Y-2260396D01*
X7472476Y-2265832D01*
X7474305Y-2270912D01*
X7477861Y-2279040D01*
X7479639Y-2284171D01*
X7481214Y-2289606D01*
X7483551Y-2300122D01*
X7485075Y-2305862D01*
X7486802Y-2311349D01*
X7490256Y-2320493D01*
X7492034Y-2326030D01*
X7497825Y-2349906D01*
X7499908Y-2357018D01*
X7504175Y-2369769D01*
X7506106Y-2376474D01*
X7507630Y-2382672D01*
X7509509Y-2392426D01*
X7512405Y-2403856D01*
X7515809Y-2414676D01*
X7519314Y-2428646D01*
X7521854Y-2442057D01*
X7525410Y-2456789D01*
X7529017Y-2469388D01*
X7532878Y-2486456D01*
X7535875Y-2503271D01*
X7539177Y-2519730D01*
X7542174Y-2532024D01*
X7545527Y-2549601D01*
X7550403Y-2579827D01*
X7556042Y-2609748D01*
X7559040Y-2630728D01*
X7561478Y-2655824D01*
X7565593Y-2681935D01*
X7572552Y-2733548D01*
X7572451Y-2927400D01*
X7558176Y-3002026D01*
X7556296Y-3009747D01*
X7554315Y-3016554D01*
X7550759Y-3025851D01*
X7547813Y-3035046D01*
X7546035Y-3042666D01*
X7544511Y-3047238D01*
X7540548Y-3056331D01*
X7536383Y-3064865D01*
X7531201Y-3077057D01*
X7528255Y-3082645D01*
X7524750Y-3088589D01*
X7520736Y-3094634D01*
X7516266Y-3100832D01*
X7511491Y-3106928D01*
X7501229Y-3118561D01*
X7495946Y-3123895D01*
X7490714Y-3128721D01*
X7485583Y-3132937D01*
X7476286Y-3139389D01*
X7469733Y-3144367D01*
X7467142Y-3146704D01*
X7464806Y-3147872D01*
X7461656Y-3149092D01*
X7454036Y-3151327D01*
X7445248Y-3154476D01*
X7434224Y-3159658D01*
X7385202Y-3159556D01*
X7377734Y-3155899D01*
X7373924Y-3154324D01*
X7369098Y-3152698D01*
X7363815Y-3151225D01*
X7347153Y-3147923D01*
X7334402Y-3140557D01*
X7328306Y-3137712D01*
X7324496Y-3136595D01*
X7320635Y-3134817D01*
X7309967Y-3128873D01*
X7298639Y-3121863D01*
X7293914Y-3118662D01*
X7288377Y-3114395D01*
X7284364Y-3112058D01*
X7281468Y-3111195D01*
X7279131Y-3109823D01*
X7267803Y-3100832D01*
X7265720Y-3099460D01*
X7263282Y-3098495D01*
X7258812Y-3095345D01*
X7242708Y-3081477D01*
X7223455Y-3064306D01*
X7202678Y-3044545D01*
X7182002Y-3023870D01*
X7163003Y-3003854D01*
X7144715Y-2983890D01*
X7135520Y-2973425D01*
X7125309Y-2961182D01*
X7115657Y-2949143D01*
X7100265Y-2928366D01*
X7078980Y-2902000D01*
X7073950Y-2894838D01*
X7060387Y-2874467D01*
X7050989Y-2862478D01*
X7049922Y-2860649D01*
X7049008Y-2857906D01*
X7045604Y-2852775D01*
X7040676Y-2846679D01*
X7037324Y-2841447D01*
X7036409Y-2838500D01*
X7035190Y-2836418D01*
X7028942Y-2828696D01*
X7026706Y-2825496D01*
X7024878Y-2822244D01*
X7022642Y-2817114D01*
X7021575Y-2815183D01*
X7020509Y-2813913D01*
X7018578Y-2812694D01*
X7017105Y-2810713D01*
X7015327Y-2807766D01*
X7011619Y-2800350D01*
X7009536Y-2796794D01*
X7007504Y-2793847D01*
X7004050Y-2790139D01*
X7002018Y-2787345D01*
X6999986Y-2783992D01*
X6994093Y-2772460D01*
X6989572Y-2764536D01*
X6985101Y-2757525D01*
X6979666Y-2750210D01*
X6976414Y-2744165D01*
X6973671Y-2737764D01*
X6971944Y-2734462D01*
X6966661Y-2726893D01*
X6962749Y-2720086D01*
X6959498Y-2712923D01*
X6956196Y-2706674D01*
X6952996Y-2702001D01*
X6946290Y-2690063D01*
X6938213Y-2674721D01*
X6931761Y-2663037D01*
X6928916Y-2658618D01*
X6925360Y-2651810D01*
X6921601Y-2643530D01*
X6917893Y-2636469D01*
X6915200Y-2632456D01*
X6911848Y-2625648D01*
X6908546Y-2617673D01*
X6905142Y-2610866D01*
X6902500Y-2606903D01*
X6899097Y-2600096D01*
X6895795Y-2592120D01*
X6892340Y-2585313D01*
X6889648Y-2581198D01*
X6887972Y-2577795D01*
X6886244Y-2573629D01*
X6882993Y-2564638D01*
X6881215Y-2560574D01*
X6879488Y-2557373D01*
X6876796Y-2554376D01*
X6875170Y-2552039D01*
X6874306Y-2549042D01*
X6870039Y-2538476D01*
X6863130Y-2522474D01*
X6848906Y-2491587D01*
X6845553Y-2483866D01*
X6844588Y-2480665D01*
X6834174Y-2457043D01*
X6831126Y-2448407D01*
X6824421Y-2433980D01*
X6817106Y-2413965D01*
X6812788Y-2404973D01*
X6809384Y-2396439D01*
X6804253Y-2382012D01*
X6799884Y-2372918D01*
X6796531Y-2363825D01*
X6793382Y-2353360D01*
X6790385Y-2345283D01*
X6788403Y-2341575D01*
X6785000Y-2333193D01*
X6779920Y-2318969D01*
X6767474Y-2281834D01*
X6763054Y-2269693D01*
X6759752Y-2261666D01*
X6756704Y-2252014D01*
X6754317Y-2242718D01*
X6750913Y-2232609D01*
X6747306Y-2224074D01*
X6745478Y-2218639D01*
X6743852Y-2212848D01*
X6741515Y-2202129D01*
X6740245Y-2197201D01*
X6738874Y-2193137D01*
X6735876Y-2186889D01*
X6733997Y-2181656D01*
X6731609Y-2173274D01*
X6727190Y-2156307D01*
X6724192Y-2146757D01*
X6721043Y-2137664D01*
X6717639Y-2125167D01*
X6714744Y-2112518D01*
X6710984Y-2098243D01*
X6707327Y-2086406D01*
X6703974Y-2073910D01*
X6701688Y-2063902D01*
X6698640Y-2053183D01*
X6695592Y-2043734D01*
X6694017Y-2037080D01*
X6692595Y-2029663D01*
X6691477Y-2022297D01*
X6689344Y-2005279D01*
X6686245Y-1999335D01*
X6684873Y-1995779D01*
X6683400Y-1990547D01*
X6681978Y-1984349D01*
X6677456Y-1956866D01*
X6675272Y-1946046D01*
X6672884Y-1936242D01*
X6671462Y-1931314D01*
X6669989Y-1924913D01*
X6668414Y-1916175D01*
X6666992Y-1906270D01*
X6664858Y-1886915D01*
X6663690Y-1878685D01*
X6662572Y-1872437D01*
X6661658Y-1869135D01*
X6660388Y-1866188D01*
X6659168Y-1862023D01*
X6658051Y-1856739D01*
X6655968Y-1842566D01*
X6654038Y-1823466D01*
X6650990Y-1781098D01*
X6644894Y-1757476D01*
X6641846Y-1701901D01*
X6641084Y-1675180D01*
X6640728Y-1647393D01*
X6377584Y-1647393D01*
X6378448Y-1652219D01*
X6379667Y-1663039D01*
X6381089Y-1678939D01*
X6384950Y-1729993D01*
X6388963Y-1741474D01*
X6390792Y-1748891D01*
X6392418Y-1758238D01*
X6393891Y-1769364D01*
X6395161Y-1782216D01*
X6396228Y-1796694D01*
X6398056Y-1830120D01*
X6402984Y-1849628D01*
X6404762Y-1859025D01*
X6406489Y-1869998D01*
X6407912Y-1881174D01*
X6410706Y-1911096D01*
X6417818Y-1938883D01*
X6419697Y-1948180D01*
X6421221Y-1957070D01*
X6423050Y-1971395D01*
X6424574Y-1979574D01*
X6426403Y-1987854D01*
X6430467Y-2002688D01*
X6432397Y-2011222D01*
X6433972Y-2019706D01*
X6434937Y-2027123D01*
X6436512Y-2042972D01*
X6441338Y-2055875D01*
X6443319Y-2061972D01*
X6445199Y-2069033D01*
X6446723Y-2076145D01*
X6448704Y-2088845D01*
X6450228Y-2096007D01*
X6452108Y-2103069D01*
X6456070Y-2115159D01*
X6457950Y-2121966D01*
X6459474Y-2128824D01*
X6460439Y-2134768D01*
X6462014Y-2147570D01*
X6470345Y-2163927D01*
X6476238Y-2197303D01*
X6480352Y-2205482D01*
X6482080Y-2209546D01*
X6483705Y-2214626D01*
X6485128Y-2220010D01*
X6487007Y-2230374D01*
X6488582Y-2236368D01*
X6490462Y-2242312D01*
X6494526Y-2252472D01*
X6496405Y-2258009D01*
X6497929Y-2263394D01*
X6499860Y-2272436D01*
X6501384Y-2277567D01*
X6503212Y-2282647D01*
X6507175Y-2291689D01*
X6509054Y-2297074D01*
X6510528Y-2302510D01*
X6511493Y-2307386D01*
X6513017Y-2318054D01*
X6517894Y-2326894D01*
X6519926Y-2331059D01*
X6521805Y-2335987D01*
X6523329Y-2340965D01*
X6525209Y-2349957D01*
X6526784Y-2355037D01*
X6528663Y-2360015D01*
X6532778Y-2368600D01*
X6534708Y-2373477D01*
X6536232Y-2378303D01*
X6538163Y-2386838D01*
X6539687Y-2391664D01*
X6541566Y-2396490D01*
X6545630Y-2404922D01*
X6547510Y-2409799D01*
X6549034Y-2414778D01*
X6550050Y-2419146D01*
X6551574Y-2428646D01*
X6560058Y-2440127D01*
X6563664Y-2459583D01*
X6568744Y-2467660D01*
X6570827Y-2471420D01*
X6572808Y-2475839D01*
X6574383Y-2480259D01*
X6576415Y-2488133D01*
X6578041Y-2492705D01*
X6580022Y-2497328D01*
X6584137Y-2505151D01*
X6585762Y-2508859D01*
X6586880Y-2512110D01*
X6587744Y-2517089D01*
X6589064Y-2520899D01*
X6590995Y-2525471D01*
X6595872Y-2535326D01*
X6598158Y-2540558D01*
X6599986Y-2545384D01*
X6602120Y-2552598D01*
X6603644Y-2556357D01*
X6605524Y-2559964D01*
X6607505Y-2563063D01*
X6612280Y-2569464D01*
X6614718Y-2585516D01*
X6619087Y-2591104D01*
X6620967Y-2593949D01*
X6622846Y-2597607D01*
X6624523Y-2601569D01*
X6627063Y-2609443D01*
X6628841Y-2613863D01*
X6630873Y-2618130D01*
X6634988Y-2625242D01*
X6636918Y-2629255D01*
X6638442Y-2633218D01*
X6640423Y-2639974D01*
X6641846Y-2643632D01*
X6643522Y-2647086D01*
X6647027Y-2652877D01*
X6648856Y-2656433D01*
X6650431Y-2660192D01*
X6652818Y-2667254D01*
X6654546Y-2671114D01*
X6656527Y-2674874D01*
X6660591Y-2681020D01*
X6663944Y-2687828D01*
X6665823Y-2693670D01*
X6667195Y-2696972D01*
X6668922Y-2700274D01*
X6672529Y-2706065D01*
X6674358Y-2709672D01*
X6675983Y-2713482D01*
X6678320Y-2720492D01*
X6679844Y-2724099D01*
X6681571Y-2727350D01*
X6684975Y-2732430D01*
X6686753Y-2735630D01*
X6692950Y-2750058D01*
X6695084Y-2754071D01*
X6699250Y-2760624D01*
X6701942Y-2765958D01*
X6702806Y-2769209D01*
X6704126Y-2772105D01*
X6713270Y-2788005D01*
X6715099Y-2791714D01*
X6717182Y-2796946D01*
X6718655Y-2799943D01*
X6724497Y-2808833D01*
X6727850Y-2814929D01*
X6729882Y-2819908D01*
X6733438Y-2826613D01*
X6737553Y-2833065D01*
X6740296Y-2838399D01*
X6741159Y-2841548D01*
X6744411Y-2847390D01*
X6749288Y-2854502D01*
X6751624Y-2858312D01*
X6753453Y-2861818D01*
X6755485Y-2867050D01*
X6758584Y-2872740D01*
X6762191Y-2877769D01*
X6766001Y-2884017D01*
X6769252Y-2890520D01*
X6775348Y-2901289D01*
X6794601Y-2934055D01*
X6802628Y-2946857D01*
X6811060Y-2959709D01*
X6816547Y-2968752D01*
X6817664Y-2971393D01*
X6820408Y-2976168D01*
X6839356Y-3005175D01*
X6865772Y-3044291D01*
X6905142Y-3101340D01*
X6912762Y-3111550D01*
X6915861Y-3114852D01*
X6920890Y-3121101D01*
X6933946Y-3138627D01*
X6950354Y-3159861D01*
X6963918Y-3176625D01*
X6974941Y-3189528D01*
X6992721Y-3211169D01*
X7015073Y-3237534D01*
X7035038Y-3258820D01*
X7058914Y-3283458D01*
X7082739Y-3307334D01*
X7105142Y-3329178D01*
X7124852Y-3347720D01*
X7140498Y-3361690D01*
X7146442Y-3366566D01*
X7150862Y-3369818D01*
X7158278Y-3373882D01*
X7158278Y-3380384D01*
X7173366Y-3386734D01*
X7171283Y-3390137D01*
X7157720Y-3388156D01*
X7155586Y-3379978D01*
X7143089Y-3377488D01*
X7139940Y-3372612D01*
X7138314Y-3370681D01*
X7136333Y-3368852D01*
X7134148Y-3367430D01*
X7129780Y-3365703D01*
X7126935Y-3364179D01*
X7121194Y-3360013D01*
X7116368Y-3356203D01*
X7114540Y-3355035D01*
X7113422Y-3354628D01*
X7110069Y-3352698D01*
X7103567Y-3347872D01*
X7095642Y-3341370D01*
X7084923Y-3331921D01*
X7048500Y-3301695D01*
X7030720Y-3285947D01*
X7008266Y-3265017D01*
X6990588Y-3247644D01*
X6977735Y-3234537D01*
X6937705Y-3191560D01*
X6906564Y-3155442D01*
X6895338Y-3143961D01*
X6887972Y-3135934D01*
X6883095Y-3129991D01*
X6880961Y-3125927D01*
X6880047Y-3125012D01*
X6878726Y-3124149D01*
X6877100Y-3123438D01*
X6872935Y-3122117D01*
X6863588Y-3105505D01*
X6861759Y-3106623D01*
X6861098Y-3107537D01*
X6860540Y-3109264D01*
X6860133Y-3111500D01*
X6859981Y-3120339D01*
X6870649Y-3124403D01*
X6870649Y-3134918D01*
X6880047Y-3141522D01*
X6882536Y-3149955D01*
X6883908Y-3155340D01*
X6883958Y-3158642D01*
X6882638Y-3160268D01*
X6879793Y-3160725D01*
X6876897Y-3160725D01*
X6868109Y-3145790D01*
X6863943Y-3145637D01*
X6862978Y-3145231D01*
X6862368Y-3144570D01*
X6861403Y-3142132D01*
X6859473Y-3139186D01*
X6853072Y-3131108D01*
X6838696Y-3113684D01*
X6825640Y-3097276D01*
X6814718Y-3083966D01*
X6804710Y-3070656D01*
X6799072Y-3063544D01*
X6796989Y-3061360D01*
X6795008Y-3060344D01*
X6794449Y-3059633D01*
X6793433Y-3055721D01*
X6792061Y-3053486D01*
X6790029Y-3050997D01*
X6785051Y-3046120D01*
X6783019Y-3043732D01*
X6781647Y-3041650D01*
X6780682Y-3038703D01*
X6779361Y-3036773D01*
X6777380Y-3034639D01*
X6768744Y-3027578D01*
X6762242Y-3011627D01*
X6755384Y-3014268D01*
X6756806Y-3020923D01*
X6758330Y-3026562D01*
X6760159Y-3031032D01*
X6762089Y-3033979D01*
X6764781Y-3035503D01*
X6765696Y-3036722D01*
X6768185Y-3043682D01*
X6771640Y-3050286D01*
X6775856Y-3056432D01*
X6780275Y-3064103D01*
X6783324Y-3070707D01*
X6784797Y-3073196D01*
X6786118Y-3074873D01*
X6788150Y-3076143D01*
X6789572Y-3077972D01*
X6796684Y-3090976D01*
X6798767Y-3093923D01*
X6802170Y-3097580D01*
X6803440Y-3099308D01*
X6804304Y-3100882D01*
X6805066Y-3103778D01*
X6808165Y-3109214D01*
X6813499Y-3116529D01*
X6821627Y-3128619D01*
X6829755Y-3141218D01*
X6836867Y-3151073D01*
X6840575Y-3155137D01*
X6842658Y-3158134D01*
X6843979Y-3161842D01*
X6847281Y-3166973D01*
X6853326Y-3175406D01*
X6864908Y-3190900D01*
X6867042Y-3194151D01*
X6870293Y-3200857D01*
X6871106Y-3202127D01*
X6871970Y-3203041D01*
X6874002Y-3204057D01*
X6875780Y-3206089D01*
X6877913Y-3209036D01*
X6882587Y-3216503D01*
X6885228Y-3220313D01*
X6887768Y-3223514D01*
X6889851Y-3225749D01*
X6894068Y-3229559D01*
X6893915Y-3236417D01*
X6893509Y-3238246D01*
X6892899Y-3239668D01*
X6892137Y-3240532D01*
X6890207Y-3241700D01*
X6882536Y-3232810D01*
X6880352Y-3230778D01*
X6878472Y-3229406D01*
X6877202Y-3228898D01*
X6876288Y-3228797D01*
X6875576Y-3228441D01*
X6875068Y-3227882D01*
X6874916Y-3227222D01*
X6873798Y-3225393D01*
X6866128Y-3216554D01*
X6850125Y-3199587D01*
X6835444Y-3183331D01*
X6810197Y-3154222D01*
X6798868Y-3140405D01*
X6794042Y-3134207D01*
X6776262Y-3112668D01*
X6769404Y-3103524D01*
X6767982Y-3100476D01*
X6765442Y-3097123D01*
X6761124Y-3092602D01*
X6754622Y-3084322D01*
X6740550Y-3064611D01*
X6734403Y-3056585D01*
X6701840Y-3010865D01*
X6694627Y-2999790D01*
X6690766Y-2992983D01*
X6686702Y-2986481D01*
X6678675Y-2975254D01*
X6672580Y-2966008D01*
X6667957Y-2958287D01*
X6666077Y-2954274D01*
X6665823Y-2953207D01*
X6663842Y-2950210D01*
X6660642Y-2946654D01*
X6656070Y-2940304D01*
X6650736Y-2931566D01*
X6645249Y-2921508D01*
X6640779Y-2912719D01*
X6637223Y-2907182D01*
X6634683Y-2904490D01*
X6630822Y-2897733D01*
X6626555Y-2888742D01*
X6624472Y-2884881D01*
X6622643Y-2881985D01*
X6620002Y-2879242D01*
X6618325Y-2876854D01*
X6614617Y-2870200D01*
X6609537Y-2860192D01*
X6585864Y-2816910D01*
X6581902Y-2810103D01*
X6578650Y-2803296D01*
X6576771Y-2798216D01*
X6575501Y-2795625D01*
X6570725Y-2788666D01*
X6566763Y-2781249D01*
X6563410Y-2773222D01*
X6559956Y-2766415D01*
X6557314Y-2762504D01*
X6555790Y-2759659D01*
X6551472Y-2748788D01*
X6547357Y-2740304D01*
X6543344Y-2733700D01*
X6540754Y-2728468D01*
X6539890Y-2725115D01*
X6536690Y-2717698D01*
X6531711Y-2707944D01*
X6527038Y-2697378D01*
X6524142Y-2689453D01*
X6520688Y-2681528D01*
X6517385Y-2675077D01*
X6513982Y-2667050D01*
X6511442Y-2659634D01*
X6508699Y-2653385D01*
X6504787Y-2647188D01*
X6502349Y-2641955D01*
X6500571Y-2636723D01*
X6499555Y-2630576D01*
X6498691Y-2628188D01*
X6497320Y-2625648D01*
X6493814Y-2620264D01*
X6491782Y-2616098D01*
X6489903Y-2611323D01*
X6486702Y-2601214D01*
X6484569Y-2595321D01*
X6482181Y-2589530D01*
X6477660Y-2580132D01*
X6475933Y-2575814D01*
X6474764Y-2572156D01*
X6474002Y-2567279D01*
X6473139Y-2564180D01*
X6471818Y-2560777D01*
X6468313Y-2553462D01*
X6464249Y-2542692D01*
X6460947Y-2532024D01*
X6457645Y-2523083D01*
X6455003Y-2517648D01*
X6453327Y-2513126D01*
X6448298Y-2495346D01*
X6446469Y-2489657D01*
X6444691Y-2484983D01*
X6441744Y-2478989D01*
X6440119Y-2474214D01*
X6438442Y-2468321D01*
X6435445Y-2455621D01*
X6433718Y-2449677D01*
X6432042Y-2444851D01*
X6429044Y-2438704D01*
X6427368Y-2433980D01*
X6422745Y-2415540D01*
X6420866Y-2408834D01*
X6415176Y-2392934D01*
X6413347Y-2386787D01*
X6411722Y-2380132D01*
X6409334Y-2367737D01*
X6407962Y-2362149D01*
X6406540Y-2357577D01*
X6403848Y-2351735D01*
X6402324Y-2347315D01*
X6400901Y-2341880D01*
X6396278Y-2318715D01*
X6394196Y-2310130D01*
X6389116Y-2294229D01*
X6387592Y-2287930D01*
X6383782Y-2266340D01*
X6382105Y-2258263D01*
X6380124Y-2250490D01*
X6378143Y-2243988D01*
X6373520Y-2230678D01*
X6373114Y-2185924D01*
X6384848Y-2184603D01*
X6384848Y-2197201D01*
X6385407Y-2206650D01*
X6386880Y-2214981D01*
X6388912Y-2220976D01*
X6391198Y-2223211D01*
X6393129Y-2222042D01*
X6394450Y-2218486D01*
X6395262Y-2212441D01*
X6395516Y-2203856D01*
X6395516Y-2191258D01*
X6385915Y-2181707D01*
X6383121Y-2139086D01*
X6376365Y-2125980D01*
X6373012Y-2101342D01*
X6370878Y-2088134D01*
X6368694Y-2077008D01*
X6363208Y-2055012D01*
X6361684Y-2046630D01*
X6360261Y-2037181D01*
X6358178Y-2018842D01*
X6355842Y-2004060D01*
X6354826Y-2000097D01*
X6353556Y-1996287D01*
X6352387Y-1991715D01*
X6350203Y-1979675D01*
X6348222Y-1963623D01*
X6344310Y-1921306D01*
X6343192Y-1912975D01*
X6341262Y-1903730D01*
X6338976Y-1891233D01*
X6335623Y-1868474D01*
X6329883Y-1697583D01*
X6097003Y-1697583D01*
X6105194Y-1735683D01*
X6107582Y-1749145D01*
X6109106Y-1759813D01*
X6114542Y-1738680D01*
X6116320Y-1732889D01*
X6119368Y-1724964D01*
X6122111Y-1719935D01*
X6124956Y-1739239D01*
X6127038Y-1759407D01*
X6127851Y-1770532D01*
X6129477Y-1800301D01*
X6139383Y-1842922D01*
X6142380Y-1885543D01*
X6147257Y-1904695D01*
X6149289Y-1913483D01*
X6151168Y-1923237D01*
X6152642Y-1932787D01*
X6153607Y-1940915D01*
X6155080Y-1957984D01*
X6160058Y-1975002D01*
X6162090Y-1982774D01*
X6164021Y-1991309D01*
X6165545Y-1999640D01*
X6166459Y-2006600D01*
X6167882Y-2021179D01*
X6177686Y-2049881D01*
X6180785Y-2080920D01*
X6190437Y-2104999D01*
X6193536Y-2134819D01*
X6202070Y-2151481D01*
X6206083Y-2180590D01*
X6215938Y-2202992D01*
X6218936Y-2230323D01*
X6228740Y-2249881D01*
X6231839Y-2275433D01*
X6240170Y-2289048D01*
X6244285Y-2315921D01*
X6254445Y-2337206D01*
X6256934Y-2357424D01*
X6262014Y-2367584D01*
X6264097Y-2372258D01*
X6265976Y-2377440D01*
X6267551Y-2382570D01*
X6269431Y-2391308D01*
X6270955Y-2396388D01*
X6272834Y-2401519D01*
X6279896Y-2416048D01*
X6282893Y-2437384D01*
X6287770Y-2445867D01*
X6289751Y-2449931D01*
X6291630Y-2454605D01*
X6293104Y-2459380D01*
X6294983Y-2468016D01*
X6296507Y-2473096D01*
X6298387Y-2478227D01*
X6302502Y-2487320D01*
X6304432Y-2492298D01*
X6305956Y-2497124D01*
X6307937Y-2505202D01*
X6309461Y-2509977D01*
X6315405Y-2523642D01*
X6318859Y-2532786D01*
X6320840Y-2540101D01*
X6324244Y-2549194D01*
X6328206Y-2557830D01*
X6330035Y-2562555D01*
X6331508Y-2567127D01*
X6333388Y-2574696D01*
X6334912Y-2579166D01*
X6336842Y-2583789D01*
X6341008Y-2592120D01*
X6342938Y-2596642D01*
X6344513Y-2601010D01*
X6346494Y-2608224D01*
X6348069Y-2612593D01*
X6350000Y-2617063D01*
X6354064Y-2625090D01*
X6355689Y-2628849D01*
X6356756Y-2632049D01*
X6357670Y-2636824D01*
X6359042Y-2640685D01*
X6361074Y-2645410D01*
X6366052Y-2655468D01*
X6368084Y-2660091D01*
X6369456Y-2663901D01*
X6370421Y-2668778D01*
X6371793Y-2672638D01*
X6378854Y-2687980D01*
X6382969Y-2698089D01*
X6384848Y-2704541D01*
X6387846Y-2711094D01*
X6391351Y-2716784D01*
X6393129Y-2720390D01*
X6395821Y-2727706D01*
X6397650Y-2733649D01*
X6401003Y-2741930D01*
X6415786Y-2774035D01*
X6419951Y-2783586D01*
X6424168Y-2794863D01*
X6427520Y-2801670D01*
X6430975Y-2807309D01*
X6432600Y-2810713D01*
X6433972Y-2814320D01*
X6435953Y-2821025D01*
X6437528Y-2824683D01*
X6439408Y-2828137D01*
X6441440Y-2831033D01*
X6446367Y-2836875D01*
X6449314Y-2856382D01*
X6452108Y-2857449D01*
X6454851Y-2860395D01*
X6457289Y-2865831D01*
X6458762Y-2871825D01*
X6458610Y-2876346D01*
X6456832Y-2879090D01*
X6454800Y-2878988D01*
X6452666Y-2876143D01*
X6450584Y-2870708D01*
X6447942Y-2861970D01*
X6438036Y-2857449D01*
X6436715Y-2851962D01*
X6434937Y-2847187D01*
X6432346Y-2843022D01*
X6429298Y-2840126D01*
X6426301Y-2839008D01*
X6423710Y-2839008D01*
X6420205Y-2825699D01*
X6419088Y-2822651D01*
X6418072Y-2820568D01*
X6417208Y-2819806D01*
X6415024Y-2820568D01*
X6412992Y-2822448D01*
X6411671Y-2824784D01*
X6411468Y-2827020D01*
X6414770Y-2841142D01*
X6420713Y-2841142D01*
X6423609Y-2858312D01*
X6428333Y-2864104D01*
X6430365Y-2867050D01*
X6432397Y-2870758D01*
X6434226Y-2874772D01*
X6435547Y-2878582D01*
X6438087Y-2887319D01*
X6442354Y-2891180D01*
X6444030Y-2892958D01*
X6445402Y-2894939D01*
X6446316Y-2896920D01*
X6447129Y-2900730D01*
X6448501Y-2903982D01*
X6450533Y-2907944D01*
X6455562Y-2916428D01*
X6459677Y-2924505D01*
X6461404Y-2929585D01*
X6462522Y-2931820D01*
X6463842Y-2933801D01*
X6466840Y-2937103D01*
X6468973Y-2940253D01*
X6473545Y-2948635D01*
X6477558Y-2956864D01*
X6485890Y-2971952D01*
X6495186Y-2987141D01*
X6511696Y-3016758D01*
X6516522Y-3023971D01*
X6520434Y-3028746D01*
X6522110Y-3031439D01*
X6523481Y-3034182D01*
X6525412Y-3039414D01*
X6527190Y-3042716D01*
X6529476Y-3046171D01*
X6534454Y-3052368D01*
X6536435Y-3055213D01*
X6537756Y-3057652D01*
X6538518Y-3060649D01*
X6539230Y-3062173D01*
X6540296Y-3063697D01*
X6543243Y-3066694D01*
X6545224Y-3069336D01*
X6553352Y-3083001D01*
X6555587Y-3086100D01*
X6560464Y-3091942D01*
X6561378Y-3093567D01*
X6562293Y-3096412D01*
X6563868Y-3099460D01*
X6572046Y-3112109D01*
X6576009Y-3119018D01*
X6577025Y-3121863D01*
X6578193Y-3123438D01*
X6579870Y-3125216D01*
X6583984Y-3128822D01*
X6585712Y-3130702D01*
X6586829Y-3132429D01*
X6587845Y-3135528D01*
X6591808Y-3142437D01*
X6602120Y-3157169D01*
X6599783Y-3160014D01*
X6597446Y-3162198D01*
X6595516Y-3162655D01*
X6593890Y-3161436D01*
X6591503Y-3156254D01*
X6589623Y-3153308D01*
X6584442Y-3147009D01*
X6577787Y-3139897D01*
X6572453Y-3133852D01*
X6567982Y-3128264D01*
X6559956Y-3117088D01*
X6552234Y-3107486D01*
X6542836Y-3096615D01*
X6540449Y-3093364D01*
X6538874Y-3090722D01*
X6537959Y-3087776D01*
X6537096Y-3086354D01*
X6535877Y-3084880D01*
X6532575Y-3082086D01*
X6530746Y-3080105D01*
X6529019Y-3077768D01*
X6526123Y-3072892D01*
X6521704Y-3066440D01*
X6509359Y-3050540D01*
X6502857Y-3041497D01*
X6488836Y-3020364D01*
X6482283Y-3011068D01*
X6478879Y-3006953D01*
X6477254Y-3004566D01*
X6473240Y-2996438D01*
X6472021Y-2994355D01*
X6470904Y-2992932D01*
X6469024Y-2991713D01*
X6465671Y-2986887D01*
X6459677Y-2976321D01*
X6457797Y-2973679D01*
X6454952Y-2970631D01*
X6450990Y-2964992D01*
X6439408Y-2944774D01*
X6434175Y-2936341D01*
X6429857Y-2929991D01*
X6426149Y-2925013D01*
X6424574Y-2922574D01*
X6423558Y-2920542D01*
X6422644Y-2917545D01*
X6419240Y-2911856D01*
X6414312Y-2904998D01*
X6410909Y-2899410D01*
X6410147Y-2896768D01*
X6408267Y-2893618D01*
X6405473Y-2890062D01*
X6401460Y-2883814D01*
X6396278Y-2874619D01*
X6384747Y-2852166D01*
X6380734Y-2845917D01*
X6377940Y-2842869D01*
X6376314Y-2840532D01*
X6371590Y-2830677D01*
X6367068Y-2822397D01*
X6362649Y-2815336D01*
X6360718Y-2811526D01*
X6359144Y-2807868D01*
X6357518Y-2802382D01*
X6356705Y-2800350D01*
X6355892Y-2799029D01*
X6354064Y-2797606D01*
X6352489Y-2795219D01*
X6344107Y-2777998D01*
X6341821Y-2773984D01*
X6338265Y-2768701D01*
X6334810Y-2761894D01*
X6332321Y-2755239D01*
X6329527Y-2749651D01*
X6326936Y-2746146D01*
X6323431Y-2739339D01*
X6320078Y-2731008D01*
X6316726Y-2724302D01*
X6314338Y-2721000D01*
X6311646Y-2715869D01*
X6308953Y-2709214D01*
X6304229Y-2699054D01*
X6299200Y-2688945D01*
X6295847Y-2680868D01*
X6295034Y-2677058D01*
X6294170Y-2674924D01*
X6289548Y-2667609D01*
X6287465Y-2663698D01*
X6285484Y-2659227D01*
X6282131Y-2650286D01*
X6278676Y-2642920D01*
X6275933Y-2638704D01*
X6274308Y-2635199D01*
X6269532Y-2621381D01*
X6266180Y-2613406D01*
X6263335Y-2608935D01*
X6261557Y-2605379D01*
X6254699Y-2586888D01*
X6253073Y-2583332D01*
X6249009Y-2576728D01*
X6246571Y-2571394D01*
X6244894Y-2566009D01*
X6243828Y-2559100D01*
X6242710Y-2556052D01*
X6241135Y-2552649D01*
X6239154Y-2549347D01*
X6234023Y-2541778D01*
X6230315Y-2526233D01*
X6229096Y-2522677D01*
X6227978Y-2520289D01*
X6226098Y-2518410D01*
X6224778Y-2515819D01*
X6218174Y-2496261D01*
X6216192Y-2491181D01*
X6212586Y-2483256D01*
X6210554Y-2477871D01*
X6205321Y-2460396D01*
X6203594Y-2455367D01*
X6201918Y-2451404D01*
X6199174Y-2446680D01*
X6197549Y-2442565D01*
X6195872Y-2437333D01*
X6192824Y-2425496D01*
X6191097Y-2419858D01*
X6189370Y-2415286D01*
X6186474Y-2409240D01*
X6184747Y-2404567D01*
X6178143Y-2380792D01*
X6176467Y-2376170D01*
X6173724Y-2370480D01*
X6172250Y-2366111D01*
X6170777Y-2360777D01*
X6168237Y-2349246D01*
X6166561Y-2343302D01*
X6164783Y-2338019D01*
X6161328Y-2329942D01*
X6159398Y-2324354D01*
X6155994Y-2311552D01*
X6154521Y-2305151D01*
X6151118Y-2293213D01*
X6148171Y-2284831D01*
X6144717Y-2271369D01*
X6141669Y-2256739D01*
X6140145Y-2250490D01*
X6138722Y-2245817D01*
X6136436Y-2240584D01*
X6134811Y-2234996D01*
X6132982Y-2227427D01*
X6129274Y-2209444D01*
X6125362Y-2193137D01*
X6122314Y-2183282D01*
X6118961Y-2168702D01*
X6116015Y-2152650D01*
X6112713Y-2137918D01*
X6110020Y-2128113D01*
X6107074Y-2113788D01*
X6104585Y-2097938D01*
X6101486Y-2080869D01*
X6098590Y-2067915D01*
X6096152Y-2055622D01*
X6093968Y-2042160D01*
X6089650Y-2008682D01*
X6087414Y-1995373D01*
X6085941Y-1989785D01*
X6084519Y-1981962D01*
X6082842Y-1969922D01*
X6079236Y-1938477D01*
X6076238Y-1905863D01*
X6074460Y-1891944D01*
X6071971Y-1877364D01*
X6070193Y-1859025D01*
X6068669Y-1835505D01*
X6067552Y-1808022D01*
X6066790Y-1777593D01*
X6066231Y-1729028D01*
X5604930Y-1729028D01*
X5600587Y-1857806D01*
X5773115Y-1857806D01*
X5776671Y-1821586D01*
X5778703Y-1832711D01*
X5780532Y-1856486D01*
X5781522Y-1875028D01*
X5843270Y-1875028D01*
X5846724Y-1847392D01*
X5848096Y-1839722D01*
X5849518Y-1833321D01*
X5850788Y-1829054D01*
X5853734Y-1822145D01*
X5855360Y-1830273D01*
X5857138Y-1849729D01*
X5860897Y-1908708D01*
X5869432Y-1938782D01*
X5873445Y-1992223D01*
X5881979Y-2017166D01*
X5886246Y-2062480D01*
X5894730Y-2086508D01*
X5898997Y-2124405D01*
X5903366Y-2137054D01*
X5905246Y-2143302D01*
X5907176Y-2151024D01*
X5908852Y-2159152D01*
X5911291Y-2174189D01*
X5912866Y-2181758D01*
X5914593Y-2188616D01*
X5918047Y-2198928D01*
X5919774Y-2205228D01*
X5921349Y-2211984D01*
X5923788Y-2225243D01*
X5927699Y-2241448D01*
X5931916Y-2255824D01*
X5935370Y-2269744D01*
X5937148Y-2279599D01*
X5938418Y-2284780D01*
X5939993Y-2289810D01*
X5943396Y-2298700D01*
X5945174Y-2304542D01*
X5946800Y-2310892D01*
X5949391Y-2323388D01*
X5951270Y-2330602D01*
X5953455Y-2337765D01*
X5955191Y-2342692D01*
X6103823Y-2342692D01*
X6103924Y-2338476D01*
X6104686Y-2331161D01*
X6109970Y-2329434D01*
X6112865Y-2337358D01*
X6116472Y-2351684D01*
X6117996Y-2355748D01*
X6119825Y-2359761D01*
X6121857Y-2363165D01*
X6126683Y-2370277D01*
X6128207Y-2379218D01*
X6129172Y-2383282D01*
X6130696Y-2387752D01*
X6132525Y-2392070D01*
X6136538Y-2399334D01*
X6138367Y-2403551D01*
X6139891Y-2407869D01*
X6141770Y-2415794D01*
X6143294Y-2420315D01*
X6145174Y-2424836D01*
X6149238Y-2432761D01*
X6151118Y-2437028D01*
X6152692Y-2441244D01*
X6154674Y-2448407D01*
X6156198Y-2452573D01*
X6162141Y-2464663D01*
X6165494Y-2472944D01*
X6167374Y-2479700D01*
X6168898Y-2483866D01*
X6170777Y-2488234D01*
X6174841Y-2496362D01*
X6176772Y-2500833D01*
X6178296Y-2505151D01*
X6180226Y-2512161D01*
X6181750Y-2515870D01*
X6183579Y-2519527D01*
X6187541Y-2525725D01*
X6189370Y-2529484D01*
X6190843Y-2533396D01*
X6192774Y-2540762D01*
X6194348Y-2544876D01*
X6196228Y-2548940D01*
X6200343Y-2555849D01*
X6202222Y-2559862D01*
X6203746Y-2563926D01*
X6205677Y-2571191D01*
X6207201Y-2575306D01*
X6209080Y-2579420D01*
X6213195Y-2586634D01*
X6215126Y-2590698D01*
X6216650Y-2594711D01*
X6218580Y-2601620D01*
X6220104Y-2605379D01*
X6221933Y-2609037D01*
X6225946Y-2615184D01*
X6227775Y-2618790D01*
X6229299Y-2622550D01*
X6231280Y-2629408D01*
X6232804Y-2633370D01*
X6234684Y-2637383D01*
X6238748Y-2644241D01*
X6242100Y-2651455D01*
X6243980Y-2657348D01*
X6245504Y-2660751D01*
X6247384Y-2664155D01*
X6249416Y-2667254D01*
X6254343Y-2673858D01*
X6255715Y-2681630D01*
X6256528Y-2684881D01*
X6257594Y-2687878D01*
X6258864Y-2690368D01*
X6261608Y-2693670D01*
X6263386Y-2696616D01*
X6265214Y-2700324D01*
X6268618Y-2708706D01*
X6272733Y-2717190D01*
X6276390Y-2723184D01*
X6279692Y-2730550D01*
X6282029Y-2737561D01*
X6283553Y-2741117D01*
X6285280Y-2744419D01*
X6288684Y-2749499D01*
X6292138Y-2756306D01*
X6294729Y-2763215D01*
X6296355Y-2766771D01*
X6298133Y-2770022D01*
X6301486Y-2775102D01*
X6303264Y-2778353D01*
X6307480Y-2788767D01*
X6310934Y-2795574D01*
X6314287Y-2800604D01*
X6316065Y-2803804D01*
X6320332Y-2814218D01*
X6324346Y-2822244D01*
X6328511Y-2828798D01*
X6331204Y-2834081D01*
X6332118Y-2837230D01*
X6333439Y-2840024D01*
X6340449Y-2851607D01*
X6342735Y-2855874D01*
X6344513Y-2859735D01*
X6346291Y-2865170D01*
X6347561Y-2867812D01*
X6349136Y-2870200D01*
X6352590Y-2874111D01*
X6354419Y-2876905D01*
X6356096Y-2880156D01*
X6358737Y-2886964D01*
X6360566Y-2890824D01*
X6364681Y-2897581D01*
X6366662Y-2900476D01*
X6370015Y-2906725D01*
X6371996Y-2911856D01*
X6375349Y-2918104D01*
X6379311Y-2923946D01*
X6382766Y-2930194D01*
X6384747Y-2935325D01*
X6387998Y-2941472D01*
X6392875Y-2948838D01*
X6400698Y-2962452D01*
X6409486Y-2978658D01*
X6414465Y-2986481D01*
X6418326Y-2991815D01*
X6420713Y-2996234D01*
X6421577Y-2999384D01*
X6424980Y-3005074D01*
X6429959Y-3011728D01*
X6433362Y-3017316D01*
X6434378Y-3020568D01*
X6435699Y-3023209D01*
X6442659Y-3033268D01*
X6446062Y-3039008D01*
X6447129Y-3042158D01*
X6448501Y-3044647D01*
X6450533Y-3047695D01*
X6455511Y-3054299D01*
X6457543Y-3057398D01*
X6458915Y-3059938D01*
X6459931Y-3063189D01*
X6463284Y-3069031D01*
X6468211Y-3075838D01*
X6471615Y-3081274D01*
X6472986Y-3084728D01*
X6478270Y-3093516D01*
X6485788Y-3104743D01*
X6492494Y-3113735D01*
X6495796Y-3117189D01*
X6497523Y-3119983D01*
X6498386Y-3123031D01*
X6499961Y-3126079D01*
X6502349Y-3129991D01*
X6508140Y-3138525D01*
X6510528Y-3142437D01*
X6512102Y-3145536D01*
X6512712Y-3147415D01*
X6512814Y-3148431D01*
X6513220Y-3149295D01*
X6513830Y-3149854D01*
X6514541Y-3150057D01*
X6516217Y-3151581D01*
X6519418Y-3155645D01*
X6538417Y-3183636D01*
X6542328Y-3188919D01*
X6546443Y-3193440D01*
X6547713Y-3195218D01*
X6548577Y-3196894D01*
X6549390Y-3199892D01*
X6550710Y-3202279D01*
X6552641Y-3205124D01*
X6557568Y-3211169D01*
X6562191Y-3217519D01*
X6564934Y-3222244D01*
X6567931Y-3226765D01*
X6583984Y-3246170D01*
X6586626Y-3249930D01*
X6587540Y-3252978D01*
X6588455Y-3254756D01*
X6593027Y-3261207D01*
X6618071Y-3292500D01*
X6623405Y-3299561D01*
X6625031Y-3302101D01*
X6626555Y-3305556D01*
X6633057Y-3314547D01*
X6643116Y-3326892D01*
X6653631Y-3338829D01*
X6663994Y-3349193D01*
X6663994Y-3356864D01*
X6674561Y-3360877D01*
X6672173Y-3367074D01*
X6666077Y-3364484D01*
X6663334Y-3363061D01*
X6660438Y-3360978D01*
X6657695Y-3358591D01*
X6651599Y-3352037D01*
X6649974Y-3350818D01*
X6647891Y-3349802D01*
X6643268Y-3345891D01*
X6626047Y-3329279D01*
X6603695Y-3306724D01*
X6592671Y-3295294D01*
X6573824Y-3274720D01*
X6559753Y-3258870D01*
X6527038Y-3220923D01*
X6503924Y-3193745D01*
X6502552Y-3191764D01*
X6501739Y-3189782D01*
X6499758Y-3186836D01*
X6491884Y-3177387D01*
X6465925Y-3143859D01*
X6451803Y-3123946D01*
X6444691Y-3114548D01*
X6439560Y-3108299D01*
X6436461Y-3103676D01*
X6435648Y-3101187D01*
X6433515Y-3097733D01*
X6430060Y-3093669D01*
X6425793Y-3087776D01*
X6412839Y-3067710D01*
X6402984Y-3053080D01*
X6396482Y-3042767D01*
X6395110Y-3039872D01*
X6392265Y-3036112D01*
X6388100Y-3031286D01*
X6386423Y-3028899D01*
X6385255Y-3026765D01*
X6384544Y-3023920D01*
X6383782Y-3022244D01*
X6377279Y-3014065D01*
X6372301Y-3006445D01*
X6366865Y-2997098D01*
X6359550Y-2983179D01*
X6354368Y-2974746D01*
X6349847Y-2968193D01*
X6346952Y-2963164D01*
X6346190Y-2960674D01*
X6345428Y-2959150D01*
X6341262Y-2953816D01*
X6337452Y-2947924D01*
X6332423Y-2938780D01*
X6319875Y-2914040D01*
X6317742Y-2910484D01*
X6315964Y-2908046D01*
X6313678Y-2906318D01*
X6312306Y-2904032D01*
X6310731Y-2900680D01*
X6307683Y-2892298D01*
X6304635Y-2885948D01*
X6302298Y-2883255D01*
X6300622Y-2880715D01*
X6292494Y-2864205D01*
X6284214Y-2849067D01*
X6282740Y-2845612D01*
X6280861Y-2839923D01*
X6277254Y-2832658D01*
X6273038Y-2825851D01*
X6271361Y-2822651D01*
X6270193Y-2819857D01*
X6269228Y-2815844D01*
X6267856Y-2812745D01*
X6260896Y-2801213D01*
X6258864Y-2797403D01*
X6257493Y-2794254D01*
X6256680Y-2790291D01*
X6255867Y-2788005D01*
X6254597Y-2785618D01*
X6251295Y-2780741D01*
X6249466Y-2777337D01*
X6242710Y-2760776D01*
X6235192Y-2745282D01*
X6233261Y-2740761D01*
X6231940Y-2737053D01*
X6231128Y-2732786D01*
X6230264Y-2730500D01*
X6228994Y-2728061D01*
X6225590Y-2722930D01*
X6223609Y-2719019D01*
X6221730Y-2714548D01*
X6218529Y-2705100D01*
X6216345Y-2699461D01*
X6209284Y-2684576D01*
X6207506Y-2680258D01*
X6206337Y-2676499D01*
X6205575Y-2671622D01*
X6204712Y-2669032D01*
X6203492Y-2666390D01*
X6200190Y-2660954D01*
X6198108Y-2656382D01*
X6196076Y-2650896D01*
X6192621Y-2639466D01*
X6189116Y-2630373D01*
X6186373Y-2625750D01*
X6184696Y-2621788D01*
X6183020Y-2616809D01*
X6179820Y-2605633D01*
X6178092Y-2600350D01*
X6176416Y-2595981D01*
X6173622Y-2590342D01*
X6171946Y-2585974D01*
X6165342Y-2564130D01*
X6163665Y-2559761D01*
X6161024Y-2554274D01*
X6158077Y-2545588D01*
X6155486Y-2535428D01*
X6151981Y-2524404D01*
X6148374Y-2515362D01*
X6144564Y-2502560D01*
X6141567Y-2489809D01*
X6139942Y-2483967D01*
X6138316Y-2479243D01*
X6135573Y-2473248D01*
X6134049Y-2468778D01*
X6132576Y-2463342D01*
X6129934Y-2451455D01*
X6128258Y-2445004D01*
X6122974Y-2429002D01*
X6119012Y-2414270D01*
X6115761Y-2399030D01*
X6112459Y-2386533D01*
X6109766Y-2379472D01*
X6108395Y-2374341D01*
X6105855Y-2361488D01*
X6104178Y-2348280D01*
X6103823Y-2342692D01*
X5955191Y-2342692D01*
X5957671Y-2349449D01*
X5960414Y-2358847D01*
X5960973Y-2362911D01*
X5961837Y-2367178D01*
X5966561Y-2383739D01*
X5981700Y-2430627D01*
X5985865Y-2445410D01*
X5988608Y-2456281D01*
X5990183Y-2461412D01*
X5991860Y-2466035D01*
X5994958Y-2473045D01*
X5998464Y-2483307D01*
X6001512Y-2494483D01*
X6005728Y-2508605D01*
X6010960Y-2524556D01*
X6021578Y-2553716D01*
X6024981Y-2564485D01*
X6026962Y-2572156D01*
X6030366Y-2581808D01*
X6034532Y-2591409D01*
X6038799Y-2602179D01*
X6048349Y-2630728D01*
X6052464Y-2642057D01*
X6061608Y-2664409D01*
X6065164Y-2676448D01*
X6068568Y-2685542D01*
X6072581Y-2694127D01*
X6075984Y-2703118D01*
X6077864Y-2710078D01*
X6079236Y-2713786D01*
X6080861Y-2717444D01*
X6084316Y-2723794D01*
X6086094Y-2727706D01*
X6092291Y-2745384D01*
X6101791Y-2766618D01*
X6103112Y-2770327D01*
X6104026Y-2774492D01*
X6105093Y-2777388D01*
X6110782Y-2788462D01*
X6112713Y-2792831D01*
X6114288Y-2797048D01*
X6116218Y-2804109D01*
X6117742Y-2808122D01*
X6119622Y-2812135D01*
X6123635Y-2819146D01*
X6125565Y-2823108D01*
X6127089Y-2827070D01*
X6129121Y-2833878D01*
X6130645Y-2837840D01*
X6132576Y-2841802D01*
X6136589Y-2848813D01*
X6138468Y-2852826D01*
X6139992Y-2856788D01*
X6141872Y-2863596D01*
X6143244Y-2867050D01*
X6144818Y-2870250D01*
X6148222Y-2875483D01*
X6151575Y-2882849D01*
X6154064Y-2890672D01*
X6155842Y-2895092D01*
X6157874Y-2899359D01*
X6159957Y-2903016D01*
X6164884Y-2910535D01*
X6168034Y-2929331D01*
X6178194Y-2937306D01*
X6178194Y-2941269D01*
X6177330Y-2948584D01*
X6175197Y-2951276D01*
X6172352Y-2949244D01*
X6169406Y-2942336D01*
X6166612Y-2932734D01*
X6161227Y-2932734D01*
X6155232Y-2921254D01*
X6151321Y-2915513D01*
X6148374Y-2912364D01*
X6145225Y-2907334D01*
X6142482Y-2901340D01*
X6138468Y-2894533D01*
X6134303Y-2888843D01*
X6130290Y-2881782D01*
X6127699Y-2875534D01*
X6126480Y-2873146D01*
X6125311Y-2871520D01*
X6123482Y-2870301D01*
X6122162Y-2868625D01*
X6120638Y-2866085D01*
X6117488Y-2859633D01*
X6114237Y-2853639D01*
X6112103Y-2850388D01*
X6103416Y-2834944D01*
X6090005Y-2809951D01*
X6077153Y-2785211D01*
X6070396Y-2773070D01*
X6066993Y-2766263D01*
X6061557Y-2754579D01*
X6054191Y-2740456D01*
X6047790Y-2727350D01*
X6041898Y-2714599D01*
X6036767Y-2702204D01*
X6035598Y-2700020D01*
X6033109Y-2696362D01*
X6029807Y-2689555D01*
X6021781Y-2670251D01*
X6009690Y-2643936D01*
X6005576Y-2634437D01*
X6003086Y-2628138D01*
X6001258Y-2622804D01*
X5997194Y-2612948D01*
X5992317Y-2602026D01*
X5989015Y-2593644D01*
X5988050Y-2589530D01*
X5984646Y-2580995D01*
X5979668Y-2570073D01*
X5976264Y-2561691D01*
X5975248Y-2557678D01*
X5971844Y-2548483D01*
X5966866Y-2536393D01*
X5963462Y-2526639D01*
X5962548Y-2522016D01*
X5961430Y-2518562D01*
X5955385Y-2504389D01*
X5953201Y-2498394D01*
X5951270Y-2492349D01*
X5948730Y-2482342D01*
X5947359Y-2477820D01*
X5945936Y-2474010D01*
X5943295Y-2468676D01*
X5939942Y-2459024D01*
X5936742Y-2447239D01*
X5932678Y-2435199D01*
X5929020Y-2426309D01*
X5927293Y-2420975D01*
X5925769Y-2415336D01*
X5923686Y-2405024D01*
X5922416Y-2399944D01*
X5920994Y-2395423D01*
X5918047Y-2388260D01*
X5916320Y-2382469D01*
X5912916Y-2367940D01*
X5911392Y-2360574D01*
X5909716Y-2353716D01*
X5908090Y-2348179D01*
X5904077Y-2338222D01*
X5901639Y-2329586D01*
X5899556Y-2319528D01*
X5897981Y-2308758D01*
X5896711Y-2297328D01*
X5890717Y-2288133D01*
X5886958Y-2263343D01*
X5884621Y-2249474D01*
X5882487Y-2239416D01*
X5880201Y-2231440D01*
X5875477Y-2218436D01*
X5871311Y-2174646D01*
X5864809Y-2159101D01*
X5860796Y-2118156D01*
X5857189Y-2091436D01*
X5853379Y-2069846D01*
X5850280Y-2053843D01*
X5843270Y-1875028D01*
X5781522Y-1875028D01*
X5783732Y-1925980D01*
X5792927Y-1951532D01*
X5796940Y-2009089D01*
X5805627Y-2036775D01*
X5809640Y-2081530D01*
X5818632Y-2107082D01*
X5822137Y-2143709D01*
X5831128Y-2166518D01*
X5835497Y-2202180D01*
X5845149Y-2224278D01*
X5847994Y-2252726D01*
X5857951Y-2275433D01*
X5860491Y-2298852D01*
X5871260Y-2324455D01*
X5871413Y-2339340D01*
X5882386Y-2362809D01*
X5884418Y-2375306D01*
X5885535Y-2380792D01*
X5887110Y-2386584D01*
X5888888Y-2391918D01*
X5892546Y-2400350D01*
X5895949Y-2411272D01*
X5898235Y-2422042D01*
X5899810Y-2427579D01*
X5901639Y-2432659D01*
X5905246Y-2440635D01*
X5907074Y-2445715D01*
X5908700Y-2451201D01*
X5911037Y-2461666D01*
X5912612Y-2466949D01*
X5914390Y-2471674D01*
X5917895Y-2478887D01*
X5919724Y-2483561D01*
X5921349Y-2488793D01*
X5923889Y-2498902D01*
X5925515Y-2504033D01*
X5927344Y-2508605D01*
X5930798Y-2515514D01*
X5932576Y-2519984D01*
X5934202Y-2524963D01*
X5936742Y-2534869D01*
X5938621Y-2540355D01*
X5940755Y-2545588D01*
X5944920Y-2553766D01*
X5946546Y-2557678D01*
X5947613Y-2561234D01*
X5948527Y-2566974D01*
X5949950Y-2571546D01*
X5951982Y-2576931D01*
X5956960Y-2588006D01*
X5960364Y-2596540D01*
X5961329Y-2600655D01*
X5964580Y-2609443D01*
X5976112Y-2636621D01*
X5984849Y-2658872D01*
X5988253Y-2668219D01*
X5991961Y-2676753D01*
X5994857Y-2682138D01*
X5997905Y-2689352D01*
X6000496Y-2697124D01*
X6004610Y-2706928D01*
X6008827Y-2715463D01*
X6011570Y-2722067D01*
X6012586Y-2726080D01*
X6016701Y-2736138D01*
X6031839Y-2768854D01*
X6035954Y-2778150D01*
X6039764Y-2788361D01*
X6041288Y-2791663D01*
X6048857Y-2804312D01*
X6049924Y-2806547D01*
X6050940Y-2809951D01*
X6055004Y-2819603D01*
X6062421Y-2835351D01*
X6075019Y-2859989D01*
X6080404Y-2872130D01*
X6083808Y-2878937D01*
X6086856Y-2884271D01*
X6090259Y-2891078D01*
X6093155Y-2897733D01*
X6096558Y-2904540D01*
X6102858Y-2915970D01*
X6131458Y-2971088D01*
X6139637Y-2986125D01*
X6145022Y-2995320D01*
X6147460Y-2998774D01*
X6150559Y-3002127D01*
X6151626Y-3003804D01*
X6152337Y-3005480D01*
X6153048Y-3009138D01*
X6154318Y-3012033D01*
X6156147Y-3015488D01*
X6166510Y-3032099D01*
X6180429Y-3057398D01*
X6183223Y-3061868D01*
X6186982Y-3066643D01*
X6190386Y-3072688D01*
X6193332Y-3079089D01*
X6196228Y-3083966D01*
X6198565Y-3086303D01*
X6200241Y-3088640D01*
X6210604Y-3106674D01*
X6228080Y-3134207D01*
X6230518Y-3138627D01*
X6231839Y-3142030D01*
X6234684Y-3145840D01*
X6238849Y-3150108D01*
X6240526Y-3152292D01*
X6241694Y-3154222D01*
X6242608Y-3157220D01*
X6243980Y-3159607D01*
X6246012Y-3162401D01*
X6250990Y-3168243D01*
X6253022Y-3171037D01*
X6254394Y-3173323D01*
X6255461Y-3176524D01*
X6257086Y-3179267D01*
X6259423Y-3182620D01*
X6265214Y-3189986D01*
X6267602Y-3193491D01*
X6269228Y-3196336D01*
X6269939Y-3199384D01*
X6270345Y-3200349D01*
X6270904Y-3200958D01*
X6271564Y-3201212D01*
X6273190Y-3202584D01*
X6280200Y-3211982D01*
X6289446Y-3225952D01*
X6297676Y-3237585D01*
X6302349Y-3243224D01*
X6308953Y-3251708D01*
X6324650Y-3273298D01*
X6331661Y-3282492D01*
X6337604Y-3289858D01*
X6342786Y-3295904D01*
X6355334Y-3312109D01*
X6372199Y-3333191D01*
X6400596Y-3367328D01*
X6418884Y-3387801D01*
X6436461Y-3407054D01*
X6452514Y-3424072D01*
X6468922Y-3440836D01*
X6495643Y-3467201D01*
X6516776Y-3487318D01*
X6533845Y-3502914D01*
X6539992Y-3508197D01*
X6545986Y-3512870D01*
X6547510Y-3514598D01*
X6548526Y-3516274D01*
X6548932Y-3517696D01*
X6548932Y-3520744D01*
X6556349Y-3522776D01*
X6558483Y-3523742D01*
X6560261Y-3524808D01*
X6561480Y-3525875D01*
X6563563Y-3528415D01*
X6560108Y-3534054D01*
X6555740Y-3532682D01*
X6553454Y-3531666D01*
X6546900Y-3527551D01*
X6540195Y-3522522D01*
X6537045Y-3520541D01*
X6534404Y-3519170D01*
X6531305Y-3518255D01*
X6529628Y-3517137D01*
X6523278Y-3509568D01*
X6521856Y-3508451D01*
X6519367Y-3507587D01*
X6514693Y-3504742D01*
X6473748Y-3472129D01*
X6466535Y-3465880D01*
X6432092Y-3434842D01*
X6417665Y-3421176D01*
X6400850Y-3404666D01*
X6377076Y-3380587D01*
X6356248Y-3358997D01*
X6334252Y-3335782D01*
X6299911Y-3298799D01*
X6295390Y-3301593D01*
X6295390Y-3313887D01*
X6299504Y-3316782D01*
X6301841Y-3319018D01*
X6305092Y-3322878D01*
X6308852Y-3327857D01*
X6324650Y-3350666D01*
X6366408Y-3403346D01*
X6370624Y-3409594D01*
X6373469Y-3414420D01*
X6375196Y-3416706D01*
X6381343Y-3422802D01*
X6382562Y-3425596D01*
X6382359Y-3428237D01*
X6380683Y-3430219D01*
X6378651Y-3431489D01*
X6361938Y-3415995D01*
X6344920Y-3399536D01*
X6319875Y-3374491D01*
X6301536Y-3355644D01*
X6280150Y-3332632D01*
X6259017Y-3309416D01*
X6247587Y-3296107D01*
X6242202Y-3288487D01*
X6230772Y-3274618D01*
X6219748Y-3260394D01*
X6209030Y-3247948D01*
X6202476Y-3239770D01*
X6175552Y-3203448D01*
X6170015Y-3196437D01*
X6163868Y-3188208D01*
X6158890Y-3181096D01*
X6156299Y-3176320D01*
X6152337Y-3170631D01*
X6146546Y-3163112D01*
X6144158Y-3159709D01*
X6142583Y-3157067D01*
X6141669Y-3154426D01*
X6139484Y-3151022D01*
X6135166Y-3145993D01*
X6132169Y-3141776D01*
X6121704Y-3124708D01*
X6117386Y-3118053D01*
X6108649Y-3105861D01*
X6100470Y-3091738D01*
X6092291Y-3079597D01*
X6091224Y-3077464D01*
X6090564Y-3075025D01*
X6088786Y-3072384D01*
X6085890Y-3069336D01*
X6081776Y-3062630D01*
X6077966Y-3054756D01*
X6074765Y-3048965D01*
X6072733Y-3046526D01*
X6068822Y-3040278D01*
X6056579Y-3018434D01*
X6044387Y-2997250D01*
X6029706Y-2970428D01*
X6017158Y-2946552D01*
X6009081Y-2930550D01*
X6005931Y-2924962D01*
X6000038Y-2913024D01*
X5993638Y-2899105D01*
X5989218Y-2888691D01*
X5988253Y-2885287D01*
X5986170Y-2881376D01*
X5982970Y-2876651D01*
X5981090Y-2873451D01*
X5977940Y-2866694D01*
X5975502Y-2860649D01*
X5955284Y-2816199D01*
X5951677Y-2807817D01*
X5948324Y-2798114D01*
X5939282Y-2778912D01*
X5937910Y-2775153D01*
X5936843Y-2770682D01*
X5933440Y-2762199D01*
X5928512Y-2751734D01*
X5926480Y-2746857D01*
X5925108Y-2742793D01*
X5924296Y-2738120D01*
X5923432Y-2735427D01*
X5922111Y-2732430D01*
X5918708Y-2725928D01*
X5916625Y-2721051D01*
X5914593Y-2715564D01*
X5911240Y-2704744D01*
X5907735Y-2695397D01*
X5904890Y-2689758D01*
X5901588Y-2680817D01*
X5898591Y-2670302D01*
X5894527Y-2659024D01*
X5890768Y-2650388D01*
X5887770Y-2641193D01*
X5886043Y-2633268D01*
X5884570Y-2628290D01*
X5882640Y-2623007D01*
X5878423Y-2612847D01*
X5876391Y-2606700D01*
X5874664Y-2600502D01*
X5872429Y-2589784D01*
X5871057Y-2584805D01*
X5869584Y-2580589D01*
X5866536Y-2574290D01*
X5864809Y-2569159D01*
X5863082Y-2562860D01*
X5860186Y-2549448D01*
X5858560Y-2543302D01*
X5856986Y-2538425D01*
X5853277Y-2530195D01*
X5850890Y-2521915D01*
X5848705Y-2511501D01*
X5846216Y-2495753D01*
X5845352Y-2492248D01*
X5844438Y-2489708D01*
X5841441Y-2485085D01*
X5839256Y-2477973D01*
X5837072Y-2467508D01*
X5833008Y-2437688D01*
X5830011Y-2433116D01*
X5828741Y-2430424D01*
X5827471Y-2426411D01*
X5826353Y-2421636D01*
X5825540Y-2416657D01*
X5824067Y-2404770D01*
X5827014Y-2391257D01*
X5832856Y-2399030D01*
X5833008Y-2419197D01*
X5845454Y-2430322D01*
X5846927Y-2441194D01*
X5848451Y-2449118D01*
X5850483Y-2454960D01*
X5852972Y-2458516D01*
X5855868Y-2459736D01*
X5858510Y-2459736D01*
X5859881Y-2454249D01*
X5860288Y-2451201D01*
X5860440Y-2446985D01*
X5860338Y-2442159D01*
X5858560Y-2425852D01*
X5850280Y-2411780D01*
X5846165Y-2378608D01*
X5843117Y-2373884D01*
X5840628Y-2369108D01*
X5838647Y-2362911D01*
X5836920Y-2354072D01*
X5833110Y-2325471D01*
X5826455Y-2312619D01*
X5821578Y-2280462D01*
X5819902Y-2271979D01*
X5818225Y-2265273D01*
X5816854Y-2261260D01*
X5813907Y-2255570D01*
X5809081Y-2218486D01*
X5807405Y-2208530D01*
X5805779Y-2200503D01*
X5804458Y-2195525D01*
X5803138Y-2191867D01*
X5801106Y-2184044D01*
X5799429Y-2173376D01*
X5795670Y-2136038D01*
X5794502Y-2126894D01*
X5793384Y-2120036D01*
X5792470Y-2116582D01*
X5791657Y-2114702D01*
X5790133Y-2108860D01*
X5788660Y-2100224D01*
X5787237Y-2088845D01*
X5785916Y-2074722D01*
X5784697Y-2057907D01*
X5781903Y-2011222D01*
X5775452Y-1981403D01*
X5773115Y-1857806D01*
X5600587Y-1857806D01*
X5600090Y-1872538D01*
X5605170Y-2028240D01*
X5611266Y-2064613D01*
X5615025Y-2093671D01*
X5616295Y-2106879D01*
X5618124Y-2136952D01*
X5626354Y-2164130D01*
X5632551Y-2217877D01*
X5636615Y-2230678D01*
X5638342Y-2236825D01*
X5639968Y-2244090D01*
X5641289Y-2251608D01*
X5643168Y-2265426D01*
X5644743Y-2273604D01*
X5646674Y-2281885D01*
X5650788Y-2296515D01*
X5654243Y-2311806D01*
X5656122Y-2323998D01*
X5657596Y-2330805D01*
X5659424Y-2337663D01*
X5663387Y-2349601D01*
X5665266Y-2356408D01*
X5666790Y-2363216D01*
X5667806Y-2369159D01*
X5669381Y-2381961D01*
X5674258Y-2393696D01*
X5676239Y-2399182D01*
X5678170Y-2405380D01*
X5679694Y-2411628D01*
X5681675Y-2422550D01*
X5683199Y-2428595D01*
X5685078Y-2434590D01*
X5689092Y-2444902D01*
X5690971Y-2450846D01*
X5692495Y-2456840D01*
X5693460Y-2462123D01*
X5695035Y-2473604D01*
X5699810Y-2483154D01*
X5701792Y-2487726D01*
X5703671Y-2493060D01*
X5705195Y-2498496D01*
X5707126Y-2508199D01*
X5708650Y-2513685D01*
X5710529Y-2519019D01*
X5714542Y-2528112D01*
X5716371Y-2533345D01*
X5717895Y-2538628D01*
X5718860Y-2543302D01*
X5720334Y-2553411D01*
X5725312Y-2562504D01*
X5727344Y-2566670D01*
X5729224Y-2571394D01*
X5730748Y-2576017D01*
X5732678Y-2584043D01*
X5734202Y-2588768D01*
X5736082Y-2593695D01*
X5740095Y-2602484D01*
X5743448Y-2611831D01*
X5745327Y-2619451D01*
X5746851Y-2623921D01*
X5748731Y-2628493D01*
X5752896Y-2636926D01*
X5756351Y-2646375D01*
X5758281Y-2654350D01*
X5759805Y-2658872D01*
X5761685Y-2663393D01*
X5765698Y-2671267D01*
X5767527Y-2675483D01*
X5768949Y-2679496D01*
X5770727Y-2686151D01*
X5772200Y-2690063D01*
X5774080Y-2694127D01*
X5778246Y-2701594D01*
X5780176Y-2705963D01*
X5781802Y-2710383D01*
X5783732Y-2718054D01*
X5785205Y-2722016D01*
X5786882Y-2725775D01*
X5790539Y-2731871D01*
X5792317Y-2735630D01*
X5793892Y-2739593D01*
X5796076Y-2747264D01*
X5797804Y-2751683D01*
X5799836Y-2756001D01*
X5804052Y-2763367D01*
X5805982Y-2767482D01*
X5807557Y-2771495D01*
X5809538Y-2778455D01*
X5811113Y-2782417D01*
X5812993Y-2786380D01*
X5817057Y-2793441D01*
X5818886Y-2797556D01*
X5820410Y-2801670D01*
X5821375Y-2805277D01*
X5822797Y-2813151D01*
X5830874Y-2820517D01*
X5833211Y-2829052D01*
X5834481Y-2832912D01*
X5836259Y-2837027D01*
X5838240Y-2840939D01*
X5842355Y-2847390D01*
X5846216Y-2855569D01*
X5848807Y-2863138D01*
X5850280Y-2866491D01*
X5851804Y-2869234D01*
X5854649Y-2872689D01*
X5856173Y-2875381D01*
X5857595Y-2878734D01*
X5860084Y-2886202D01*
X5861913Y-2890316D01*
X5864047Y-2894126D01*
X5868212Y-2899816D01*
X5869838Y-2902559D01*
X5870956Y-2905099D01*
X5871819Y-2909163D01*
X5872988Y-2912160D01*
X5874816Y-2915615D01*
X5879338Y-2922828D01*
X5883452Y-2930652D01*
X5885891Y-2936646D01*
X5889091Y-2942336D01*
X5892495Y-2946806D01*
X5894273Y-2949803D01*
X5895898Y-2953054D01*
X5898489Y-2959658D01*
X5902350Y-2966974D01*
X5906363Y-2972917D01*
X5909767Y-2979166D01*
X5911697Y-2984195D01*
X5914542Y-2989884D01*
X5925362Y-3007207D01*
X5931154Y-3017316D01*
X5934760Y-3024428D01*
X5935776Y-3027426D01*
X5939180Y-3032810D01*
X5944158Y-3039364D01*
X5947562Y-3044850D01*
X5948984Y-3048558D01*
X5955030Y-3058922D01*
X5964275Y-3073146D01*
X5972708Y-3086912D01*
X5977280Y-3095193D01*
X5981395Y-3101289D01*
X5984341Y-3104286D01*
X5986170Y-3106724D01*
X5987237Y-3109722D01*
X5992469Y-3118713D01*
X5999886Y-3130092D01*
X6006185Y-3138779D01*
X6008878Y-3141522D01*
X6009995Y-3142945D01*
X6014262Y-3151225D01*
X6019292Y-3158947D01*
X6051194Y-3204108D01*
X6057544Y-3212592D01*
X6059932Y-3215182D01*
X6061303Y-3216148D01*
X6062014Y-3216351D01*
X6062573Y-3217011D01*
X6062980Y-3217976D01*
X6063640Y-3220821D01*
X6065012Y-3223158D01*
X6067044Y-3225850D01*
X6071971Y-3231184D01*
X6075375Y-3235248D01*
X6076594Y-3237636D01*
X6081217Y-3244240D01*
X6097879Y-3265779D01*
X6134912Y-3310229D01*
X6153251Y-3330956D01*
X6174486Y-3353866D01*
X6203137Y-3383686D01*
X6226302Y-3407054D01*
X6248298Y-3428542D01*
X6267907Y-3446983D01*
X6283858Y-3461105D01*
X6290106Y-3466185D01*
X6294983Y-3469741D01*
X6298336Y-3471570D01*
X6300520Y-3472179D01*
X6301994Y-3473196D01*
X6309614Y-3481120D01*
X6314541Y-3485184D01*
X6338570Y-3502812D01*
X6363919Y-3520338D01*
X6384340Y-3533648D01*
X6391046Y-3537051D01*
X6404254Y-3545535D01*
X6416497Y-3552291D01*
X6431178Y-3559962D01*
X6446875Y-3567785D01*
X6462217Y-3575100D01*
X6475730Y-3581146D01*
X6485940Y-3585311D01*
X6489446Y-3586479D01*
X6493560Y-3587292D01*
X6496862Y-3588359D01*
X6510680Y-3594049D01*
X6517284Y-3596233D01*
X6524294Y-3598113D01*
X6537502Y-3600856D01*
X6544716Y-3602685D01*
X6551625Y-3604717D01*
X6557365Y-3606698D01*
X6569151Y-3611372D01*
X8331250Y-3612591D01*
X8451342Y-3608171D01*
X8491575Y-3606342D01*
X8516620Y-3604920D01*
X8499652Y-3603498D01*
X8454440Y-3601770D01*
X8296198Y-3597554D01*
X8178952Y-3594201D01*
X8103870Y-3591306D01*
X8024418Y-3586886D01*
X7843570Y-3583736D01*
X7788909Y-3582517D01*
X7740903Y-3581146D01*
X7691881Y-3579317D01*
X7629144Y-3576218D01*
X7592669Y-3574846D01*
X7534859Y-3573322D01*
X7399477Y-3570630D01*
X7346289Y-3569360D01*
X7292390Y-3567734D01*
X7236256Y-3565499D01*
X7184288Y-3563061D01*
X7141768Y-3561587D01*
X7084923Y-3560064D01*
X7014209Y-3558540D01*
X6955891Y-3556914D01*
X6936028Y-3556101D01*
X6925056Y-3555390D01*
X6914337Y-3553510D01*
X6932625Y-3547872D01*
X6943394Y-3543706D01*
X6954824Y-3538016D01*
X6995312Y-3531463D01*
X7746085Y-3531260D01*
X8009636Y-3530447D01*
X8048752Y-3530041D01*
X8111439Y-3528618D01*
X8107222Y-3527094D01*
X8103108Y-3526282D01*
X8083905Y-3524097D01*
X8052104Y-3521252D01*
X8034020Y-3518966D01*
X8022793Y-3516985D01*
X8002524Y-3514801D01*
X7975600Y-3512616D01*
X7945272Y-3510737D01*
X7914589Y-3509365D01*
X7856728Y-3507486D01*
X7792923Y-3504844D01*
X7735062Y-3502050D01*
X7695996Y-3499713D01*
X7682788Y-3498748D01*
X7636357Y-3496462D01*
X7506462Y-3491788D01*
X7455408Y-3489350D01*
X7408316Y-3486048D01*
X7387437Y-3484879D01*
X7261148Y-3479850D01*
X7240574Y-3478682D01*
X7225385Y-3476853D01*
X7235240Y-3472586D01*
X7245146Y-3467760D01*
X7262520Y-3458819D01*
X7284821Y-3456025D01*
X7291831Y-3454654D01*
X7298232Y-3453129D01*
X7308088Y-3449980D01*
X7321143Y-3446526D01*
X7350556Y-3440480D01*
X7372400Y-3435654D01*
X7798562Y-3435502D01*
X7835595Y-3431590D01*
X7845450Y-3426256D01*
X7828178Y-3421176D01*
X7760411Y-3416046D01*
X7735874Y-3413658D01*
X7718196Y-3411423D01*
X7704378Y-3409391D01*
X7679944Y-3406851D01*
X7649768Y-3404260D01*
X7585506Y-3399536D01*
X7565085Y-3393643D01*
X7556093Y-3390239D01*
X7554010Y-3388969D01*
X7551724Y-3386683D01*
X7563866Y-3381451D01*
X7567574Y-3379419D01*
X7571435Y-3376879D01*
X7575702Y-3373628D01*
X7586319Y-3364382D01*
X7620253Y-3331616D01*
X7630617Y-3315258D01*
X7636713Y-3304844D01*
X7642656Y-3293973D01*
X7648244Y-3282899D01*
X7653426Y-3271875D01*
X7658049Y-3261156D01*
X7661960Y-3250996D01*
X7665110Y-3241700D01*
X7667955Y-3231794D01*
X7671003Y-3222498D01*
X7673086Y-3216808D01*
X7674660Y-3210763D01*
X7682026Y-3176117D01*
X7683652Y-3170021D01*
X7684770Y-3166719D01*
X7685786Y-3162604D01*
X7687106Y-3154172D01*
X7688580Y-3142691D01*
X7692288Y-3106216D01*
X7695641Y-3075990D01*
X7699552Y-3044596D01*
X7699502Y-2926130D01*
X7694879Y-2883458D01*
X7692644Y-2857906D01*
X7690561Y-2830525D01*
X7687005Y-2778252D01*
X7684566Y-2771902D01*
X7683957Y-2769819D01*
X7682484Y-2761742D01*
X7678928Y-2734970D01*
X7674102Y-2688793D01*
X7670952Y-2679192D01*
X7669428Y-2673350D01*
X7667701Y-2664612D01*
X7665923Y-2654096D01*
X7662773Y-2631948D01*
X7661046Y-2621635D01*
X7659370Y-2613253D01*
X7656474Y-2602636D01*
X7654747Y-2594914D01*
X7649768Y-2566568D01*
X7646822Y-2552750D01*
X7644739Y-2547010D01*
X7643215Y-2540863D01*
X7636002Y-2503576D01*
X7634376Y-2496972D01*
X7632090Y-2490317D01*
X7628686Y-2477160D01*
X7623048Y-2452268D01*
X7621219Y-2445766D01*
X7618323Y-2437638D01*
X7614869Y-2424023D01*
X7611567Y-2408275D01*
X7608468Y-2395880D01*
X7606080Y-2389632D01*
X7602321Y-2377135D01*
X7598003Y-2360828D01*
X7593025Y-2343810D01*
X7589266Y-2332228D01*
X7586878Y-2323388D01*
X7586268Y-2318664D01*
X7584490Y-2312314D01*
X7581544Y-2304592D01*
X7577531Y-2291842D01*
X7573772Y-2278329D01*
X7570012Y-2266391D01*
X7567117Y-2259177D01*
X7563713Y-2248916D01*
X7560564Y-2238146D01*
X7557617Y-2229104D01*
X7555433Y-2223668D01*
X7551420Y-2212594D01*
X7536688Y-2168194D01*
X7532624Y-2156815D01*
X7528814Y-2146909D01*
X7524953Y-2135733D01*
X7522006Y-2126030D01*
X7517587Y-2114448D01*
X7513167Y-2104491D01*
X7511440Y-2100021D01*
X7510272Y-2096312D01*
X7509357Y-2091436D01*
X7507986Y-2087422D01*
X7500975Y-2072030D01*
X7498943Y-2067153D01*
X7497572Y-2063242D01*
X7496606Y-2058416D01*
X7495286Y-2054606D01*
X7488428Y-2039467D01*
X7486192Y-2033879D01*
X7484414Y-2028748D01*
X7482636Y-2021535D01*
X7481620Y-2018588D01*
X7480401Y-2016150D01*
X7477810Y-2012797D01*
X7476134Y-2009648D01*
X7474407Y-2005584D01*
X7471003Y-1995830D01*
X7466330Y-1984298D01*
X7461961Y-1975104D01*
X7459116Y-1968093D01*
X7458252Y-1964131D01*
X7454950Y-1956104D01*
X7450074Y-1945843D01*
X7446060Y-1936038D01*
X7444231Y-1930044D01*
X7443114Y-1927453D01*
X7441844Y-1925167D01*
X7439101Y-1921459D01*
X7435748Y-1914042D01*
X7432802Y-1905050D01*
X7431125Y-1900885D01*
X7429449Y-1897430D01*
X7426604Y-1893112D01*
X7424877Y-1889760D01*
X7419898Y-1876856D01*
X7416546Y-1869490D01*
X7413955Y-1865579D01*
X7411110Y-1859889D01*
X7408316Y-1852879D01*
X7397140Y-1827936D01*
X7391908Y-1817217D01*
X7386421Y-1806651D01*
X7380122Y-1793341D01*
X7370775Y-1774596D01*
X7366101Y-1764690D01*
X7359243Y-1752803D01*
X7356957Y-1747621D01*
X7356144Y-1743964D01*
X7353249Y-1738426D01*
X7348931Y-1731975D01*
X7346696Y-1728063D01*
X7344765Y-1724101D01*
X7341209Y-1714855D01*
X7339380Y-1711858D01*
X7336942Y-1708454D01*
X7327239Y-1690979D01*
X7316419Y-1669796D01*
X7313320Y-1664309D01*
X7305141Y-1648358D01*
X7303109Y-1644751D01*
X7299756Y-1639925D01*
X7298283Y-1638147D01*
X7294473Y-1631848D01*
X7290206Y-1623568D01*
X7283348Y-1611426D01*
X7276084Y-1599438D01*
X7269886Y-1588414D01*
X7266635Y-1581962D01*
X7263790Y-1577644D01*
X7261453Y-1575155D01*
X7259624Y-1572260D01*
X7253071Y-1559153D01*
X7251039Y-1555496D01*
X7249312Y-1553006D01*
X7247178Y-1551330D01*
X7245603Y-1549400D01*
X7241743Y-1542999D01*
X7236104Y-1532686D01*
X7231024Y-1524101D01*
X7226757Y-1517548D01*
X7221677Y-1511096D01*
X7219442Y-1507134D01*
X7214717Y-1496568D01*
X7209434Y-1483055D01*
X7211974Y-1481480D01*
X7213904Y-1480667D01*
X7216851Y-1479905D01*
X7226553Y-1478584D01*
X7241895Y-1477416D01*
X7293609Y-1475028D01*
X7353249Y-1465072D01*
X7421422Y-1462430D01*
X7483195Y-1452219D01*
X7551420Y-1449527D01*
X7604658Y-1439418D01*
X7673238Y-1436573D01*
X7696301Y-1431137D01*
X7683500Y-1425295D01*
X7170013Y-1423162D01*
X7158837Y-1418132D01*
X7151928Y-1407160D01*
X7147306Y-1400505D01*
X7135368Y-1385722D01*
X7122718Y-1368653D01*
X7116572Y-1359916D01*
X7112965Y-1355242D01*
X7106615Y-1348079D01*
X7104329Y-1345793D01*
X7101230Y-1341780D01*
X7100316Y-1339291D01*
X7097166Y-1334973D01*
X7079437Y-1315415D01*
X7079437Y-1303274D01*
X7087565Y-1301851D01*
X7100519Y-1301140D01*
X7155942Y-1299210D01*
X7272274Y-1296212D01*
X7319264Y-1292250D01*
X7354366Y-1290015D01*
X7401814Y-1287780D01*
X7535265Y-1282801D01*
X7590129Y-1280109D01*
X7628128Y-1277620D01*
X7673898Y-1275283D01*
X7808214Y-1270508D01*
X7834630Y-1269339D01*
X7883804Y-1266240D01*
X7903870Y-1260144D01*
X7998358Y-1253591D01*
X8009483Y-1253083D01*
X7979664Y-1250035D01*
X7039559Y-1249527D01*
X7018020Y-1245412D01*
X6978599Y-1207109D01*
X6969963Y-1199032D01*
X6953199Y-1184198D01*
X6936486Y-1170482D01*
X6914845Y-1153769D01*
X6910679Y-1149604D01*
X6909866Y-1146352D01*
X6911289Y-1142339D01*
X6913676Y-1137158D01*
X6946341Y-1135532D01*
X6993890Y-1134211D01*
X7179564Y-1129944D01*
X7245045Y-1127963D01*
X7406944Y-1121714D01*
X7470140Y-1119886D01*
X7597902Y-1117600D01*
X7657846Y-1116076D01*
X7715605Y-1113942D01*
X7780426Y-1110894D01*
X7808214Y-1109827D01*
X7913217Y-1107084D01*
X8056880Y-1104087D01*
X8148675Y-1101750D01*
X8196427Y-1099108D01*
X8252358Y-1096518D01*
X8332165Y-1093673D01*
X8563508Y-1088034D01*
X8601811Y-1086459D01*
X8593074Y-1084275D01*
X8582355Y-1083005D01*
X8565438Y-1081938D01*
X8541308Y-1081024D01*
X8508796Y-1080211D01*
X8439353Y-1079093D01*
X8248040Y-1078280D01*
X7713827Y-1077468D01*
G37*
G36*
X6788403Y-1400810D02*
G01*
X6786372Y-1402740D01*
X6784441Y-1403807D01*
X6780580Y-1405432D01*
X6758686Y-1412849D01*
X6755180Y-1414373D01*
X6753555Y-1415389D01*
X6749897Y-1418488D01*
X6742785Y-1423619D01*
X6734809Y-1430020D01*
X6725920Y-1438605D01*
X6717182Y-1448104D01*
X6709613Y-1457350D01*
X6706616Y-1461516D01*
X6704330Y-1465122D01*
X6702856Y-1468069D01*
X6701891Y-1471777D01*
X6699097Y-1477162D01*
X6694881Y-1484071D01*
X6692696Y-1488490D01*
X6690817Y-1493012D01*
X6688226Y-1501241D01*
X6686600Y-1505661D01*
X6684772Y-1509826D01*
X6678930Y-1520240D01*
X6675475Y-1540713D01*
X6673799Y-1547977D01*
X6669887Y-1561338D01*
X6665264Y-1574444D01*
X6665061Y-1620469D01*
X6670294Y-1624431D01*
X6672834Y-1626107D01*
X6675831Y-1627632D01*
X6678980Y-1628901D01*
X6684822Y-1630578D01*
X6688226Y-1632051D01*
X6691731Y-1633982D01*
X6698030Y-1638300D01*
X6705803Y-1642770D01*
X6712458Y-1645869D01*
X6714947Y-1647342D01*
X6716623Y-1648612D01*
X6717690Y-1650542D01*
X6718858Y-1651711D01*
X6728510Y-1657299D01*
X6735978Y-1662480D01*
X6744868Y-1669440D01*
X6755028Y-1677974D01*
X6766102Y-1687830D01*
X6777939Y-1698853D01*
X6790334Y-1710791D01*
X6802983Y-1723491D01*
X6837984Y-1759508D01*
X6842353Y-1764487D01*
X6843369Y-1767128D01*
X6846112Y-1770989D01*
X6855663Y-1782165D01*
X6890308Y-1826158D01*
X6907479Y-1850593D01*
X6926224Y-1878380D01*
X6932422Y-1888032D01*
X6935520Y-1893265D01*
X6939280Y-1898446D01*
X6942683Y-1902460D01*
X6944918Y-1905863D01*
X6945833Y-1908556D01*
X6947408Y-1911451D01*
X6955586Y-1923745D01*
X6959549Y-1930603D01*
X6960565Y-1933752D01*
X6961631Y-1935530D01*
X6967372Y-1941982D01*
X6969302Y-1944776D01*
X6970877Y-1947570D01*
X6972757Y-1952802D01*
X6974281Y-1955749D01*
X6976109Y-1958644D01*
X6980224Y-1963623D01*
X6982104Y-1966468D01*
X6983679Y-1969312D01*
X6985711Y-1974392D01*
X6989267Y-1980742D01*
X6993280Y-1986432D01*
X6995972Y-1991004D01*
X6996887Y-1993747D01*
X7000240Y-1999843D01*
X7005218Y-2007870D01*
X7007504Y-2012086D01*
X7009282Y-2015947D01*
X7011060Y-2021433D01*
X7012330Y-2024024D01*
X7013905Y-2026412D01*
X7017359Y-2030323D01*
X7019188Y-2033168D01*
X7020864Y-2036419D01*
X7023506Y-2043226D01*
X7025335Y-2047036D01*
X7027418Y-2050745D01*
X7031380Y-2056790D01*
X7033209Y-2060143D01*
X7034682Y-2063496D01*
X7036562Y-2069287D01*
X7038086Y-2072690D01*
X7039965Y-2076094D01*
X7044029Y-2082241D01*
X7045909Y-2085695D01*
X7047433Y-2089099D01*
X7049312Y-2094839D01*
X7052309Y-2100986D01*
X7055815Y-2106218D01*
X7057593Y-2109774D01*
X7059218Y-2113686D01*
X7061657Y-2121255D01*
X7063231Y-2124964D01*
X7064959Y-2128215D01*
X7068362Y-2132939D01*
X7070140Y-2136241D01*
X7071715Y-2140051D01*
X7074306Y-2148027D01*
X7076186Y-2152599D01*
X7078370Y-2157018D01*
X7082637Y-2164029D01*
X7084314Y-2167280D01*
X7085431Y-2170125D01*
X7086346Y-2174544D01*
X7087666Y-2178253D01*
X7089648Y-2182825D01*
X7094524Y-2192782D01*
X7098639Y-2202688D01*
X7100671Y-2209444D01*
X7102246Y-2213254D01*
X7104227Y-2217115D01*
X7108291Y-2223871D01*
X7109917Y-2227275D01*
X7111034Y-2230374D01*
X7111898Y-2235555D01*
X7113219Y-2239518D01*
X7115149Y-2244191D01*
X7120026Y-2254097D01*
X7122312Y-2259330D01*
X7124141Y-2264156D01*
X7126122Y-2271369D01*
X7127443Y-2275128D01*
X7129018Y-2278735D01*
X7132370Y-2285136D01*
X7134148Y-2289454D01*
X7138416Y-2303576D01*
X7140092Y-2308504D01*
X7141921Y-2313076D01*
X7145477Y-2320340D01*
X7147255Y-2324963D01*
X7148880Y-2329992D01*
X7151370Y-2339797D01*
X7153148Y-2345334D01*
X7155180Y-2350770D01*
X7159244Y-2359812D01*
X7162647Y-2370023D01*
X7164628Y-2378964D01*
X7166152Y-2384094D01*
X7167981Y-2389225D01*
X7171944Y-2398268D01*
X7173823Y-2403551D01*
X7175347Y-2408986D01*
X7177278Y-2418740D01*
X7178852Y-2424176D01*
X7180732Y-2429510D01*
X7182713Y-2434082D01*
X7187590Y-2443734D01*
X7189165Y-2455468D01*
X7190130Y-2460650D01*
X7191502Y-2466136D01*
X7193178Y-2471267D01*
X7196683Y-2479598D01*
X7198461Y-2484983D01*
X7200087Y-2490927D01*
X7202474Y-2502865D01*
X7206234Y-2517241D01*
X7210298Y-2530043D01*
X7212177Y-2537155D01*
X7213701Y-2544165D01*
X7215631Y-2555951D01*
X7217003Y-2562250D01*
X7218629Y-2568346D01*
X7220356Y-2573426D01*
X7224522Y-2583891D01*
X7227925Y-2608986D01*
X7229551Y-2617470D01*
X7231380Y-2625598D01*
X7234123Y-2635605D01*
X7236053Y-2644241D01*
X7238034Y-2654604D01*
X7239762Y-2665476D01*
X7242809Y-2687370D01*
X7246620Y-2708757D01*
X7251598Y-2730398D01*
X7253376Y-2763469D01*
X7255764Y-2790393D01*
X7257237Y-2802839D01*
X7261504Y-2831541D01*
X7261453Y-2942336D01*
X7257694Y-2961843D01*
X7255205Y-2980588D01*
X7251496Y-3016910D01*
X7249566Y-3032353D01*
X7262723Y-3047339D01*
X7268565Y-3048762D01*
X7271461Y-3049727D01*
X7274966Y-3051251D01*
X7278674Y-3053181D01*
X7285786Y-3057347D01*
X7290003Y-3059277D01*
X7294321Y-3060801D01*
X7302246Y-3062782D01*
X7312710Y-3066288D01*
X7317841Y-3068320D01*
X7329271Y-3073349D01*
X7382357Y-3073349D01*
X7402677Y-3064510D01*
X7411262Y-3061106D01*
X7415174Y-3060039D01*
X7417968Y-3058566D01*
X7421321Y-3056178D01*
X7425131Y-3053029D01*
X7433665Y-3044901D01*
X7442860Y-3034893D01*
X7451953Y-3023920D01*
X7460284Y-3012795D01*
X7463942Y-3007461D01*
X7467092Y-3002381D01*
X7469682Y-2997657D01*
X7477607Y-2980436D01*
X7481468Y-2972917D01*
X7483906Y-2966618D01*
X7484770Y-2961944D01*
X7488174Y-2950565D01*
X7493101Y-2935782D01*
X7495133Y-2928620D01*
X7496505Y-2922574D01*
X7497368Y-2914294D01*
X7499756Y-2899562D01*
X7504226Y-2877058D01*
X7505649Y-2868269D01*
X7506817Y-2859430D01*
X7507731Y-2850184D01*
X7508443Y-2840075D01*
X7509306Y-2815793D01*
X7509611Y-2783636D01*
X7509662Y-2712212D01*
X7507274Y-2686202D01*
X7504633Y-2663952D01*
X7501737Y-2643835D01*
X7498791Y-2619908D01*
X7497521Y-2607716D01*
X7494981Y-2576830D01*
X7490815Y-2560929D01*
X7488986Y-2553055D01*
X7487158Y-2543454D01*
X7485532Y-2533345D01*
X7481976Y-2502814D01*
X7477912Y-2491181D01*
X7476134Y-2485237D01*
X7474356Y-2477516D01*
X7472730Y-2469032D01*
X7470394Y-2453182D01*
X7469174Y-2446274D01*
X7467904Y-2440838D01*
X7466838Y-2437688D01*
X7464145Y-2431084D01*
X7461554Y-2422042D01*
X7459573Y-2412949D01*
X7458303Y-2402382D01*
X7457135Y-2397201D01*
X7455458Y-2391054D01*
X7451090Y-2377643D01*
X7447076Y-2362200D01*
X7444740Y-2350109D01*
X7443368Y-2344724D01*
X7441895Y-2340305D01*
X7438999Y-2334209D01*
X7437374Y-2329281D01*
X7435697Y-2323236D01*
X7432751Y-2309825D01*
X7430871Y-2302662D01*
X7428788Y-2296109D01*
X7424928Y-2286101D01*
X7421372Y-2274214D01*
X7419035Y-2263546D01*
X7417765Y-2258923D01*
X7416444Y-2255266D01*
X7412736Y-2248509D01*
X7410297Y-2241600D01*
X7408367Y-2234234D01*
X7407249Y-2226056D01*
X7406335Y-2223058D01*
X7404963Y-2219655D01*
X7401356Y-2212136D01*
X7397394Y-2201468D01*
X7394295Y-2190800D01*
X7390282Y-2179624D01*
X7386523Y-2170988D01*
X7384846Y-2166315D01*
X7383525Y-2161794D01*
X7382713Y-2157882D01*
X7381494Y-2149703D01*
X7371740Y-2134819D01*
X7368133Y-2117750D01*
X7366914Y-2113584D01*
X7365746Y-2110587D01*
X7362545Y-2106320D01*
X7359954Y-2100986D01*
X7357567Y-2094230D01*
X7354874Y-2084070D01*
X7353503Y-2080615D01*
X7351877Y-2077415D01*
X7348372Y-2072081D01*
X7346746Y-2068677D01*
X7345425Y-2065070D01*
X7343749Y-2058162D01*
X7342530Y-2054555D01*
X7341108Y-2051202D01*
X7337806Y-2045614D01*
X7333945Y-2037080D01*
X7330490Y-2027580D01*
X7325766Y-2016302D01*
X7321346Y-2007057D01*
X7318502Y-1999538D01*
X7317740Y-1995474D01*
X7316774Y-1993087D01*
X7315352Y-1990496D01*
X7311593Y-1984959D01*
X7309510Y-1981047D01*
X7307630Y-1976678D01*
X7303211Y-1964436D01*
X7301636Y-1961235D01*
X7297470Y-1954631D01*
X7290917Y-1939899D01*
X7281519Y-1921510D01*
X7280198Y-1918360D01*
X7279386Y-1915007D01*
X7277100Y-1910334D01*
X7273544Y-1904847D01*
X7269988Y-1897888D01*
X7267498Y-1891588D01*
X7265974Y-1888439D01*
X7264298Y-1885594D01*
X7260996Y-1880971D01*
X7257084Y-1873605D01*
X7253731Y-1865579D01*
X7250328Y-1858772D01*
X7247686Y-1854809D01*
X7244334Y-1848205D01*
X7241082Y-1840484D01*
X7239101Y-1836674D01*
X7237069Y-1833372D01*
X7233564Y-1828698D01*
X7231786Y-1825548D01*
X7230109Y-1821942D01*
X7227671Y-1815033D01*
X7226401Y-1812340D01*
X7225182Y-1810562D01*
X7222896Y-1808988D01*
X7221067Y-1806600D01*
X7218934Y-1803044D01*
X7214057Y-1793443D01*
X7207351Y-1781200D01*
X7189978Y-1751787D01*
X7184847Y-1744014D01*
X7180529Y-1738426D01*
X7178954Y-1735937D01*
X7177887Y-1733804D01*
X7177024Y-1730756D01*
X7175906Y-1728571D01*
X7167930Y-1717751D01*
X7166356Y-1715058D01*
X7164425Y-1710689D01*
X7162698Y-1707743D01*
X7153656Y-1695399D01*
X7152335Y-1693113D01*
X7151268Y-1690268D01*
X7147864Y-1685137D01*
X7142988Y-1679041D01*
X7140956Y-1676146D01*
X7139584Y-1673707D01*
X7138873Y-1670964D01*
X7138314Y-1669745D01*
X7137400Y-1668627D01*
X7134707Y-1666290D01*
X7129729Y-1660093D01*
X7114946Y-1638503D01*
X7111085Y-1633321D01*
X7107123Y-1628648D01*
X7086600Y-1601825D01*
X7071715Y-1583080D01*
X7055510Y-1563928D01*
X7038441Y-1544726D01*
X7025335Y-1530604D01*
X7007758Y-1512570D01*
X6990537Y-1495806D01*
X6974128Y-1480769D01*
X6966305Y-1474012D01*
X6941210Y-1453388D01*
X6938568Y-1451508D01*
X6936384Y-1450238D01*
X6933590Y-1449374D01*
X6928866Y-1446377D01*
X6922871Y-1441653D01*
X6915099Y-1436420D01*
X6902500Y-1429512D01*
X6886295Y-1421231D01*
X6873595Y-1415186D01*
X6865315Y-1411884D01*
X6860336Y-1410919D01*
X6850125Y-1408176D01*
X6829094Y-1401216D01*
G37*
D10*
X494792Y-5500878D02*
G01*
X484378Y-5495544D01*
X473963Y-5485129D01*
X468884Y-5474970D01*
X468884Y-5454142D01*
X473963Y-5443728D01*
X484378Y-5433313D01*
X494792Y-5427979D01*
X510539Y-5422900D01*
X536447Y-5422900D01*
X551942Y-5427979D01*
X562355Y-5433313D01*
X572770Y-5443728D01*
X577850Y-5454142D01*
X577850Y-5474970D01*
X572770Y-5485129D01*
X562355Y-5495544D01*
X551942Y-5500878D01*
X494792Y-5540247D02*
G01*
X489712Y-5540247D01*
X479297Y-5545581D01*
X473963Y-5550662D01*
X468884Y-5561076D01*
X468884Y-5581904D01*
X473963Y-5592318D01*
X479297Y-5597397D01*
X489712Y-5602731D01*
X500126Y-5602731D01*
X510539Y-5597397D01*
X526034Y-5586984D01*
X577850Y-5535168D01*
X577850Y-5607812D01*
X3034791Y-5411978D02*
G01*
X3024377Y-5406644D01*
X3013963Y-5396229D01*
X3008884Y-5386070D01*
X3008884Y-5365242D01*
X3013963Y-5354828D01*
X3024377Y-5344413D01*
X3034791Y-5339079D01*
X3050540Y-5334000D01*
X3076447Y-5334000D01*
X3091941Y-5339079D01*
X3102356Y-5344413D01*
X3112770Y-5354828D01*
X3117850Y-5365242D01*
X3117850Y-5386070D01*
X3112770Y-5396229D01*
X3102356Y-5406644D01*
X3091941Y-5411978D01*
X3008884Y-5498084D02*
G01*
X3081527Y-5446268D01*
X3081527Y-5524245D01*
X3008884Y-5498084D02*
G01*
X3117850Y-5498084D01*
X482092Y-5132578D02*
G01*
X471678Y-5127244D01*
X461263Y-5116829D01*
X456184Y-5106670D01*
X456184Y-5085842D01*
X461263Y-5075428D01*
X471678Y-5065013D01*
X482092Y-5059679D01*
X497839Y-5054600D01*
X523747Y-5054600D01*
X539242Y-5059679D01*
X549655Y-5065013D01*
X560070Y-5075428D01*
X565150Y-5085842D01*
X565150Y-5106670D01*
X560070Y-5116829D01*
X549655Y-5127244D01*
X539242Y-5132578D01*
X456184Y-5229097D02*
G01*
X456184Y-5177281D01*
X502920Y-5171947D01*
X497839Y-5177281D01*
X492505Y-5192776D01*
X492505Y-5208270D01*
X497839Y-5224018D01*
X508000Y-5234431D01*
X523747Y-5239512D01*
X534162Y-5239512D01*
X549655Y-5234431D01*
X560070Y-5224018D01*
X565150Y-5208270D01*
X565150Y-5192776D01*
X560070Y-5177281D01*
X554989Y-5171947D01*
X544576Y-5166868D01*
X3047491Y-5843778D02*
G01*
X3037077Y-5838444D01*
X3026663Y-5828029D01*
X3021584Y-5817870D01*
X3021584Y-5797042D01*
X3026663Y-5786628D01*
X3037077Y-5776213D01*
X3047491Y-5770879D01*
X3063240Y-5765800D01*
X3089147Y-5765800D01*
X3104641Y-5770879D01*
X3115056Y-5776213D01*
X3125470Y-5786628D01*
X3130550Y-5797042D01*
X3130550Y-5817870D01*
X3125470Y-5828029D01*
X3115056Y-5838444D01*
X3104641Y-5843778D01*
X3037077Y-5940297D02*
G01*
X3026663Y-5935218D01*
X3021584Y-5919470D01*
X3021584Y-5909310D01*
X3026663Y-5893562D01*
X3042411Y-5883147D01*
X3068320Y-5878068D01*
X3094227Y-5878068D01*
X3115056Y-5883147D01*
X3125470Y-5893562D01*
X3130550Y-5909310D01*
X3130550Y-5914389D01*
X3125470Y-5929884D01*
X3115056Y-5940297D01*
X3099561Y-5945631D01*
X3094227Y-5945631D01*
X3078734Y-5940297D01*
X3068320Y-5929884D01*
X3063240Y-5914389D01*
X3063240Y-5909310D01*
X3068320Y-5893562D01*
X3078734Y-5883147D01*
X3094227Y-5878068D01*
X3695700Y-6071615D02*
G01*
X3695700Y-5993637D01*
X3700779Y-5978144D01*
X3711193Y-5967729D01*
X3726941Y-5962650D01*
X3737356Y-5962650D01*
X3752850Y-5967729D01*
X3763263Y-5978144D01*
X3768343Y-5993637D01*
X3768343Y-6071615D01*
X3828795Y-6071615D02*
G01*
X3813047Y-6066536D01*
X3807968Y-6056121D01*
X3807968Y-6045707D01*
X3813047Y-6035294D01*
X3823461Y-6029960D01*
X3844290Y-6024879D01*
X3859784Y-6019800D01*
X3870197Y-6009386D01*
X3875531Y-5998971D01*
X3875531Y-5983223D01*
X3870197Y-5972810D01*
X3865118Y-5967729D01*
X3849370Y-5962650D01*
X3828795Y-5962650D01*
X3813047Y-5967729D01*
X3807968Y-5972810D01*
X3802634Y-5983223D01*
X3802634Y-5998971D01*
X3807968Y-6009386D01*
X3818381Y-6019800D01*
X3833875Y-6024879D01*
X3854704Y-6029960D01*
X3865118Y-6035294D01*
X3870197Y-6045707D01*
X3870197Y-6056121D01*
X3865118Y-6066536D01*
X3849370Y-6071615D01*
X3828795Y-6071615D01*
X-318515Y-3314700D02*
G01*
X-240537Y-3314700D01*
X-225044Y-3319779D01*
X-214629Y-3330194D01*
X-209550Y-3345942D01*
X-209550Y-3356355D01*
X-214629Y-3371850D01*
X-225044Y-3382263D01*
X-240537Y-3387344D01*
X-318515Y-3387344D01*
X-318515Y-3494531D02*
G01*
X-209550Y-3442462D01*
X-318515Y-3421634D02*
G01*
X-318515Y-3494531D01*
D11*
X2462022Y-2819400D02*
G01*
X2655824Y-2819400D01*
X2462022Y-2819400D02*
G01*
X2462022Y-2902457D01*
X2471165Y-2930144D01*
X2480309Y-2939542D01*
X2498852Y-2948686D01*
X2517393Y-2948686D01*
X2535936Y-2939542D01*
X2545079Y-2930144D01*
X2554224Y-2902457D01*
X2554224Y-2819400D01*
X2554224Y-2884170D02*
G01*
X2655824Y-2948686D01*
X2462022Y-3009645D02*
G01*
X2655824Y-3009645D01*
X2462022Y-3009645D02*
G01*
X2462022Y-3092704D01*
X2471165Y-3120389D01*
X2480309Y-3129787D01*
X2498852Y-3138931D01*
X2526538Y-3138931D01*
X2545079Y-3129787D01*
X2554224Y-3120389D01*
X2563622Y-3092704D01*
X2563622Y-3009645D01*
X2508250Y-3209289D02*
G01*
X2498852Y-3209289D01*
X2480309Y-3218434D01*
X2471165Y-3227578D01*
X2462022Y-3246120D01*
X2462022Y-3282950D01*
X2471165Y-3301492D01*
X2480309Y-3310889D01*
X2498852Y-3320034D01*
X2517393Y-3320034D01*
X2535936Y-3310889D01*
X2563622Y-3292347D01*
X2655824Y-3199892D01*
X2655824Y-3329178D01*
X2462022Y-3445510D02*
G01*
X2471165Y-3417823D01*
X2498852Y-3399536D01*
X2545079Y-3390137D01*
X2572765Y-3390137D01*
X2618993Y-3399536D01*
X2646679Y-3417823D01*
X2655824Y-3445510D01*
X2655824Y-3464052D01*
X2646679Y-3491737D01*
X2618993Y-3510279D01*
X2572765Y-3519423D01*
X2545079Y-3519423D01*
X2498852Y-3510279D01*
X2471165Y-3491737D01*
X2462022Y-3464052D01*
X2462022Y-3445510D01*
X2462022Y-3672839D02*
G01*
X2591308Y-3580384D01*
X2591308Y-3719068D01*
X2462022Y-3672839D02*
G01*
X2655824Y-3672839D01*
X2462022Y-3835400D02*
G01*
X2471165Y-3807713D01*
X2498852Y-3789171D01*
X2545079Y-3780028D01*
X2572765Y-3780028D01*
X2618993Y-3789171D01*
X2646679Y-3807713D01*
X2655824Y-3835400D01*
X2655824Y-3853942D01*
X2646679Y-3881628D01*
X2618993Y-3900170D01*
X2572765Y-3909313D01*
X2545079Y-3909313D01*
X2498852Y-3900170D01*
X2471165Y-3881628D01*
X2462022Y-3853942D01*
X2462022Y-3835400D01*
D10*
X5575300Y-4532884D02*
G01*
X5575300Y-4610862D01*
X5570220Y-4626355D01*
X5559806Y-4636770D01*
X5544058Y-4641850D01*
X5533643Y-4641850D01*
X5518150Y-4636770D01*
X5507736Y-4626355D01*
X5502656Y-4610862D01*
X5502656Y-4532884D01*
X5468365Y-4553712D02*
G01*
X5457952Y-4548378D01*
X5442204Y-4532884D01*
X5442204Y-4641850D01*
X5407913Y-4553712D02*
G01*
X5397500Y-4548378D01*
X5382006Y-4532884D01*
X5382006Y-4641850D01*
D12*
X6210300Y-5013741D02*
G01*
X6210300Y-5090195D01*
X6210300Y-5013741D02*
G01*
X6184900Y-5013741D01*
X6173977Y-5017551D01*
X6166611Y-5024663D01*
X6163056Y-5032029D01*
X6159500Y-5042951D01*
X6159500Y-5060985D01*
X6163056Y-5071907D01*
X6166611Y-5079273D01*
X6173977Y-5086639D01*
X6184900Y-5090195D01*
X6210300Y-5090195D01*
X6135370Y-5028219D02*
G01*
X6128004Y-5024663D01*
X6117081Y-5013741D01*
X6117081Y-5090195D01*
X6027674Y-4999263D02*
G01*
X6093206Y-5115595D01*
X5978397Y-5013741D02*
G01*
X5978397Y-5090195D01*
X6003797Y-5013741D02*
G01*
X5952743Y-5013741D01*
X5928868Y-5013741D02*
G01*
X5877813Y-5090195D01*
X5877813Y-5013741D02*
G01*
X5928868Y-5090195D01*
X5086858Y-5284091D02*
G01*
X5090668Y-5276725D01*
X5097779Y-5269359D01*
X5105145Y-5265803D01*
X5119624Y-5265803D01*
X5126990Y-5269359D01*
X5134102Y-5276725D01*
X5137911Y-5284091D01*
X5141468Y-5295013D01*
X5141468Y-5313047D01*
X5137911Y-5323969D01*
X5134102Y-5331335D01*
X5126990Y-5338701D01*
X5119624Y-5342257D01*
X5105145Y-5342257D01*
X5097779Y-5338701D01*
X5090668Y-5331335D01*
X5086858Y-5323969D01*
X5086858Y-5313047D01*
X5105145Y-5313047D02*
G01*
X5086858Y-5313047D01*
X5062981Y-5265803D02*
G01*
X5062981Y-5342257D01*
X5062981Y-5265803D02*
G01*
X5011927Y-5342257D01*
X5011927Y-5265803D02*
G01*
X5011927Y-5342257D01*
X4988052Y-5265803D02*
G01*
X4988052Y-5342257D01*
X4988052Y-5265803D02*
G01*
X4962652Y-5265803D01*
X4951729Y-5269359D01*
X4944363Y-5276725D01*
X4940808Y-5284091D01*
X4936997Y-5295013D01*
X4936997Y-5313047D01*
X4940808Y-5323969D01*
X4944363Y-5331335D01*
X4951729Y-5338701D01*
X4962652Y-5342257D01*
X4988052Y-5342257D01*
X5126736Y-5784471D02*
G01*
X5126736Y-5850003D01*
X5159502Y-5817237D02*
G01*
X5093970Y-5817237D01*
X5026406Y-5773549D02*
G01*
X5062727Y-5773549D01*
X5066538Y-5806315D01*
X5062727Y-5802759D01*
X5051806Y-5798949D01*
X5040884Y-5798949D01*
X5029961Y-5802759D01*
X5022850Y-5809871D01*
X5019040Y-5820793D01*
X5019040Y-5828159D01*
X5022850Y-5839081D01*
X5029961Y-5846447D01*
X5040884Y-5850003D01*
X5051806Y-5850003D01*
X5062727Y-5846447D01*
X5066538Y-5842637D01*
X5070093Y-5835525D01*
X4995163Y-5773549D02*
G01*
X4965954Y-5850003D01*
X4936997Y-5773549D02*
G01*
X4965954Y-5850003D01*
X6210300Y-8569741D02*
G01*
X6210300Y-8646195D01*
X6210300Y-8569741D02*
G01*
X6184900Y-8569741D01*
X6173977Y-8573297D01*
X6166611Y-8580663D01*
X6163056Y-8588029D01*
X6159500Y-8598951D01*
X6159500Y-8616985D01*
X6163056Y-8627907D01*
X6166611Y-8635273D01*
X6173977Y-8642385D01*
X6184900Y-8646195D01*
X6210300Y-8646195D01*
X6135370Y-8584219D02*
G01*
X6128004Y-8580663D01*
X6117081Y-8569741D01*
X6117081Y-8646195D01*
X6089650Y-8588029D02*
G01*
X6089650Y-8584219D01*
X6085840Y-8577107D01*
X6082284Y-8573297D01*
X6074918Y-8569741D01*
X6060440Y-8569741D01*
X6053327Y-8573297D01*
X6049518Y-8577107D01*
X6045961Y-8584219D01*
X6045961Y-8591585D01*
X6049518Y-8598951D01*
X6056884Y-8609873D01*
X6093206Y-8646195D01*
X6042406Y-8646195D01*
X5952743Y-8555263D02*
G01*
X6018275Y-8671595D01*
X5928868Y-8569741D02*
G01*
X5928868Y-8646195D01*
X5928868Y-8569741D02*
G01*
X5899658Y-8646195D01*
X5870702Y-8569741D02*
G01*
X5899658Y-8646195D01*
X5870702Y-8569741D02*
G01*
X5870702Y-8646195D01*
X5846572Y-8569741D02*
G01*
X5846572Y-8646195D01*
X5771641Y-8580663D02*
G01*
X5779008Y-8573297D01*
X5789929Y-8569741D01*
X5804408Y-8569741D01*
X5815329Y-8573297D01*
X5822695Y-8580663D01*
X5822695Y-8588029D01*
X5819140Y-8595141D01*
X5815329Y-8598951D01*
X5808218Y-8602507D01*
X5786374Y-8609873D01*
X5779008Y-8613429D01*
X5775452Y-8616985D01*
X5771641Y-8624351D01*
X5771641Y-8635273D01*
X5779008Y-8642385D01*
X5789929Y-8646195D01*
X5804408Y-8646195D01*
X5815329Y-8642385D01*
X5822695Y-8635273D01*
X5725922Y-8569741D02*
G01*
X5733288Y-8573297D01*
X5740400Y-8580663D01*
X5744209Y-8588029D01*
X5747765Y-8598951D01*
X5747765Y-8616985D01*
X5744209Y-8627907D01*
X5740400Y-8635273D01*
X5733288Y-8642385D01*
X5725922Y-8646195D01*
X5711443Y-8646195D01*
X5704077Y-8642385D01*
X5696965Y-8635273D01*
X5693156Y-8627907D01*
X5689600Y-8616985D01*
X5689600Y-8598951D01*
X5693156Y-8588029D01*
X5696965Y-8580663D01*
X5704077Y-8573297D01*
X5711443Y-8569741D01*
X5725922Y-8569741D01*
X5093970Y-5011930D02*
G01*
X5064759Y-5088384D01*
X5035804Y-5011930D02*
G01*
X5064759Y-5088384D01*
X5011674Y-5011930D02*
G01*
X5011674Y-5088384D01*
X4987797Y-5011930D02*
G01*
X4987797Y-5088384D01*
X4987797Y-5011930D02*
G01*
X4936997Y-5088384D01*
X4936997Y-5011930D02*
G01*
X4936997Y-5088384D01*
X5422900Y-8580625D02*
G01*
X5422900Y-8657079D01*
X5422900Y-8580625D02*
G01*
X5397500Y-8580625D01*
X5386577Y-8584181D01*
X5379211Y-8591547D01*
X5375656Y-8598913D01*
X5372100Y-8609835D01*
X5372100Y-8627869D01*
X5375656Y-8638791D01*
X5379211Y-8646157D01*
X5386577Y-8653523D01*
X5397500Y-8657079D01*
X5422900Y-8657079D01*
X5347970Y-8595103D02*
G01*
X5340604Y-8591547D01*
X5329936Y-8580625D01*
X5329936Y-8657079D01*
X5298440Y-8580625D02*
G01*
X5258561Y-8580625D01*
X5280406Y-8609835D01*
X5269484Y-8609835D01*
X5262118Y-8613391D01*
X5258561Y-8616947D01*
X5255006Y-8627869D01*
X5255006Y-8635235D01*
X5258561Y-8646157D01*
X5265927Y-8653523D01*
X5276595Y-8657079D01*
X5287518Y-8657079D01*
X5298440Y-8653523D01*
X5302250Y-8649713D01*
X5305806Y-8642601D01*
X5165343Y-8566147D02*
G01*
X5230875Y-8682479D01*
X5090413Y-8591547D02*
G01*
X5097779Y-8584181D01*
X5108702Y-8580625D01*
X5123179Y-8580625D01*
X5134102Y-8584181D01*
X5141468Y-8591547D01*
X5141468Y-8598913D01*
X5137911Y-8606025D01*
X5134102Y-8609835D01*
X5126990Y-8613391D01*
X5105145Y-8620757D01*
X5097779Y-8624313D01*
X5094224Y-8627869D01*
X5090413Y-8635235D01*
X5090413Y-8646157D01*
X5097779Y-8653523D01*
X5108702Y-8657079D01*
X5123179Y-8657079D01*
X5134102Y-8653523D01*
X5141468Y-8646157D01*
X5011927Y-8598913D02*
G01*
X5015738Y-8591547D01*
X5022850Y-8584181D01*
X5030215Y-8580625D01*
X5044693Y-8580625D01*
X5052059Y-8584181D01*
X5059172Y-8591547D01*
X5062981Y-8598913D01*
X5066538Y-8609835D01*
X5066538Y-8627869D01*
X5062981Y-8638791D01*
X5059172Y-8646157D01*
X5052059Y-8653523D01*
X5044693Y-8657079D01*
X5030215Y-8657079D01*
X5022850Y-8653523D01*
X5015738Y-8646157D01*
X5011927Y-8638791D01*
X4988052Y-8580625D02*
G01*
X4988052Y-8657079D01*
X4936997Y-8580625D02*
G01*
X4988052Y-8631679D01*
X4969763Y-8613391D02*
G01*
X4936997Y-8657079D01*
X6155690Y-5844321D02*
G01*
X6159500Y-5837209D01*
X6166611Y-5829843D01*
X6173977Y-5826287D01*
X6188456Y-5826287D01*
X6195822Y-5829843D01*
X6202934Y-5837209D01*
X6206743Y-5844321D01*
X6210300Y-5855243D01*
X6210300Y-5873531D01*
X6206743Y-5884453D01*
X6202934Y-5891565D01*
X6195822Y-5898931D01*
X6188456Y-5902487D01*
X6173977Y-5902487D01*
X6166611Y-5898931D01*
X6159500Y-5891565D01*
X6155690Y-5884453D01*
X6155690Y-5873531D01*
X6173977Y-5873531D02*
G01*
X6155690Y-5873531D01*
X6131813Y-5826287D02*
G01*
X6131813Y-5902487D01*
X6131813Y-5826287D02*
G01*
X6080759Y-5902487D01*
X6080759Y-5826287D02*
G01*
X6080759Y-5902487D01*
X6056884Y-5826287D02*
G01*
X6056884Y-5902487D01*
X6056884Y-5826287D02*
G01*
X6031484Y-5826287D01*
X6020561Y-5829843D01*
X6013195Y-5837209D01*
X6009640Y-5844321D01*
X6005829Y-5855243D01*
X6005829Y-5873531D01*
X6009640Y-5884453D01*
X6013195Y-5891565D01*
X6020561Y-5898931D01*
X6031484Y-5902487D01*
X6056884Y-5902487D01*
X6210300Y-5307619D02*
G01*
X6210300Y-5384073D01*
X6210300Y-5307619D02*
G01*
X6184900Y-5307619D01*
X6173977Y-5311429D01*
X6166611Y-5318541D01*
X6163056Y-5325907D01*
X6159500Y-5336829D01*
X6159500Y-5354863D01*
X6163056Y-5365785D01*
X6166611Y-5373151D01*
X6173977Y-5380517D01*
X6184900Y-5384073D01*
X6210300Y-5384073D01*
X6113525Y-5307619D02*
G01*
X6124447Y-5311429D01*
X6131813Y-5322351D01*
X6135370Y-5340385D01*
X6135370Y-5351307D01*
X6131813Y-5369595D01*
X6124447Y-5380517D01*
X6113525Y-5384073D01*
X6106413Y-5384073D01*
X6095491Y-5380517D01*
X6088125Y-5369595D01*
X6084570Y-5351307D01*
X6084570Y-5340385D01*
X6088125Y-5322351D01*
X6095491Y-5311429D01*
X6106413Y-5307619D01*
X6113525Y-5307619D01*
X5994908Y-5293141D02*
G01*
X6060440Y-5409473D01*
X5971031Y-5307619D02*
G01*
X5971031Y-5384073D01*
X5971031Y-5307619D02*
G01*
X5938265Y-5307619D01*
X5927343Y-5311429D01*
X5923788Y-5314985D01*
X5920231Y-5322351D01*
X5920231Y-5329463D01*
X5923788Y-5336829D01*
X5927343Y-5340385D01*
X5938265Y-5343941D01*
X5971031Y-5343941D01*
X5945631Y-5343941D02*
G01*
X5920231Y-5384073D01*
X5896102Y-5307619D02*
G01*
X5845302Y-5384073D01*
X5845302Y-5307619D02*
G01*
X5896102Y-5384073D01*
X6210300Y-5582955D02*
G01*
X6210300Y-5659409D01*
X6210300Y-5582955D02*
G01*
X6177534Y-5582955D01*
X6166611Y-5586765D01*
X6163056Y-5590321D01*
X6159500Y-5597687D01*
X6159500Y-5604799D01*
X6163056Y-5612165D01*
X6166611Y-5615721D01*
X6177534Y-5619531D01*
X6210300Y-5619531D01*
X6184900Y-5619531D02*
G01*
X6159500Y-5659409D01*
X6135370Y-5582955D02*
G01*
X6135370Y-5659409D01*
X6135370Y-5582955D02*
G01*
X6088125Y-5582955D01*
X6135370Y-5619531D02*
G01*
X6106413Y-5619531D01*
X6135370Y-5659409D02*
G01*
X6088125Y-5659409D01*
X6013195Y-5593877D02*
G01*
X6020561Y-5586765D01*
X6031484Y-5582955D01*
X6045961Y-5582955D01*
X6056884Y-5586765D01*
X6063995Y-5593877D01*
X6063995Y-5601243D01*
X6060440Y-5608609D01*
X6056884Y-5612165D01*
X6049518Y-5615721D01*
X6027674Y-5623087D01*
X6020561Y-5626643D01*
X6016752Y-5630453D01*
X6013195Y-5637565D01*
X6013195Y-5648487D01*
X6020561Y-5655853D01*
X6031484Y-5659409D01*
X6045961Y-5659409D01*
X6056884Y-5655853D01*
X6063995Y-5648487D01*
X5989320Y-5582955D02*
G01*
X5989320Y-5659409D01*
X5989320Y-5582955D02*
G01*
X5941822Y-5582955D01*
X5989320Y-5619531D02*
G01*
X5960109Y-5619531D01*
X5989320Y-5659409D02*
G01*
X5941822Y-5659409D01*
X5892545Y-5582955D02*
G01*
X5892545Y-5659409D01*
X5917945Y-5582955D02*
G01*
X5867145Y-5582955D01*
X6210300Y-6069365D02*
G01*
X6210300Y-6145565D01*
X6210300Y-6069365D02*
G01*
X6184900Y-6069365D01*
X6173977Y-6072921D01*
X6166611Y-6080287D01*
X6163056Y-6087399D01*
X6159500Y-6098321D01*
X6159500Y-6116609D01*
X6163056Y-6127531D01*
X6166611Y-6134643D01*
X6173977Y-6142009D01*
X6184900Y-6145565D01*
X6210300Y-6145565D01*
X6131813Y-6087399D02*
G01*
X6131813Y-6083843D01*
X6128004Y-6076477D01*
X6124447Y-6072921D01*
X6117081Y-6069365D01*
X6102604Y-6069365D01*
X6095491Y-6072921D01*
X6091681Y-6076477D01*
X6088125Y-6083843D01*
X6088125Y-6091209D01*
X6091681Y-6098321D01*
X6099047Y-6109243D01*
X6135370Y-6145565D01*
X6084570Y-6145565D01*
X6210300Y-6312443D02*
G01*
X6210300Y-6388897D01*
X6210300Y-6312443D02*
G01*
X6184900Y-6312443D01*
X6173977Y-6315999D01*
X6166611Y-6323365D01*
X6163056Y-6330477D01*
X6159500Y-6341399D01*
X6159500Y-6359687D01*
X6163056Y-6370609D01*
X6166611Y-6377975D01*
X6173977Y-6385087D01*
X6184900Y-6388897D01*
X6210300Y-6388897D01*
X6128004Y-6312443D02*
G01*
X6088125Y-6312443D01*
X6109970Y-6341399D01*
X6099047Y-6341399D01*
X6091681Y-6345209D01*
X6088125Y-6348765D01*
X6084570Y-6359687D01*
X6084570Y-6367053D01*
X6088125Y-6377975D01*
X6095491Y-6385087D01*
X6106413Y-6388897D01*
X6117081Y-6388897D01*
X6128004Y-6385087D01*
X6131813Y-6381531D01*
X6135370Y-6374165D01*
X6210300Y-6555521D02*
G01*
X6210300Y-6631975D01*
X6210300Y-6555521D02*
G01*
X6184900Y-6555521D01*
X6173977Y-6559077D01*
X6166611Y-6566443D01*
X6163056Y-6573809D01*
X6159500Y-6584731D01*
X6159500Y-6602765D01*
X6163056Y-6613687D01*
X6166611Y-6621053D01*
X6173977Y-6628165D01*
X6184900Y-6631975D01*
X6210300Y-6631975D01*
X6099047Y-6555521D02*
G01*
X6135370Y-6606321D01*
X6080759Y-6606321D01*
X6099047Y-6555521D02*
G01*
X6099047Y-6631975D01*
X6210300Y-6798599D02*
G01*
X6210300Y-6875053D01*
X6210300Y-6798599D02*
G01*
X6184900Y-6798599D01*
X6173977Y-6802155D01*
X6166611Y-6809521D01*
X6163056Y-6816887D01*
X6159500Y-6827809D01*
X6159500Y-6845843D01*
X6163056Y-6856765D01*
X6166611Y-6864131D01*
X6173977Y-6871497D01*
X6184900Y-6875053D01*
X6210300Y-6875053D01*
X6091681Y-6798599D02*
G01*
X6128004Y-6798599D01*
X6131813Y-6831365D01*
X6128004Y-6827809D01*
X6117081Y-6823999D01*
X6106413Y-6823999D01*
X6095491Y-6827809D01*
X6088125Y-6834921D01*
X6084570Y-6845843D01*
X6084570Y-6853209D01*
X6088125Y-6864131D01*
X6095491Y-6871497D01*
X6106413Y-6875053D01*
X6117081Y-6875053D01*
X6128004Y-6871497D01*
X6131813Y-6867687D01*
X6135370Y-6860575D01*
X6210300Y-7041677D02*
G01*
X6210300Y-7118131D01*
X6210300Y-7041677D02*
G01*
X6184900Y-7041677D01*
X6173977Y-7045487D01*
X6166611Y-7052599D01*
X6163056Y-7059965D01*
X6159500Y-7070887D01*
X6159500Y-7088921D01*
X6163056Y-7099843D01*
X6166611Y-7107209D01*
X6173977Y-7114575D01*
X6184900Y-7118131D01*
X6210300Y-7118131D01*
X6091681Y-7052599D02*
G01*
X6095491Y-7045487D01*
X6106413Y-7041677D01*
X6113525Y-7041677D01*
X6124447Y-7045487D01*
X6131813Y-7056409D01*
X6135370Y-7074443D01*
X6135370Y-7092731D01*
X6131813Y-7107209D01*
X6124447Y-7114575D01*
X6113525Y-7118131D01*
X6109970Y-7118131D01*
X6099047Y-7114575D01*
X6091681Y-7107209D01*
X6088125Y-7096287D01*
X6088125Y-7092731D01*
X6091681Y-7081809D01*
X6099047Y-7074443D01*
X6109970Y-7070887D01*
X6113525Y-7070887D01*
X6124447Y-7074443D01*
X6131813Y-7081809D01*
X6135370Y-7092731D01*
X6210300Y-7284755D02*
G01*
X6210300Y-7361209D01*
X6210300Y-7284755D02*
G01*
X6184900Y-7284755D01*
X6173977Y-7288565D01*
X6166611Y-7295677D01*
X6163056Y-7303043D01*
X6159500Y-7313965D01*
X6159500Y-7332253D01*
X6163056Y-7343175D01*
X6166611Y-7350287D01*
X6173977Y-7357653D01*
X6184900Y-7361209D01*
X6210300Y-7361209D01*
X6084570Y-7284755D02*
G01*
X6120891Y-7361209D01*
X6135370Y-7284755D02*
G01*
X6084570Y-7284755D01*
X6210300Y-7528087D02*
G01*
X6210300Y-7604287D01*
X6210300Y-7528087D02*
G01*
X6184900Y-7528087D01*
X6173977Y-7531643D01*
X6166611Y-7539009D01*
X6163056Y-7546121D01*
X6159500Y-7557043D01*
X6159500Y-7575331D01*
X6163056Y-7586253D01*
X6166611Y-7593365D01*
X6173977Y-7600731D01*
X6184900Y-7604287D01*
X6210300Y-7604287D01*
X6117081Y-7528087D02*
G01*
X6128004Y-7531643D01*
X6131813Y-7539009D01*
X6131813Y-7546121D01*
X6128004Y-7553487D01*
X6120891Y-7557043D01*
X6106413Y-7560599D01*
X6095491Y-7564409D01*
X6088125Y-7571521D01*
X6084570Y-7578887D01*
X6084570Y-7589809D01*
X6088125Y-7597175D01*
X6091681Y-7600731D01*
X6102604Y-7604287D01*
X6117081Y-7604287D01*
X6128004Y-7600731D01*
X6131813Y-7597175D01*
X6135370Y-7589809D01*
X6135370Y-7578887D01*
X6131813Y-7571521D01*
X6124447Y-7564409D01*
X6113525Y-7560599D01*
X6099047Y-7557043D01*
X6091681Y-7553487D01*
X6088125Y-7546121D01*
X6088125Y-7539009D01*
X6091681Y-7531643D01*
X6102604Y-7528087D01*
X6117081Y-7528087D01*
X6210300Y-7771165D02*
G01*
X6210300Y-7847365D01*
X6210300Y-7771165D02*
G01*
X6184900Y-7771165D01*
X6173977Y-7774721D01*
X6166611Y-7782087D01*
X6163056Y-7789199D01*
X6159500Y-7800121D01*
X6159500Y-7818409D01*
X6163056Y-7829331D01*
X6166611Y-7836443D01*
X6173977Y-7843809D01*
X6184900Y-7847365D01*
X6210300Y-7847365D01*
X6088125Y-7796565D02*
G01*
X6091681Y-7807487D01*
X6099047Y-7814853D01*
X6109970Y-7818409D01*
X6113525Y-7818409D01*
X6124447Y-7814853D01*
X6131813Y-7807487D01*
X6135370Y-7796565D01*
X6135370Y-7793009D01*
X6131813Y-7782087D01*
X6124447Y-7774721D01*
X6113525Y-7771165D01*
X6109970Y-7771165D01*
X6099047Y-7774721D01*
X6091681Y-7782087D01*
X6088125Y-7796565D01*
X6088125Y-7814853D01*
X6091681Y-7832887D01*
X6099047Y-7843809D01*
X6109970Y-7847365D01*
X6117081Y-7847365D01*
X6128004Y-7843809D01*
X6131813Y-7836443D01*
X6210300Y-8014243D02*
G01*
X6210300Y-8090697D01*
X6210300Y-8014243D02*
G01*
X6184900Y-8014243D01*
X6173977Y-8017799D01*
X6166611Y-8025165D01*
X6163056Y-8032277D01*
X6159500Y-8043199D01*
X6159500Y-8061487D01*
X6163056Y-8072409D01*
X6166611Y-8079775D01*
X6173977Y-8086887D01*
X6184900Y-8090697D01*
X6210300Y-8090697D01*
X6135370Y-8028721D02*
G01*
X6128004Y-8025165D01*
X6117081Y-8014243D01*
X6117081Y-8090697D01*
X6071361Y-8014243D02*
G01*
X6082284Y-8017799D01*
X6089650Y-8028721D01*
X6093206Y-8047009D01*
X6093206Y-8057931D01*
X6089650Y-8075965D01*
X6082284Y-8086887D01*
X6071361Y-8090697D01*
X6063995Y-8090697D01*
X6053327Y-8086887D01*
X6045961Y-8075965D01*
X6042406Y-8057931D01*
X6042406Y-8047009D01*
X6045961Y-8028721D01*
X6053327Y-8017799D01*
X6063995Y-8014243D01*
X6071361Y-8014243D01*
X6210300Y-8275863D02*
G01*
X6210300Y-8352317D01*
X6210300Y-8275863D02*
G01*
X6184900Y-8275863D01*
X6173977Y-8279419D01*
X6166611Y-8286785D01*
X6163056Y-8294151D01*
X6159500Y-8305073D01*
X6159500Y-8323107D01*
X6163056Y-8334029D01*
X6166611Y-8341395D01*
X6173977Y-8348507D01*
X6184900Y-8352317D01*
X6210300Y-8352317D01*
X6135370Y-8290341D02*
G01*
X6128004Y-8286785D01*
X6117081Y-8275863D01*
X6117081Y-8352317D01*
X6093206Y-8290341D02*
G01*
X6085840Y-8286785D01*
X6074918Y-8275863D01*
X6074918Y-8352317D01*
X5985509Y-8261385D02*
G01*
X6051041Y-8377717D01*
X5961634Y-8275863D02*
G01*
X5961634Y-8352317D01*
X5961634Y-8275863D02*
G01*
X5932424Y-8352317D01*
X5903468Y-8275863D02*
G01*
X5932424Y-8352317D01*
X5903468Y-8275863D02*
G01*
X5903468Y-8352317D01*
X5857493Y-8275863D02*
G01*
X5864859Y-8279419D01*
X5872225Y-8286785D01*
X5875781Y-8294151D01*
X5879338Y-8305073D01*
X5879338Y-8323107D01*
X5875781Y-8334029D01*
X5872225Y-8341395D01*
X5864859Y-8348507D01*
X5857493Y-8352317D01*
X5843015Y-8352317D01*
X5835650Y-8348507D01*
X5828538Y-8341395D01*
X5824727Y-8334029D01*
X5821172Y-8323107D01*
X5821172Y-8305073D01*
X5824727Y-8294151D01*
X5828538Y-8286785D01*
X5835650Y-8279419D01*
X5843015Y-8275863D01*
X5857493Y-8275863D01*
X5746241Y-8286785D02*
G01*
X5753608Y-8279419D01*
X5764529Y-8275863D01*
X5779008Y-8275863D01*
X5789929Y-8279419D01*
X5797295Y-8286785D01*
X5797295Y-8294151D01*
X5793486Y-8301263D01*
X5789929Y-8305073D01*
X5782563Y-8308629D01*
X5760720Y-8315995D01*
X5753608Y-8319551D01*
X5750052Y-8323107D01*
X5746241Y-8330473D01*
X5746241Y-8341395D01*
X5753608Y-8348507D01*
X5764529Y-8352317D01*
X5779008Y-8352317D01*
X5789929Y-8348507D01*
X5797295Y-8341395D01*
X5722365Y-8275863D02*
G01*
X5722365Y-8352317D01*
X5137658Y-8312274D02*
G01*
X5097779Y-8312274D01*
X5119624Y-8341484D01*
X5108702Y-8341484D01*
X5101336Y-8345040D01*
X5097779Y-8348596D01*
X5094224Y-8359518D01*
X5094224Y-8366884D01*
X5097779Y-8377806D01*
X5105145Y-8385172D01*
X5115813Y-8388728D01*
X5126736Y-8388728D01*
X5137658Y-8385172D01*
X5141468Y-8381362D01*
X5145024Y-8374250D01*
X5070093Y-8312274D02*
G01*
X5041138Y-8388728D01*
X5011927Y-8312274D02*
G01*
X5041138Y-8388728D01*
X4980686Y-8312274D02*
G01*
X4940554Y-8312274D01*
X4962397Y-8341484D01*
X4951475Y-8341484D01*
X4944363Y-8345040D01*
X4940554Y-8348596D01*
X4936997Y-8359518D01*
X4936997Y-8366884D01*
X4940554Y-8377806D01*
X4947920Y-8385172D01*
X4958841Y-8388728D01*
X4969763Y-8388728D01*
X4980686Y-8385172D01*
X4984241Y-8381362D01*
X4988052Y-8374250D01*
X5183377Y-8058401D02*
G01*
X5212588Y-8134855D01*
X5183377Y-8058401D02*
G01*
X5154422Y-8134855D01*
X5201665Y-8109455D02*
G01*
X5165343Y-8109455D01*
X5130291Y-8058401D02*
G01*
X5130291Y-8134855D01*
X5130291Y-8058401D02*
G01*
X5097779Y-8058401D01*
X5086858Y-8061957D01*
X5083047Y-8065767D01*
X5079491Y-8072879D01*
X5079491Y-8080245D01*
X5083047Y-8087611D01*
X5086858Y-8091167D01*
X5097779Y-8094723D01*
X5130291Y-8094723D01*
X5104891Y-8094723D02*
G01*
X5079491Y-8134855D01*
X5055615Y-8058401D02*
G01*
X5055615Y-8134855D01*
X5055615Y-8058401D02*
G01*
X5008118Y-8058401D01*
X5055615Y-8094723D02*
G01*
X5026406Y-8094723D01*
X5055615Y-8134855D02*
G01*
X5008118Y-8134855D01*
X4984241Y-8058401D02*
G01*
X4984241Y-8134855D01*
X4984241Y-8058401D02*
G01*
X4936997Y-8058401D01*
X4984241Y-8094723D02*
G01*
X4955031Y-8094723D01*
X5040884Y-7804530D02*
G01*
X5070093Y-7880985D01*
X5040884Y-7804530D02*
G01*
X5011927Y-7880985D01*
X5059172Y-7855585D02*
G01*
X5022850Y-7855585D01*
X4966208Y-7804530D02*
G01*
X4977129Y-7808087D01*
X4984241Y-7819009D01*
X4987797Y-7837296D01*
X4987797Y-7848219D01*
X4984241Y-7866506D01*
X4977129Y-7877429D01*
X4966208Y-7880985D01*
X4958841Y-7880985D01*
X4947920Y-7877429D01*
X4940554Y-7866506D01*
X4936997Y-7848219D01*
X4936997Y-7837296D01*
X4940554Y-7819009D01*
X4947920Y-7808087D01*
X4958841Y-7804530D01*
X4966208Y-7804530D01*
X5008118Y-7550658D02*
G01*
X5037327Y-7627112D01*
X5008118Y-7550658D02*
G01*
X4979161Y-7627112D01*
X5026406Y-7601712D02*
G01*
X4990084Y-7601712D01*
X4955031Y-7565136D02*
G01*
X4947920Y-7561579D01*
X4936997Y-7550658D01*
X4936997Y-7627112D01*
X5040884Y-7296785D02*
G01*
X5070093Y-7373238D01*
X5040884Y-7296785D02*
G01*
X5011927Y-7373238D01*
X5059172Y-7347838D02*
G01*
X5022850Y-7347838D01*
X4984241Y-7315072D02*
G01*
X4984241Y-7311262D01*
X4980686Y-7304151D01*
X4977129Y-7300340D01*
X4969763Y-7296785D01*
X4955286Y-7296785D01*
X4947920Y-7300340D01*
X4944363Y-7304151D01*
X4940554Y-7311262D01*
X4940554Y-7318629D01*
X4944363Y-7325995D01*
X4951475Y-7336917D01*
X4987797Y-7373238D01*
X4936997Y-7373238D01*
X5040884Y-7042912D02*
G01*
X5070093Y-7119365D01*
X5040884Y-7042912D02*
G01*
X5011927Y-7119365D01*
X5059172Y-7093965D02*
G01*
X5022850Y-7093965D01*
X4980686Y-7042912D02*
G01*
X4940554Y-7042912D01*
X4962397Y-7072121D01*
X4951475Y-7072121D01*
X4944363Y-7075678D01*
X4940554Y-7079234D01*
X4936997Y-7090155D01*
X4936997Y-7097521D01*
X4940554Y-7108444D01*
X4947920Y-7115810D01*
X4958841Y-7119365D01*
X4969763Y-7119365D01*
X4980686Y-7115810D01*
X4984241Y-7112000D01*
X4987797Y-7104887D01*
X5044440Y-6789038D02*
G01*
X5073650Y-6865493D01*
X5044440Y-6789038D02*
G01*
X5015484Y-6865493D01*
X5062727Y-6840093D02*
G01*
X5026406Y-6840093D01*
X4955031Y-6789038D02*
G01*
X4991354Y-6840093D01*
X4936997Y-6840093D01*
X4955031Y-6789038D02*
G01*
X4955031Y-6865493D01*
X5040884Y-6535165D02*
G01*
X5070093Y-6611620D01*
X5040884Y-6535165D02*
G01*
X5011927Y-6611620D01*
X5059172Y-6586220D02*
G01*
X5022850Y-6586220D01*
X4944363Y-6535165D02*
G01*
X4980686Y-6535165D01*
X4984241Y-6567931D01*
X4980686Y-6564376D01*
X4969763Y-6560565D01*
X4958841Y-6560565D01*
X4947920Y-6564376D01*
X4940554Y-6571487D01*
X4936997Y-6582410D01*
X4936997Y-6589776D01*
X4940554Y-6600697D01*
X4947920Y-6608063D01*
X4958841Y-6611620D01*
X4969763Y-6611620D01*
X4980686Y-6608063D01*
X4984241Y-6604254D01*
X4987797Y-6597142D01*
X5037327Y-6281295D02*
G01*
X5066538Y-6357749D01*
X5037327Y-6281295D02*
G01*
X5008372Y-6357749D01*
X5055615Y-6332349D02*
G01*
X5019293Y-6332349D01*
X4940808Y-6292217D02*
G01*
X4944363Y-6284851D01*
X4955286Y-6281295D01*
X4962652Y-6281295D01*
X4973574Y-6284851D01*
X4980686Y-6295773D01*
X4984241Y-6314061D01*
X4984241Y-6332349D01*
X4980686Y-6346827D01*
X4973574Y-6354193D01*
X4962652Y-6357749D01*
X4958841Y-6357749D01*
X4947920Y-6354193D01*
X4940808Y-6346827D01*
X4936997Y-6335905D01*
X4936997Y-6332349D01*
X4940808Y-6321427D01*
X4947920Y-6314061D01*
X4958841Y-6310505D01*
X4962652Y-6310505D01*
X4973574Y-6314061D01*
X4980686Y-6321427D01*
X4984241Y-6332349D01*
X5040884Y-6027422D02*
G01*
X5070093Y-6103876D01*
X5040884Y-6027422D02*
G01*
X5011927Y-6103876D01*
X5059172Y-6078476D02*
G01*
X5022850Y-6078476D01*
X4936997Y-6027422D02*
G01*
X4973320Y-6103876D01*
X4987797Y-6027422D02*
G01*
X4936997Y-6027422D01*
X5280152Y-5519676D02*
G01*
X5280152Y-5596130D01*
X5280152Y-5519676D02*
G01*
X5247386Y-5519676D01*
X5236463Y-5523232D01*
X5232908Y-5527042D01*
X5229352Y-5534154D01*
X5229352Y-5541520D01*
X5232908Y-5548886D01*
X5236463Y-5552442D01*
X5247386Y-5555998D01*
X5280152Y-5555998D01*
X5254752Y-5555998D02*
G01*
X5229352Y-5596130D01*
X5205222Y-5519676D02*
G01*
X5205222Y-5596130D01*
X5205222Y-5519676D02*
G01*
X5157977Y-5519676D01*
X5205222Y-5555998D02*
G01*
X5176265Y-5555998D01*
X5205222Y-5596130D02*
G01*
X5157977Y-5596130D01*
X5083047Y-5530598D02*
G01*
X5090413Y-5523232D01*
X5101336Y-5519676D01*
X5115813Y-5519676D01*
X5126736Y-5523232D01*
X5133847Y-5530598D01*
X5133847Y-5537964D01*
X5130291Y-5545076D01*
X5126736Y-5548886D01*
X5119370Y-5552442D01*
X5097525Y-5559808D01*
X5090413Y-5563364D01*
X5086604Y-5566920D01*
X5083047Y-5574286D01*
X5083047Y-5585208D01*
X5090413Y-5592574D01*
X5101336Y-5596130D01*
X5115813Y-5596130D01*
X5126736Y-5592574D01*
X5133847Y-5585208D01*
X5059172Y-5519676D02*
G01*
X5059172Y-5596130D01*
X5059172Y-5519676D02*
G01*
X5011674Y-5519676D01*
X5059172Y-5555998D02*
G01*
X5029961Y-5555998D01*
X5059172Y-5596130D02*
G01*
X5011674Y-5596130D01*
X4962397Y-5519676D02*
G01*
X4962397Y-5596130D01*
X4987797Y-5519676D02*
G01*
X4936997Y-5519676D01*
D13*
X5650481Y-7793987D02*
G01*
X5507225Y-7848597D01*
X5650481Y-7793987D02*
G01*
X5507225Y-7739631D01*
X5554977Y-7828023D02*
G01*
X5554977Y-7759951D01*
X5602729Y-7694419D02*
G01*
X5507225Y-7694419D01*
X5561835Y-7694419D02*
G01*
X5582155Y-7687815D01*
X5595871Y-7674099D01*
X5602729Y-7660383D01*
X5602729Y-7640063D01*
X5650481Y-7513063D02*
G01*
X5507225Y-7513063D01*
X5582155Y-7513063D02*
G01*
X5595871Y-7526779D01*
X5602729Y-7540495D01*
X5602729Y-7560815D01*
X5595871Y-7574531D01*
X5582155Y-7588247D01*
X5561835Y-7594851D01*
X5548119Y-7594851D01*
X5527799Y-7588247D01*
X5514083Y-7574531D01*
X5507225Y-7560815D01*
X5507225Y-7540495D01*
X5514083Y-7526779D01*
X5527799Y-7513063D01*
X5602729Y-7468105D02*
G01*
X5534657Y-7468105D01*
X5514083Y-7461247D01*
X5507225Y-7447785D01*
X5507225Y-7427211D01*
X5514083Y-7413495D01*
X5534657Y-7393175D01*
X5602729Y-7393175D02*
G01*
X5507225Y-7393175D01*
X5650481Y-7348217D02*
G01*
X5643623Y-7341359D01*
X5650481Y-7334501D01*
X5657339Y-7341359D01*
X5650481Y-7348217D01*
X5602729Y-7341359D02*
G01*
X5507225Y-7341359D01*
X5602729Y-7289543D02*
G01*
X5507225Y-7289543D01*
X5575551Y-7289543D02*
G01*
X5595871Y-7268969D01*
X5602729Y-7255507D01*
X5602729Y-7234933D01*
X5595871Y-7221217D01*
X5575551Y-7214613D01*
X5507225Y-7214613D01*
X5602729Y-7135365D02*
G01*
X5595871Y-7149081D01*
X5582155Y-7162797D01*
X5561835Y-7169401D01*
X5548119Y-7169401D01*
X5527799Y-7162797D01*
X5514083Y-7149081D01*
X5507225Y-7135365D01*
X5507225Y-7115045D01*
X5514083Y-7101329D01*
X5527799Y-7087613D01*
X5548119Y-7080755D01*
X5561835Y-7080755D01*
X5582155Y-7087613D01*
X5595871Y-7101329D01*
X5602729Y-7115045D01*
X5602729Y-7135365D01*
X5650481Y-6930895D02*
G01*
X5507225Y-6930895D01*
X5650481Y-6930895D02*
G01*
X5507225Y-6835391D01*
X5650481Y-6835391D02*
G01*
X5507225Y-6835391D01*
X5602729Y-6708645D02*
G01*
X5507225Y-6708645D01*
X5582155Y-6708645D02*
G01*
X5595871Y-6722361D01*
X5602729Y-6735823D01*
X5602729Y-6756397D01*
X5595871Y-6769859D01*
X5582155Y-6783575D01*
X5561835Y-6790433D01*
X5548119Y-6790433D01*
X5527799Y-6783575D01*
X5514083Y-6769859D01*
X5507225Y-6756397D01*
X5507225Y-6735823D01*
X5514083Y-6722361D01*
X5527799Y-6708645D01*
X5602729Y-6663687D02*
G01*
X5507225Y-6663687D01*
X5575551Y-6663687D02*
G01*
X5595871Y-6643113D01*
X5602729Y-6629397D01*
X5602729Y-6609077D01*
X5595871Y-6595361D01*
X5575551Y-6588503D01*
X5507225Y-6588503D01*
X5602729Y-6509509D02*
G01*
X5595871Y-6523225D01*
X5582155Y-6536687D01*
X5561835Y-6543545D01*
X5548119Y-6543545D01*
X5527799Y-6536687D01*
X5514083Y-6523225D01*
X5507225Y-6509509D01*
X5507225Y-6488935D01*
X5514083Y-6475473D01*
X5527799Y-6461757D01*
X5548119Y-6454899D01*
X5561835Y-6454899D01*
X5582155Y-6461757D01*
X5595871Y-6475473D01*
X5602729Y-6488935D01*
X5602729Y-6509509D01*
X5650481Y-6305039D02*
G01*
X5507225Y-6305039D01*
X5650481Y-6305039D02*
G01*
X5650481Y-6216393D01*
X5582155Y-6305039D02*
G01*
X5582155Y-6250429D01*
X5507225Y-6305039D02*
G01*
X5507225Y-6216393D01*
X5602729Y-6171435D02*
G01*
X5507225Y-6130541D01*
X5602729Y-6089393D02*
G01*
X5507225Y-6130541D01*
X5561835Y-6044435D02*
G01*
X5561835Y-5962647D01*
X5575551Y-5962647D01*
X5589013Y-5969505D01*
X5595871Y-5976363D01*
X5602729Y-5990079D01*
X5602729Y-6010399D01*
X5595871Y-6024115D01*
X5582155Y-6037577D01*
X5561835Y-6044435D01*
X5548119Y-6044435D01*
X5527799Y-6037577D01*
X5514083Y-6024115D01*
X5507225Y-6010399D01*
X5507225Y-5990079D01*
X5514083Y-5976363D01*
X5527799Y-5962647D01*
X5602729Y-5917689D02*
G01*
X5507225Y-5917689D01*
X5561835Y-5917689D02*
G01*
X5582155Y-5910831D01*
X5595871Y-5897115D01*
X5602729Y-5883653D01*
X5602729Y-5863079D01*
X5602729Y-5811263D02*
G01*
X5507225Y-5770369D01*
X5602729Y-5729475D02*
G01*
X5507225Y-5770369D01*
X5480047Y-5784085D01*
X5466331Y-5797801D01*
X5459473Y-5811263D01*
X5459473Y-5818121D01*
D10*
X1181100Y-5804915D02*
G01*
X1181100Y-5726937D01*
X1186179Y-5711444D01*
X1196594Y-5701029D01*
X1212342Y-5695950D01*
X1222755Y-5695950D01*
X1238250Y-5701029D01*
X1248663Y-5711444D01*
X1253744Y-5726937D01*
X1253744Y-5804915D01*
X1350518Y-5789421D02*
G01*
X1345184Y-5799836D01*
X1329689Y-5804915D01*
X1319276Y-5804915D01*
X1303781Y-5799836D01*
X1293368Y-5784087D01*
X1288034Y-5758179D01*
X1288034Y-5732271D01*
X1293368Y-5711444D01*
X1303781Y-5701029D01*
X1319276Y-5695950D01*
X1324610Y-5695950D01*
X1340104Y-5701029D01*
X1350518Y-5711444D01*
X1355597Y-5726937D01*
X1355597Y-5732271D01*
X1350518Y-5747765D01*
X1340104Y-5758179D01*
X1324610Y-5763260D01*
X1319276Y-5763260D01*
X1303781Y-5758179D01*
X1293368Y-5747765D01*
X1288034Y-5732271D01*
X608139Y-5667519D02*
G01*
X608139Y-5526519D01*
X788860Y-5526519D02*
G01*
X788860Y-5667519D01*
X773620Y-5682759D02*
G01*
X623379Y-5682759D01*
X608139Y-5305280D02*
G01*
X608139Y-5446280D01*
X788860Y-5446280D02*
G01*
X788860Y-5305280D01*
X773620Y-5290040D02*
G01*
X623379Y-5290040D01*
X3160839Y-5515119D02*
G01*
X3160839Y-5374119D01*
X3341560Y-5374119D02*
G01*
X3341560Y-5515119D01*
X3326320Y-5530359D02*
G01*
X3176079Y-5530359D01*
X3160839Y-5152880D02*
G01*
X3160839Y-5293880D01*
X3341560Y-5293880D02*
G01*
X3341560Y-5152880D01*
X3326320Y-5137640D02*
G01*
X3176079Y-5137640D01*
X608139Y-5235719D02*
G01*
X608139Y-5094719D01*
X788860Y-5094719D02*
G01*
X788860Y-5235719D01*
X773620Y-5250959D02*
G01*
X623379Y-5250959D01*
X608139Y-4873480D02*
G01*
X608139Y-5014480D01*
X788860Y-5014480D02*
G01*
X788860Y-4873480D01*
X773620Y-4858240D02*
G01*
X623379Y-4858240D01*
X3173539Y-5946919D02*
G01*
X3173539Y-5805919D01*
X3354260Y-5805919D02*
G01*
X3354260Y-5946919D01*
X3339020Y-5962159D02*
G01*
X3188779Y-5962159D01*
X3173539Y-5584680D02*
G01*
X3173539Y-5725680D01*
X3354260Y-5725680D02*
G01*
X3354260Y-5584680D01*
X3339020Y-5569440D02*
G01*
X3188779Y-5569440D01*
X3388479Y-5347360D02*
G01*
X3388479Y-5701639D01*
X4053720Y-5701639D01*
X4053720Y-5347360D01*
X3388479Y-5347360D01*
D14*
X-8001Y-2264689D02*
G01*
X-8001Y-4364685D01*
X5091988Y-4364685D01*
X5091988Y-2264689D01*
X-8001Y-2264689D01*
X-137998Y-2914700D02*
G01*
X-137998Y-3714699D01*
X412013Y-3714699D01*
X412013Y-2914700D01*
X-137998Y-2914700D01*
X5956300Y-9245594D02*
G01*
X5956300Y-9372594D01*
X5194300Y-9372594D01*
X5194300Y-9245594D01*
X5067300Y-8991594D02*
G01*
X5194300Y-8991594D01*
X6083300Y-8991594D02*
G01*
X5956300Y-8991594D01*
X5956300Y-8993898D01*
X6083300Y-4673605D02*
G01*
X5067300Y-4673605D01*
X6464300Y-4673600D02*
G01*
X6337297Y-4673600D01*
X6337297Y-4673605D01*
X4686300Y-4673600D02*
G01*
X4686302Y-4673600D01*
X4686302Y-4800605D01*
X4686300Y-8991600D02*
G01*
X4813302Y-8991600D01*
X4813302Y-8991594D01*
X6464297Y-8991594D02*
G01*
X6337297Y-8991600D01*
X4813302Y-4673600D02*
G01*
X4686300Y-4673600D01*
X6464300Y-4800605D02*
G01*
X6464300Y-4673600D01*
X6464300Y-8864594D02*
G01*
X6464300Y-8991600D01*
X4686300Y-8864594D02*
G01*
X4686300Y-8991600D01*
D10*
X873879Y-5080660D02*
G01*
X873879Y-5434939D01*
X1539120Y-5434939D01*
X1539120Y-5080660D01*
X873879Y-5080660D01*
G75*
G01*
X788860Y-5667520D02*
G02*
X773620Y-5682760I-15240J0D01*
G75*
G01*
X623380Y-5682760D02*
G02*
X608140Y-5667520I0J15240D01*
G75*
G01*
X788860Y-5305280D02*
G03*
X773620Y-5290040I-15240J0D01*
G75*
G01*
X623380Y-5290040D02*
G03*
X608140Y-5305280I0J-15240D01*
G75*
G01*
X3341560Y-5515120D02*
G02*
X3326321Y-5530360I-15240J0D01*
G75*
G01*
X3176079Y-5530360D02*
G02*
X3160840Y-5515120I1J15240D01*
G75*
G01*
X3341560Y-5152880D02*
G03*
X3326321Y-5137640I-15240J0D01*
G75*
G01*
X3176079Y-5137640D02*
G03*
X3160840Y-5152880I1J-15240D01*
G75*
G01*
X788860Y-5235720D02*
G02*
X773620Y-5250960I-15240J0D01*
G75*
G01*
X623380Y-5250960D02*
G02*
X608140Y-5235720I0J15240D01*
G75*
G01*
X788860Y-4873480D02*
G03*
X773620Y-4858240I-15240J0D01*
G75*
G01*
X623380Y-4858240D02*
G03*
X608140Y-4873480I0J-15240D01*
G75*
G01*
X3354260Y-5946920D02*
G02*
X3339021Y-5962160I-15240J0D01*
G75*
G01*
X3188779Y-5962160D02*
G02*
X3173540Y-5946920I1J15240D01*
G75*
G01*
X3354260Y-5584680D02*
G03*
X3339021Y-5569440I-15240J0D01*
G75*
G01*
X3188779Y-5569440D02*
G03*
X3173540Y-5584680I1J-15240D01*
D13*
G75*
G01
X3443605Y-5422595D02*
G03X3443605Y-5422595I-15011J0D01*
G75*
G01
X3380181Y-5237404D02*
G03X3380181Y-5237404I-15011J0D01*
G75*
G01
X929005Y-5155895D02*
G03X929005Y-5155895I-15011J0D01*
G75*
G01
X865581Y-4970704D02*
G03X865581Y-4970704I-15011J0D01*
M02*
