G04 Layer: BottomPasteMaskLayer*
G04 EasyEDA v6.5.48, 2025-01-21 22:01:40*
G04 ce5bcd5d7360488599399ea35ca3f730,208856bd7ad64deca1bfdec547b981c7,10*
G04 Gerber Generator version 0.2*
G04 Scale: 100 percent, Rotated: No, Reflected: No *
G04 Dimensions in millimeters *
G04 leading zeros omitted , absolute positions ,4 integer and 5 decimal *
%FSLAX45Y45*%
%MOMM*%

%AMMACRO1*4,1,5,1.016,-0.762,1.016,0.762,-0.762,0.762,-1.016,0.762,-1.016,-0.762,1.016,-0.762,0*%
%ADD10O,0.36400740000000004X1.7420082*%
%ADD11O,2.54X1.524*%
%ADD12O,1.524X2.54*%
%ADD13MACRO1*%

%LPD*%
G36*
X634492Y-5315915D02*
G01*
X629513Y-5320893D01*
X629513Y-5435904D01*
X634492Y-5440883D01*
X675487Y-5441391D01*
X675487Y-5396382D01*
X720496Y-5396382D01*
X720496Y-5440426D01*
X762508Y-5440883D01*
X767486Y-5435904D01*
X767486Y-5320893D01*
X762508Y-5315915D01*
G37*
G36*
X721512Y-5531408D02*
G01*
X721512Y-5576417D01*
X676503Y-5576417D01*
X676503Y-5532374D01*
X634492Y-5531916D01*
X629513Y-5536895D01*
X629513Y-5651906D01*
X634492Y-5656884D01*
X762508Y-5656884D01*
X767486Y-5651906D01*
X767486Y-5536895D01*
X762508Y-5531916D01*
G37*
G36*
X3187192Y-5163515D02*
G01*
X3182213Y-5168493D01*
X3182213Y-5283504D01*
X3187192Y-5288483D01*
X3228187Y-5288991D01*
X3228187Y-5243982D01*
X3273196Y-5243982D01*
X3273196Y-5288026D01*
X3315208Y-5288483D01*
X3320186Y-5283504D01*
X3320186Y-5168493D01*
X3315208Y-5163515D01*
G37*
G36*
X3274212Y-5379008D02*
G01*
X3274212Y-5424017D01*
X3229203Y-5424017D01*
X3229203Y-5379974D01*
X3187192Y-5379516D01*
X3182213Y-5384495D01*
X3182213Y-5499506D01*
X3187192Y-5504484D01*
X3315208Y-5504484D01*
X3320186Y-5499506D01*
X3320186Y-5384495D01*
X3315208Y-5379516D01*
G37*
G36*
X634492Y-4884115D02*
G01*
X629513Y-4889093D01*
X629513Y-5004104D01*
X634492Y-5009083D01*
X675487Y-5009591D01*
X675487Y-4964582D01*
X720496Y-4964582D01*
X720496Y-5008626D01*
X762508Y-5009083D01*
X767486Y-5004104D01*
X767486Y-4889093D01*
X762508Y-4884115D01*
G37*
G36*
X721512Y-5099608D02*
G01*
X721512Y-5144617D01*
X676503Y-5144617D01*
X676503Y-5100574D01*
X634492Y-5100116D01*
X629513Y-5105095D01*
X629513Y-5220106D01*
X634492Y-5225084D01*
X762508Y-5225084D01*
X767486Y-5220106D01*
X767486Y-5105095D01*
X762508Y-5100116D01*
G37*
G36*
X3199892Y-5595315D02*
G01*
X3194913Y-5600293D01*
X3194913Y-5715304D01*
X3199892Y-5720283D01*
X3240887Y-5720791D01*
X3240887Y-5675782D01*
X3285896Y-5675782D01*
X3285896Y-5719826D01*
X3327908Y-5720283D01*
X3332886Y-5715304D01*
X3332886Y-5600293D01*
X3327908Y-5595315D01*
G37*
G36*
X3286912Y-5810808D02*
G01*
X3286912Y-5855817D01*
X3241903Y-5855817D01*
X3241903Y-5811774D01*
X3199892Y-5811316D01*
X3194913Y-5816295D01*
X3194913Y-5931306D01*
X3199892Y-5936284D01*
X3327908Y-5936284D01*
X3332886Y-5931306D01*
X3332886Y-5816295D01*
X3327908Y-5811316D01*
G37*
D10*
G01*
X3428593Y-5237403D03*
G01*
X3493592Y-5237403D03*
G01*
X3558590Y-5237403D03*
G01*
X3623589Y-5237403D03*
G01*
X3688613Y-5237403D03*
G01*
X3753611Y-5237403D03*
G01*
X3818610Y-5237403D03*
G01*
X3883609Y-5237403D03*
G01*
X3948607Y-5237403D03*
G01*
X4013606Y-5237403D03*
G01*
X3428593Y-5811596D03*
G01*
X3493592Y-5811596D03*
G01*
X3558590Y-5811596D03*
G01*
X3623589Y-5811596D03*
G01*
X3688613Y-5811596D03*
G01*
X3753611Y-5811596D03*
G01*
X3818610Y-5811596D03*
G01*
X3883609Y-5811596D03*
G01*
X3948607Y-5811596D03*
G01*
X4013606Y-5811596D03*
D11*
G01*
X5105400Y-3568700D03*
D12*
G01*
X127000Y-2264689D03*
G01*
X381000Y-2264689D03*
G01*
X635000Y-2264689D03*
G01*
X889000Y-2264689D03*
G01*
X1143000Y-2264689D03*
G01*
X1397000Y-2264689D03*
G01*
X1651000Y-2264689D03*
G01*
X1905000Y-2264689D03*
G01*
X2159000Y-2264689D03*
G01*
X2413000Y-2264689D03*
G01*
X2667000Y-2264689D03*
G01*
X2921000Y-2264689D03*
G01*
X3175000Y-2264689D03*
G01*
X3429000Y-2264689D03*
G01*
X3683000Y-2264689D03*
G01*
X3937000Y-2264689D03*
G01*
X4191000Y-2264689D03*
G01*
X4445000Y-2264689D03*
G01*
X4699000Y-2264689D03*
G01*
X4953000Y-2264689D03*
G01*
X4953000Y-4364710D03*
G01*
X4699000Y-4364710D03*
G01*
X4445000Y-4364710D03*
G01*
X4191000Y-4364710D03*
G01*
X3937000Y-4364710D03*
G01*
X3683000Y-4364710D03*
G01*
X3429000Y-4364710D03*
G01*
X3175000Y-4364710D03*
G01*
X2921000Y-4364710D03*
G01*
X2667000Y-4364710D03*
G01*
X2413000Y-4364710D03*
G01*
X2159000Y-4364710D03*
G01*
X1905000Y-4364710D03*
G01*
X1651000Y-4364710D03*
G01*
X1397000Y-4364710D03*
G01*
X1143000Y-4364710D03*
G01*
X889000Y-4364710D03*
G01*
X635000Y-4364710D03*
G01*
X381000Y-4364710D03*
G01*
X127000Y-4364710D03*
D11*
G01*
X5105400Y-3060700D03*
G01*
X5105400Y-3314700D03*
D13*
G01*
X4660900Y-5054600D03*
G01*
X4660900Y-5308600D03*
G01*
X4660900Y-5562600D03*
G01*
X4660900Y-5816600D03*
G01*
X4660900Y-6070600D03*
G01*
X4660900Y-6324600D03*
G01*
X4660900Y-6578600D03*
G01*
X4660900Y-6832600D03*
G01*
X4660900Y-7086600D03*
G01*
X4660900Y-7340600D03*
G01*
X4660900Y-7594600D03*
G01*
X4660900Y-7848600D03*
G01*
X4660900Y-8102600D03*
G01*
X4660900Y-8356600D03*
G01*
X4660900Y-8610600D03*
G01*
X6489700Y-8610600D03*
G01*
X6489700Y-8356600D03*
G01*
X6489700Y-8102600D03*
G01*
X6489700Y-7848600D03*
G01*
X6489700Y-7594600D03*
G01*
X6489700Y-7340600D03*
G01*
X6489700Y-7086600D03*
G01*
X6489700Y-6832600D03*
G01*
X6489700Y-6578600D03*
G01*
X6489700Y-6324600D03*
G01*
X6489700Y-6070600D03*
G01*
X6489700Y-5816600D03*
G01*
X6489700Y-5562600D03*
G01*
X6489700Y-5308600D03*
G01*
X6489700Y-5054600D03*
D10*
G01*
X913993Y-4970703D03*
G01*
X978992Y-4970703D03*
G01*
X1043990Y-4970703D03*
G01*
X1108989Y-4970703D03*
G01*
X1174013Y-4970703D03*
G01*
X1239012Y-4970703D03*
G01*
X1304010Y-4970703D03*
G01*
X1369009Y-4970703D03*
G01*
X1434007Y-4970703D03*
G01*
X1499006Y-4970703D03*
G01*
X913993Y-5544896D03*
G01*
X978992Y-5544896D03*
G01*
X1043990Y-5544896D03*
G01*
X1108989Y-5544896D03*
G01*
X1174013Y-5544896D03*
G01*
X1239012Y-5544896D03*
G01*
X1304010Y-5544896D03*
G01*
X1369009Y-5544896D03*
G01*
X1434007Y-5544896D03*
G01*
X1499006Y-5544896D03*
M02*
