G04 Layer: TopPasteMaskLayer*
G04 EasyEDA v6.5.48, 2025-01-21 22:01:40*
G04 ce5bcd5d7360488599399ea35ca3f730,208856bd7ad64deca1bfdec547b981c7,10*
G04 Gerber Generator version 0.2*
G04 Scale: 100 percent, Rotated: No, Reflected: No *
G04 Dimensions in millimeters *
G04 leading zeros omitted , absolute positions ,4 integer and 5 decimal *
%FSLAX45Y45*%
%MOMM*%

%AMMACRO1*21,1,$1,$2,0,0,$3*%
%ADD10R,0.8000X0.9000*%
%ADD11R,1.6000X5.0000*%
%ADD12R,1.6500X4.5000*%
%ADD13R,1.8200X1.8200*%
%ADD14MACRO1,4.62X2.224X90.0000*%
%ADD15O,0.6020054X1.9409918000000002*%
%ADD16R,3.0980X2.4100*%
%ADD17MACRO1,1.26X3.61X0.0000*%
%ADD18MACRO1,1.02X3.0828X0.0000*%
%ADD19R,11.0000X8.5000*%

%LPD*%
G36*
X8139226Y-2027174D02*
G01*
X8129219Y-2037181D01*
X8129219Y-2362809D01*
X8139226Y-2372817D01*
X8247481Y-2372817D01*
X8257489Y-2362809D01*
X8257489Y-2268728D01*
X8247481Y-2258771D01*
X8223859Y-2258771D01*
X8213902Y-2248763D01*
X8213902Y-2151227D01*
X8223859Y-2141220D01*
X8247481Y-2141220D01*
X8257489Y-2131263D01*
X8257489Y-2037181D01*
X8247481Y-2027174D01*
G37*
G36*
X8752484Y-2027174D02*
G01*
X8742476Y-2037181D01*
X8742476Y-2131263D01*
X8752484Y-2141220D01*
X8776106Y-2141220D01*
X8786063Y-2151227D01*
X8786063Y-2248763D01*
X8776106Y-2258771D01*
X8752484Y-2258771D01*
X8742476Y-2268728D01*
X8742476Y-2362809D01*
X8752484Y-2372817D01*
X8860739Y-2372817D01*
X8870746Y-2362809D01*
X8870746Y-2037181D01*
X8860739Y-2027174D01*
G37*
G36*
X8752484Y-5027168D02*
G01*
X8742476Y-5037175D01*
X8742476Y-5131257D01*
X8752484Y-5141214D01*
X8776106Y-5141214D01*
X8786063Y-5151221D01*
X8786063Y-5248757D01*
X8776106Y-5258765D01*
X8752484Y-5258765D01*
X8742476Y-5268722D01*
X8742476Y-5362803D01*
X8752484Y-5372811D01*
X8860739Y-5372811D01*
X8870746Y-5362803D01*
X8870746Y-5037175D01*
X8860739Y-5027168D01*
G37*
G36*
X8139226Y-5027168D02*
G01*
X8129219Y-5037175D01*
X8129219Y-5362803D01*
X8139226Y-5372811D01*
X8247481Y-5372811D01*
X8257489Y-5362803D01*
X8257489Y-5268722D01*
X8247481Y-5258765D01*
X8223859Y-5258765D01*
X8213902Y-5248757D01*
X8213902Y-5151221D01*
X8223859Y-5141214D01*
X8247481Y-5141214D01*
X8257489Y-5131257D01*
X8257489Y-5037175D01*
X8247481Y-5027168D01*
G37*
D10*
G01*
X7309002Y-5715000D03*
G01*
X7168997Y-5715000D03*
G01*
X7309002Y-2717800D03*
G01*
X7168997Y-2717800D03*
D11*
G01*
X4381500Y-5046090D03*
G01*
X4381500Y-6206109D03*
G01*
X4191000Y-2028215D03*
G01*
X4191000Y-3188207D03*
D12*
G01*
X1981200Y-4591913D03*
G01*
X1981200Y-5491886D03*
G01*
X1930400Y-1129512D03*
G01*
X1930400Y-2029510D03*
D13*
G01*
X3564204Y-4851400D03*
G01*
X3192195Y-4851400D03*
G01*
X3449904Y-1655724D03*
G01*
X3077895Y-1655724D03*
D14*
G01*
X3192699Y-4419600D03*
G01*
X2827100Y-4419600D03*
G01*
X3052999Y-1223909D03*
G01*
X2687400Y-1223909D03*
D15*
G01*
X7690484Y-4927930D03*
G01*
X7563484Y-4927930D03*
G01*
X7436484Y-4927930D03*
G01*
X7309484Y-4927930D03*
G01*
X7690484Y-5472048D03*
G01*
X7563484Y-5472048D03*
G01*
X7436484Y-5472048D03*
G01*
X7309484Y-5472048D03*
D16*
G01*
X7499984Y-5199989D03*
D15*
G01*
X7690484Y-1927936D03*
G01*
X7563484Y-1927936D03*
G01*
X7436484Y-1927936D03*
G01*
X7309484Y-1927936D03*
G01*
X7690484Y-2472054D03*
G01*
X7563484Y-2472054D03*
G01*
X7436484Y-2472054D03*
G01*
X7309484Y-2472054D03*
D16*
G01*
X7499984Y-2199995D03*
D17*
G01*
X6699994Y-2529502D03*
G01*
X6699994Y-1870504D03*
G01*
X6699994Y-5529496D03*
G01*
X6699994Y-4870498D03*
D18*
G01*
X3349900Y-5237102D03*
G01*
X3179899Y-5237102D03*
G01*
X3009900Y-5237102D03*
G01*
X2839900Y-5237102D03*
G01*
X2669899Y-5237102D03*
D19*
G01*
X3009900Y-6269075D03*
D18*
G01*
X3235600Y-1990611D03*
G01*
X3065599Y-1990611D03*
G01*
X2895600Y-1990611D03*
G01*
X2725600Y-1990611D03*
G01*
X2555599Y-1990611D03*
D19*
G01*
X2895600Y-3022600D03*
M02*
