G04 Layer: BottomSolderMaskLayer*
G04 EasyEDA v6.5.48, 2025-01-21 22:01:40*
G04 ce5bcd5d7360488599399ea35ca3f730,208856bd7ad64deca1bfdec547b981c7,10*
G04 Gerber Generator version 0.2*
G04 Scale: 100 percent, Rotated: No, Reflected: No *
G04 Dimensions in millimeters *
G04 leading zeros omitted , absolute positions ,4 integer and 5 decimal *
%FSLAX45Y45*%
%MOMM*%

%AMMACRO1*4,1,8,-0.6961,-0.7558,-0.7258,-0.726,-0.7258,0.7261,-0.6961,0.7558,0.696,0.7558,0.7258,0.7261,0.7258,-0.726,0.696,-0.7558,-0.6961,-0.7558,0*%
%AMMACRO2*4,1,8,-0.8085,-0.8382,-0.8382,-0.8084,-0.8382,0.8085,-0.8085,0.8382,0.8084,0.8382,0.8382,0.8085,0.8382,-0.8084,0.8084,-0.8382,-0.8085,-0.8382,0*%
%AMMACRO3*4,1,8,-0.7831,-0.8128,-0.8128,-0.783,-0.8128,0.7831,-0.7831,0.8128,0.783,0.8128,0.8128,0.7831,0.8128,-0.783,0.783,-0.8128,-0.7831,-0.8128,0*%
%ADD10MACRO1*%
%ADD11O,0.4656074X1.8436082*%
%ADD12O,2.6416X1.6256000000000002*%
%ADD13O,1.6256000000000002X2.6416*%
%ADD14O,1.3000228X2.3000208*%
%ADD15C,3.9000*%
%ADD16MACRO2*%
%ADD17C,1.6764*%
%ADD18MACRO3*%
%ADD19C,1.6256*%
%ADD20C,2.1016*%
%ADD21C,0.0104*%

%LPD*%
D10*
G01*
X698500Y-5586402D03*
G01*
X698500Y-5386397D03*
G01*
X3251200Y-5434002D03*
G01*
X3251200Y-5233997D03*
G01*
X698500Y-5154602D03*
G01*
X698500Y-4954597D03*
G01*
X3263900Y-5865802D03*
G01*
X3263900Y-5665797D03*
D11*
G01*
X3428593Y-5237403D03*
G01*
X3493592Y-5237403D03*
G01*
X3558590Y-5237403D03*
G01*
X3623589Y-5237403D03*
G01*
X3688613Y-5237403D03*
G01*
X3753611Y-5237403D03*
G01*
X3818610Y-5237403D03*
G01*
X3883609Y-5237403D03*
G01*
X3948607Y-5237403D03*
G01*
X4013606Y-5237403D03*
G01*
X3428593Y-5811596D03*
G01*
X3493592Y-5811596D03*
G01*
X3558590Y-5811596D03*
G01*
X3623589Y-5811596D03*
G01*
X3688613Y-5811596D03*
G01*
X3753611Y-5811596D03*
G01*
X3818610Y-5811596D03*
G01*
X3883609Y-5811596D03*
G01*
X3948607Y-5811596D03*
G01*
X4013606Y-5811596D03*
D12*
G01*
X5105400Y-3568700D03*
D13*
G01*
X127000Y-2264689D03*
G01*
X381000Y-2264689D03*
G01*
X635000Y-2264689D03*
G01*
X889000Y-2264689D03*
G01*
X1143000Y-2264689D03*
G01*
X1397000Y-2264689D03*
G01*
X1651000Y-2264689D03*
G01*
X1905000Y-2264689D03*
G01*
X2159000Y-2264689D03*
G01*
X2413000Y-2264689D03*
G01*
X2667000Y-2264689D03*
G01*
X2921000Y-2264689D03*
G01*
X3175000Y-2264689D03*
G01*
X3429000Y-2264689D03*
G01*
X3683000Y-2264689D03*
G01*
X3937000Y-2264689D03*
G01*
X4191000Y-2264689D03*
G01*
X4445000Y-2264689D03*
G01*
X4699000Y-2264689D03*
G01*
X4953000Y-2264689D03*
G01*
X4953000Y-4364710D03*
G01*
X4699000Y-4364710D03*
G01*
X4445000Y-4364710D03*
G01*
X4191000Y-4364710D03*
G01*
X3937000Y-4364710D03*
G01*
X3683000Y-4364710D03*
G01*
X3429000Y-4364710D03*
G01*
X3175000Y-4364710D03*
G01*
X2921000Y-4364710D03*
G01*
X2667000Y-4364710D03*
G01*
X2413000Y-4364710D03*
G01*
X2159000Y-4364710D03*
G01*
X1905000Y-4364710D03*
G01*
X1651000Y-4364710D03*
G01*
X1397000Y-4364710D03*
G01*
X1143000Y-4364710D03*
G01*
X889000Y-4364710D03*
G01*
X635000Y-4364710D03*
G01*
X381000Y-4364710D03*
G01*
X127000Y-4364710D03*
D12*
G01*
X5105400Y-3060700D03*
G01*
X5105400Y-3314700D03*
G36*
X4559300Y-5135879D02*
G01*
X4558802Y-5135854D01*
X4558309Y-5135783D01*
X4557824Y-5135661D01*
X4557356Y-5135493D01*
X4556904Y-5135280D01*
X4556478Y-5135024D01*
X4556076Y-5134726D01*
X4555708Y-5134391D01*
X4555373Y-5134023D01*
X4555075Y-5133621D01*
X4554819Y-5133195D01*
X4554606Y-5132743D01*
X4554438Y-5132275D01*
X4554316Y-5131790D01*
X4554245Y-5131297D01*
X4554220Y-5130800D01*
X4554220Y-4978400D01*
X4554245Y-4977902D01*
X4554316Y-4977409D01*
X4554438Y-4976924D01*
X4554606Y-4976456D01*
X4554819Y-4976004D01*
X4555075Y-4975578D01*
X4555373Y-4975176D01*
X4555708Y-4974808D01*
X4556076Y-4974473D01*
X4556478Y-4974175D01*
X4556904Y-4973919D01*
X4557356Y-4973706D01*
X4557824Y-4973538D01*
X4558309Y-4973416D01*
X4558802Y-4973345D01*
X4559300Y-4973320D01*
X4762500Y-4973320D01*
X4762997Y-4973345D01*
X4763490Y-4973416D01*
X4763975Y-4973538D01*
X4764443Y-4973706D01*
X4764895Y-4973919D01*
X4765321Y-4974175D01*
X4765723Y-4974473D01*
X4766091Y-4974808D01*
X4766426Y-4975176D01*
X4766724Y-4975578D01*
X4766980Y-4976004D01*
X4767193Y-4976456D01*
X4767361Y-4976924D01*
X4767483Y-4977409D01*
X4767554Y-4977902D01*
X4767579Y-4978400D01*
X4767579Y-5130800D01*
X4767554Y-5131297D01*
X4767483Y-5131790D01*
X4767361Y-5132275D01*
X4767193Y-5132743D01*
X4766980Y-5133195D01*
X4766724Y-5133621D01*
X4766426Y-5134023D01*
X4766091Y-5134391D01*
X4765723Y-5134726D01*
X4765321Y-5135024D01*
X4764895Y-5135280D01*
X4764443Y-5135493D01*
X4763975Y-5135661D01*
X4763490Y-5135783D01*
X4762997Y-5135854D01*
X4762500Y-5135879D01*
G37*
G36*
X4559300Y-5389879D02*
G01*
X4558802Y-5389854D01*
X4558309Y-5389783D01*
X4557824Y-5389661D01*
X4557356Y-5389493D01*
X4556904Y-5389280D01*
X4556478Y-5389024D01*
X4556076Y-5388726D01*
X4555708Y-5388391D01*
X4555373Y-5388023D01*
X4555075Y-5387621D01*
X4554819Y-5387195D01*
X4554606Y-5386743D01*
X4554438Y-5386275D01*
X4554316Y-5385790D01*
X4554245Y-5385297D01*
X4554220Y-5384800D01*
X4554220Y-5232400D01*
X4554245Y-5231902D01*
X4554316Y-5231409D01*
X4554438Y-5230924D01*
X4554606Y-5230456D01*
X4554819Y-5230004D01*
X4555075Y-5229578D01*
X4555373Y-5229176D01*
X4555708Y-5228808D01*
X4556076Y-5228473D01*
X4556478Y-5228175D01*
X4556904Y-5227919D01*
X4557356Y-5227706D01*
X4557824Y-5227538D01*
X4558309Y-5227416D01*
X4558802Y-5227345D01*
X4559300Y-5227320D01*
X4762500Y-5227320D01*
X4762997Y-5227345D01*
X4763490Y-5227416D01*
X4763975Y-5227538D01*
X4764443Y-5227706D01*
X4764895Y-5227919D01*
X4765321Y-5228175D01*
X4765723Y-5228473D01*
X4766091Y-5228808D01*
X4766426Y-5229176D01*
X4766724Y-5229578D01*
X4766980Y-5230004D01*
X4767193Y-5230456D01*
X4767361Y-5230924D01*
X4767483Y-5231409D01*
X4767554Y-5231902D01*
X4767579Y-5232400D01*
X4767579Y-5384800D01*
X4767554Y-5385297D01*
X4767483Y-5385790D01*
X4767361Y-5386275D01*
X4767193Y-5386743D01*
X4766980Y-5387195D01*
X4766724Y-5387621D01*
X4766426Y-5388023D01*
X4766091Y-5388391D01*
X4765723Y-5388726D01*
X4765321Y-5389024D01*
X4764895Y-5389280D01*
X4764443Y-5389493D01*
X4763975Y-5389661D01*
X4763490Y-5389783D01*
X4762997Y-5389854D01*
X4762500Y-5389879D01*
G37*
G36*
X4559300Y-5643879D02*
G01*
X4558802Y-5643854D01*
X4558309Y-5643783D01*
X4557824Y-5643661D01*
X4557356Y-5643493D01*
X4556904Y-5643280D01*
X4556478Y-5643024D01*
X4556076Y-5642726D01*
X4555708Y-5642391D01*
X4555373Y-5642023D01*
X4555075Y-5641621D01*
X4554819Y-5641195D01*
X4554606Y-5640743D01*
X4554438Y-5640275D01*
X4554316Y-5639790D01*
X4554245Y-5639297D01*
X4554220Y-5638800D01*
X4554220Y-5486400D01*
X4554245Y-5485902D01*
X4554316Y-5485409D01*
X4554438Y-5484924D01*
X4554606Y-5484456D01*
X4554819Y-5484004D01*
X4555075Y-5483578D01*
X4555373Y-5483176D01*
X4555708Y-5482808D01*
X4556076Y-5482473D01*
X4556478Y-5482175D01*
X4556904Y-5481919D01*
X4557356Y-5481706D01*
X4557824Y-5481538D01*
X4558309Y-5481416D01*
X4558802Y-5481345D01*
X4559300Y-5481320D01*
X4762500Y-5481320D01*
X4762997Y-5481345D01*
X4763490Y-5481416D01*
X4763975Y-5481538D01*
X4764443Y-5481706D01*
X4764895Y-5481919D01*
X4765321Y-5482175D01*
X4765723Y-5482473D01*
X4766091Y-5482808D01*
X4766426Y-5483176D01*
X4766724Y-5483578D01*
X4766980Y-5484004D01*
X4767193Y-5484456D01*
X4767361Y-5484924D01*
X4767483Y-5485409D01*
X4767554Y-5485902D01*
X4767579Y-5486400D01*
X4767579Y-5638800D01*
X4767554Y-5639297D01*
X4767483Y-5639790D01*
X4767361Y-5640275D01*
X4767193Y-5640743D01*
X4766980Y-5641195D01*
X4766724Y-5641621D01*
X4766426Y-5642023D01*
X4766091Y-5642391D01*
X4765723Y-5642726D01*
X4765321Y-5643024D01*
X4764895Y-5643280D01*
X4764443Y-5643493D01*
X4763975Y-5643661D01*
X4763490Y-5643783D01*
X4762997Y-5643854D01*
X4762500Y-5643879D01*
G37*
G36*
X4559300Y-5897879D02*
G01*
X4558802Y-5897854D01*
X4558309Y-5897783D01*
X4557824Y-5897661D01*
X4557356Y-5897493D01*
X4556904Y-5897280D01*
X4556478Y-5897024D01*
X4556076Y-5896726D01*
X4555708Y-5896391D01*
X4555373Y-5896023D01*
X4555075Y-5895621D01*
X4554819Y-5895195D01*
X4554606Y-5894743D01*
X4554438Y-5894275D01*
X4554316Y-5893790D01*
X4554245Y-5893297D01*
X4554220Y-5892800D01*
X4554220Y-5740400D01*
X4554245Y-5739902D01*
X4554316Y-5739409D01*
X4554438Y-5738924D01*
X4554606Y-5738456D01*
X4554819Y-5738004D01*
X4555075Y-5737578D01*
X4555373Y-5737176D01*
X4555708Y-5736808D01*
X4556076Y-5736473D01*
X4556478Y-5736175D01*
X4556904Y-5735919D01*
X4557356Y-5735706D01*
X4557824Y-5735538D01*
X4558309Y-5735416D01*
X4558802Y-5735345D01*
X4559300Y-5735320D01*
X4762500Y-5735320D01*
X4762997Y-5735345D01*
X4763490Y-5735416D01*
X4763975Y-5735538D01*
X4764443Y-5735706D01*
X4764895Y-5735919D01*
X4765321Y-5736175D01*
X4765723Y-5736473D01*
X4766091Y-5736808D01*
X4766426Y-5737176D01*
X4766724Y-5737578D01*
X4766980Y-5738004D01*
X4767193Y-5738456D01*
X4767361Y-5738924D01*
X4767483Y-5739409D01*
X4767554Y-5739902D01*
X4767579Y-5740400D01*
X4767579Y-5892800D01*
X4767554Y-5893297D01*
X4767483Y-5893790D01*
X4767361Y-5894275D01*
X4767193Y-5894743D01*
X4766980Y-5895195D01*
X4766724Y-5895621D01*
X4766426Y-5896023D01*
X4766091Y-5896391D01*
X4765723Y-5896726D01*
X4765321Y-5897024D01*
X4764895Y-5897280D01*
X4764443Y-5897493D01*
X4763975Y-5897661D01*
X4763490Y-5897783D01*
X4762997Y-5897854D01*
X4762500Y-5897879D01*
G37*
G36*
X4559300Y-6151879D02*
G01*
X4558802Y-6151854D01*
X4558309Y-6151783D01*
X4557824Y-6151661D01*
X4557356Y-6151493D01*
X4556904Y-6151280D01*
X4556478Y-6151024D01*
X4556076Y-6150726D01*
X4555708Y-6150391D01*
X4555373Y-6150023D01*
X4555075Y-6149621D01*
X4554819Y-6149195D01*
X4554606Y-6148743D01*
X4554438Y-6148275D01*
X4554316Y-6147790D01*
X4554245Y-6147297D01*
X4554220Y-6146800D01*
X4554220Y-5994400D01*
X4554245Y-5993902D01*
X4554316Y-5993409D01*
X4554438Y-5992924D01*
X4554606Y-5992456D01*
X4554819Y-5992004D01*
X4555075Y-5991578D01*
X4555373Y-5991176D01*
X4555708Y-5990808D01*
X4556076Y-5990473D01*
X4556478Y-5990175D01*
X4556904Y-5989919D01*
X4557356Y-5989706D01*
X4557824Y-5989538D01*
X4558309Y-5989416D01*
X4558802Y-5989345D01*
X4559300Y-5989320D01*
X4762500Y-5989320D01*
X4762997Y-5989345D01*
X4763490Y-5989416D01*
X4763975Y-5989538D01*
X4764443Y-5989706D01*
X4764895Y-5989919D01*
X4765321Y-5990175D01*
X4765723Y-5990473D01*
X4766091Y-5990808D01*
X4766426Y-5991176D01*
X4766724Y-5991578D01*
X4766980Y-5992004D01*
X4767193Y-5992456D01*
X4767361Y-5992924D01*
X4767483Y-5993409D01*
X4767554Y-5993902D01*
X4767579Y-5994400D01*
X4767579Y-6146800D01*
X4767554Y-6147297D01*
X4767483Y-6147790D01*
X4767361Y-6148275D01*
X4767193Y-6148743D01*
X4766980Y-6149195D01*
X4766724Y-6149621D01*
X4766426Y-6150023D01*
X4766091Y-6150391D01*
X4765723Y-6150726D01*
X4765321Y-6151024D01*
X4764895Y-6151280D01*
X4764443Y-6151493D01*
X4763975Y-6151661D01*
X4763490Y-6151783D01*
X4762997Y-6151854D01*
X4762500Y-6151879D01*
G37*
G36*
X4559300Y-6405879D02*
G01*
X4558802Y-6405854D01*
X4558309Y-6405783D01*
X4557824Y-6405661D01*
X4557356Y-6405493D01*
X4556904Y-6405280D01*
X4556478Y-6405024D01*
X4556076Y-6404726D01*
X4555708Y-6404391D01*
X4555373Y-6404023D01*
X4555075Y-6403621D01*
X4554819Y-6403195D01*
X4554606Y-6402743D01*
X4554438Y-6402275D01*
X4554316Y-6401790D01*
X4554245Y-6401297D01*
X4554220Y-6400800D01*
X4554220Y-6248400D01*
X4554245Y-6247902D01*
X4554316Y-6247409D01*
X4554438Y-6246924D01*
X4554606Y-6246456D01*
X4554819Y-6246004D01*
X4555075Y-6245578D01*
X4555373Y-6245176D01*
X4555708Y-6244808D01*
X4556076Y-6244473D01*
X4556478Y-6244175D01*
X4556904Y-6243919D01*
X4557356Y-6243706D01*
X4557824Y-6243538D01*
X4558309Y-6243416D01*
X4558802Y-6243345D01*
X4559300Y-6243320D01*
X4762500Y-6243320D01*
X4762997Y-6243345D01*
X4763490Y-6243416D01*
X4763975Y-6243538D01*
X4764443Y-6243706D01*
X4764895Y-6243919D01*
X4765321Y-6244175D01*
X4765723Y-6244473D01*
X4766091Y-6244808D01*
X4766426Y-6245176D01*
X4766724Y-6245578D01*
X4766980Y-6246004D01*
X4767193Y-6246456D01*
X4767361Y-6246924D01*
X4767483Y-6247409D01*
X4767554Y-6247902D01*
X4767579Y-6248400D01*
X4767579Y-6400800D01*
X4767554Y-6401297D01*
X4767483Y-6401790D01*
X4767361Y-6402275D01*
X4767193Y-6402743D01*
X4766980Y-6403195D01*
X4766724Y-6403621D01*
X4766426Y-6404023D01*
X4766091Y-6404391D01*
X4765723Y-6404726D01*
X4765321Y-6405024D01*
X4764895Y-6405280D01*
X4764443Y-6405493D01*
X4763975Y-6405661D01*
X4763490Y-6405783D01*
X4762997Y-6405854D01*
X4762500Y-6405879D01*
G37*
G36*
X4559300Y-6659879D02*
G01*
X4558802Y-6659854D01*
X4558309Y-6659783D01*
X4557824Y-6659661D01*
X4557356Y-6659493D01*
X4556904Y-6659280D01*
X4556478Y-6659024D01*
X4556076Y-6658726D01*
X4555708Y-6658391D01*
X4555373Y-6658023D01*
X4555075Y-6657621D01*
X4554819Y-6657195D01*
X4554606Y-6656743D01*
X4554438Y-6656275D01*
X4554316Y-6655790D01*
X4554245Y-6655297D01*
X4554220Y-6654800D01*
X4554220Y-6502400D01*
X4554245Y-6501902D01*
X4554316Y-6501409D01*
X4554438Y-6500924D01*
X4554606Y-6500456D01*
X4554819Y-6500004D01*
X4555075Y-6499578D01*
X4555373Y-6499176D01*
X4555708Y-6498808D01*
X4556076Y-6498473D01*
X4556478Y-6498175D01*
X4556904Y-6497919D01*
X4557356Y-6497706D01*
X4557824Y-6497538D01*
X4558309Y-6497416D01*
X4558802Y-6497345D01*
X4559300Y-6497320D01*
X4762500Y-6497320D01*
X4762997Y-6497345D01*
X4763490Y-6497416D01*
X4763975Y-6497538D01*
X4764443Y-6497706D01*
X4764895Y-6497919D01*
X4765321Y-6498175D01*
X4765723Y-6498473D01*
X4766091Y-6498808D01*
X4766426Y-6499176D01*
X4766724Y-6499578D01*
X4766980Y-6500004D01*
X4767193Y-6500456D01*
X4767361Y-6500924D01*
X4767483Y-6501409D01*
X4767554Y-6501902D01*
X4767579Y-6502400D01*
X4767579Y-6654800D01*
X4767554Y-6655297D01*
X4767483Y-6655790D01*
X4767361Y-6656275D01*
X4767193Y-6656743D01*
X4766980Y-6657195D01*
X4766724Y-6657621D01*
X4766426Y-6658023D01*
X4766091Y-6658391D01*
X4765723Y-6658726D01*
X4765321Y-6659024D01*
X4764895Y-6659280D01*
X4764443Y-6659493D01*
X4763975Y-6659661D01*
X4763490Y-6659783D01*
X4762997Y-6659854D01*
X4762500Y-6659879D01*
G37*
G36*
X4559300Y-6913879D02*
G01*
X4558802Y-6913854D01*
X4558309Y-6913783D01*
X4557824Y-6913661D01*
X4557356Y-6913493D01*
X4556904Y-6913280D01*
X4556478Y-6913024D01*
X4556076Y-6912726D01*
X4555708Y-6912391D01*
X4555373Y-6912023D01*
X4555075Y-6911621D01*
X4554819Y-6911195D01*
X4554606Y-6910743D01*
X4554438Y-6910275D01*
X4554316Y-6909790D01*
X4554245Y-6909297D01*
X4554220Y-6908800D01*
X4554220Y-6756400D01*
X4554245Y-6755902D01*
X4554316Y-6755409D01*
X4554438Y-6754924D01*
X4554606Y-6754456D01*
X4554819Y-6754004D01*
X4555075Y-6753578D01*
X4555373Y-6753176D01*
X4555708Y-6752808D01*
X4556076Y-6752473D01*
X4556478Y-6752175D01*
X4556904Y-6751919D01*
X4557356Y-6751706D01*
X4557824Y-6751538D01*
X4558309Y-6751416D01*
X4558802Y-6751345D01*
X4559300Y-6751320D01*
X4762500Y-6751320D01*
X4762997Y-6751345D01*
X4763490Y-6751416D01*
X4763975Y-6751538D01*
X4764443Y-6751706D01*
X4764895Y-6751919D01*
X4765321Y-6752175D01*
X4765723Y-6752473D01*
X4766091Y-6752808D01*
X4766426Y-6753176D01*
X4766724Y-6753578D01*
X4766980Y-6754004D01*
X4767193Y-6754456D01*
X4767361Y-6754924D01*
X4767483Y-6755409D01*
X4767554Y-6755902D01*
X4767579Y-6756400D01*
X4767579Y-6908800D01*
X4767554Y-6909297D01*
X4767483Y-6909790D01*
X4767361Y-6910275D01*
X4767193Y-6910743D01*
X4766980Y-6911195D01*
X4766724Y-6911621D01*
X4766426Y-6912023D01*
X4766091Y-6912391D01*
X4765723Y-6912726D01*
X4765321Y-6913024D01*
X4764895Y-6913280D01*
X4764443Y-6913493D01*
X4763975Y-6913661D01*
X4763490Y-6913783D01*
X4762997Y-6913854D01*
X4762500Y-6913879D01*
G37*
G36*
X4559300Y-7167879D02*
G01*
X4558802Y-7167854D01*
X4558309Y-7167783D01*
X4557824Y-7167661D01*
X4557356Y-7167493D01*
X4556904Y-7167280D01*
X4556478Y-7167024D01*
X4556076Y-7166726D01*
X4555708Y-7166391D01*
X4555373Y-7166023D01*
X4555075Y-7165621D01*
X4554819Y-7165195D01*
X4554606Y-7164743D01*
X4554438Y-7164275D01*
X4554316Y-7163790D01*
X4554245Y-7163297D01*
X4554220Y-7162800D01*
X4554220Y-7010400D01*
X4554245Y-7009902D01*
X4554316Y-7009409D01*
X4554438Y-7008924D01*
X4554606Y-7008456D01*
X4554819Y-7008004D01*
X4555075Y-7007578D01*
X4555373Y-7007176D01*
X4555708Y-7006808D01*
X4556076Y-7006473D01*
X4556478Y-7006175D01*
X4556904Y-7005919D01*
X4557356Y-7005706D01*
X4557824Y-7005538D01*
X4558309Y-7005416D01*
X4558802Y-7005345D01*
X4559300Y-7005320D01*
X4762500Y-7005320D01*
X4762997Y-7005345D01*
X4763490Y-7005416D01*
X4763975Y-7005538D01*
X4764443Y-7005706D01*
X4764895Y-7005919D01*
X4765321Y-7006175D01*
X4765723Y-7006473D01*
X4766091Y-7006808D01*
X4766426Y-7007176D01*
X4766724Y-7007578D01*
X4766980Y-7008004D01*
X4767193Y-7008456D01*
X4767361Y-7008924D01*
X4767483Y-7009409D01*
X4767554Y-7009902D01*
X4767579Y-7010400D01*
X4767579Y-7162800D01*
X4767554Y-7163297D01*
X4767483Y-7163790D01*
X4767361Y-7164275D01*
X4767193Y-7164743D01*
X4766980Y-7165195D01*
X4766724Y-7165621D01*
X4766426Y-7166023D01*
X4766091Y-7166391D01*
X4765723Y-7166726D01*
X4765321Y-7167024D01*
X4764895Y-7167280D01*
X4764443Y-7167493D01*
X4763975Y-7167661D01*
X4763490Y-7167783D01*
X4762997Y-7167854D01*
X4762500Y-7167879D01*
G37*
G36*
X4559300Y-7421879D02*
G01*
X4558802Y-7421854D01*
X4558309Y-7421783D01*
X4557824Y-7421661D01*
X4557356Y-7421493D01*
X4556904Y-7421280D01*
X4556478Y-7421024D01*
X4556076Y-7420726D01*
X4555708Y-7420391D01*
X4555373Y-7420023D01*
X4555075Y-7419621D01*
X4554819Y-7419195D01*
X4554606Y-7418743D01*
X4554438Y-7418275D01*
X4554316Y-7417790D01*
X4554245Y-7417297D01*
X4554220Y-7416800D01*
X4554220Y-7264400D01*
X4554245Y-7263902D01*
X4554316Y-7263409D01*
X4554438Y-7262924D01*
X4554606Y-7262456D01*
X4554819Y-7262004D01*
X4555075Y-7261578D01*
X4555373Y-7261176D01*
X4555708Y-7260808D01*
X4556076Y-7260473D01*
X4556478Y-7260175D01*
X4556904Y-7259919D01*
X4557356Y-7259706D01*
X4557824Y-7259538D01*
X4558309Y-7259416D01*
X4558802Y-7259345D01*
X4559300Y-7259320D01*
X4762500Y-7259320D01*
X4762997Y-7259345D01*
X4763490Y-7259416D01*
X4763975Y-7259538D01*
X4764443Y-7259706D01*
X4764895Y-7259919D01*
X4765321Y-7260175D01*
X4765723Y-7260473D01*
X4766091Y-7260808D01*
X4766426Y-7261176D01*
X4766724Y-7261578D01*
X4766980Y-7262004D01*
X4767193Y-7262456D01*
X4767361Y-7262924D01*
X4767483Y-7263409D01*
X4767554Y-7263902D01*
X4767579Y-7264400D01*
X4767579Y-7416800D01*
X4767554Y-7417297D01*
X4767483Y-7417790D01*
X4767361Y-7418275D01*
X4767193Y-7418743D01*
X4766980Y-7419195D01*
X4766724Y-7419621D01*
X4766426Y-7420023D01*
X4766091Y-7420391D01*
X4765723Y-7420726D01*
X4765321Y-7421024D01*
X4764895Y-7421280D01*
X4764443Y-7421493D01*
X4763975Y-7421661D01*
X4763490Y-7421783D01*
X4762997Y-7421854D01*
X4762500Y-7421879D01*
G37*
G36*
X4559300Y-7675879D02*
G01*
X4558802Y-7675854D01*
X4558309Y-7675783D01*
X4557824Y-7675661D01*
X4557356Y-7675493D01*
X4556904Y-7675280D01*
X4556478Y-7675024D01*
X4556076Y-7674726D01*
X4555708Y-7674391D01*
X4555373Y-7674023D01*
X4555075Y-7673621D01*
X4554819Y-7673195D01*
X4554606Y-7672743D01*
X4554438Y-7672275D01*
X4554316Y-7671790D01*
X4554245Y-7671297D01*
X4554220Y-7670800D01*
X4554220Y-7518400D01*
X4554245Y-7517902D01*
X4554316Y-7517409D01*
X4554438Y-7516924D01*
X4554606Y-7516456D01*
X4554819Y-7516004D01*
X4555075Y-7515578D01*
X4555373Y-7515176D01*
X4555708Y-7514808D01*
X4556076Y-7514473D01*
X4556478Y-7514175D01*
X4556904Y-7513919D01*
X4557356Y-7513706D01*
X4557824Y-7513538D01*
X4558309Y-7513416D01*
X4558802Y-7513345D01*
X4559300Y-7513320D01*
X4762500Y-7513320D01*
X4762997Y-7513345D01*
X4763490Y-7513416D01*
X4763975Y-7513538D01*
X4764443Y-7513706D01*
X4764895Y-7513919D01*
X4765321Y-7514175D01*
X4765723Y-7514473D01*
X4766091Y-7514808D01*
X4766426Y-7515176D01*
X4766724Y-7515578D01*
X4766980Y-7516004D01*
X4767193Y-7516456D01*
X4767361Y-7516924D01*
X4767483Y-7517409D01*
X4767554Y-7517902D01*
X4767579Y-7518400D01*
X4767579Y-7670800D01*
X4767554Y-7671297D01*
X4767483Y-7671790D01*
X4767361Y-7672275D01*
X4767193Y-7672743D01*
X4766980Y-7673195D01*
X4766724Y-7673621D01*
X4766426Y-7674023D01*
X4766091Y-7674391D01*
X4765723Y-7674726D01*
X4765321Y-7675024D01*
X4764895Y-7675280D01*
X4764443Y-7675493D01*
X4763975Y-7675661D01*
X4763490Y-7675783D01*
X4762997Y-7675854D01*
X4762500Y-7675879D01*
G37*
G36*
X4559300Y-7929879D02*
G01*
X4558802Y-7929854D01*
X4558309Y-7929783D01*
X4557824Y-7929661D01*
X4557356Y-7929493D01*
X4556904Y-7929280D01*
X4556478Y-7929024D01*
X4556076Y-7928726D01*
X4555708Y-7928391D01*
X4555373Y-7928023D01*
X4555075Y-7927621D01*
X4554819Y-7927195D01*
X4554606Y-7926743D01*
X4554438Y-7926275D01*
X4554316Y-7925790D01*
X4554245Y-7925297D01*
X4554220Y-7924800D01*
X4554220Y-7772400D01*
X4554245Y-7771902D01*
X4554316Y-7771409D01*
X4554438Y-7770924D01*
X4554606Y-7770456D01*
X4554819Y-7770004D01*
X4555075Y-7769578D01*
X4555373Y-7769176D01*
X4555708Y-7768808D01*
X4556076Y-7768473D01*
X4556478Y-7768175D01*
X4556904Y-7767919D01*
X4557356Y-7767706D01*
X4557824Y-7767538D01*
X4558309Y-7767416D01*
X4558802Y-7767345D01*
X4559300Y-7767320D01*
X4762500Y-7767320D01*
X4762997Y-7767345D01*
X4763490Y-7767416D01*
X4763975Y-7767538D01*
X4764443Y-7767706D01*
X4764895Y-7767919D01*
X4765321Y-7768175D01*
X4765723Y-7768473D01*
X4766091Y-7768808D01*
X4766426Y-7769176D01*
X4766724Y-7769578D01*
X4766980Y-7770004D01*
X4767193Y-7770456D01*
X4767361Y-7770924D01*
X4767483Y-7771409D01*
X4767554Y-7771902D01*
X4767579Y-7772400D01*
X4767579Y-7924800D01*
X4767554Y-7925297D01*
X4767483Y-7925790D01*
X4767361Y-7926275D01*
X4767193Y-7926743D01*
X4766980Y-7927195D01*
X4766724Y-7927621D01*
X4766426Y-7928023D01*
X4766091Y-7928391D01*
X4765723Y-7928726D01*
X4765321Y-7929024D01*
X4764895Y-7929280D01*
X4764443Y-7929493D01*
X4763975Y-7929661D01*
X4763490Y-7929783D01*
X4762997Y-7929854D01*
X4762500Y-7929879D01*
G37*
G36*
X4559300Y-8183879D02*
G01*
X4558802Y-8183854D01*
X4558309Y-8183783D01*
X4557824Y-8183661D01*
X4557356Y-8183493D01*
X4556904Y-8183280D01*
X4556478Y-8183024D01*
X4556076Y-8182726D01*
X4555708Y-8182391D01*
X4555373Y-8182023D01*
X4555075Y-8181621D01*
X4554819Y-8181195D01*
X4554606Y-8180743D01*
X4554438Y-8180275D01*
X4554316Y-8179790D01*
X4554245Y-8179297D01*
X4554220Y-8178800D01*
X4554220Y-8026400D01*
X4554245Y-8025902D01*
X4554316Y-8025409D01*
X4554438Y-8024924D01*
X4554606Y-8024456D01*
X4554819Y-8024004D01*
X4555075Y-8023578D01*
X4555373Y-8023176D01*
X4555708Y-8022808D01*
X4556076Y-8022473D01*
X4556478Y-8022175D01*
X4556904Y-8021919D01*
X4557356Y-8021706D01*
X4557824Y-8021538D01*
X4558309Y-8021416D01*
X4558802Y-8021345D01*
X4559300Y-8021320D01*
X4762500Y-8021320D01*
X4762997Y-8021345D01*
X4763490Y-8021416D01*
X4763975Y-8021538D01*
X4764443Y-8021706D01*
X4764895Y-8021919D01*
X4765321Y-8022175D01*
X4765723Y-8022473D01*
X4766091Y-8022808D01*
X4766426Y-8023176D01*
X4766724Y-8023578D01*
X4766980Y-8024004D01*
X4767193Y-8024456D01*
X4767361Y-8024924D01*
X4767483Y-8025409D01*
X4767554Y-8025902D01*
X4767579Y-8026400D01*
X4767579Y-8178800D01*
X4767554Y-8179297D01*
X4767483Y-8179790D01*
X4767361Y-8180275D01*
X4767193Y-8180743D01*
X4766980Y-8181195D01*
X4766724Y-8181621D01*
X4766426Y-8182023D01*
X4766091Y-8182391D01*
X4765723Y-8182726D01*
X4765321Y-8183024D01*
X4764895Y-8183280D01*
X4764443Y-8183493D01*
X4763975Y-8183661D01*
X4763490Y-8183783D01*
X4762997Y-8183854D01*
X4762500Y-8183879D01*
G37*
G36*
X4559300Y-8437879D02*
G01*
X4558802Y-8437854D01*
X4558309Y-8437783D01*
X4557824Y-8437661D01*
X4557356Y-8437493D01*
X4556904Y-8437280D01*
X4556478Y-8437024D01*
X4556076Y-8436726D01*
X4555708Y-8436391D01*
X4555373Y-8436023D01*
X4555075Y-8435621D01*
X4554819Y-8435195D01*
X4554606Y-8434743D01*
X4554438Y-8434275D01*
X4554316Y-8433790D01*
X4554245Y-8433297D01*
X4554220Y-8432800D01*
X4554220Y-8280400D01*
X4554245Y-8279902D01*
X4554316Y-8279409D01*
X4554438Y-8278924D01*
X4554606Y-8278456D01*
X4554819Y-8278004D01*
X4555075Y-8277578D01*
X4555373Y-8277176D01*
X4555708Y-8276808D01*
X4556076Y-8276473D01*
X4556478Y-8276175D01*
X4556904Y-8275919D01*
X4557356Y-8275706D01*
X4557824Y-8275538D01*
X4558309Y-8275416D01*
X4558802Y-8275345D01*
X4559300Y-8275320D01*
X4762500Y-8275320D01*
X4762997Y-8275345D01*
X4763490Y-8275416D01*
X4763975Y-8275538D01*
X4764443Y-8275706D01*
X4764895Y-8275919D01*
X4765321Y-8276175D01*
X4765723Y-8276473D01*
X4766091Y-8276808D01*
X4766426Y-8277176D01*
X4766724Y-8277578D01*
X4766980Y-8278004D01*
X4767193Y-8278456D01*
X4767361Y-8278924D01*
X4767483Y-8279409D01*
X4767554Y-8279902D01*
X4767579Y-8280400D01*
X4767579Y-8432800D01*
X4767554Y-8433297D01*
X4767483Y-8433790D01*
X4767361Y-8434275D01*
X4767193Y-8434743D01*
X4766980Y-8435195D01*
X4766724Y-8435621D01*
X4766426Y-8436023D01*
X4766091Y-8436391D01*
X4765723Y-8436726D01*
X4765321Y-8437024D01*
X4764895Y-8437280D01*
X4764443Y-8437493D01*
X4763975Y-8437661D01*
X4763490Y-8437783D01*
X4762997Y-8437854D01*
X4762500Y-8437879D01*
G37*
G36*
X4559300Y-8691879D02*
G01*
X4558802Y-8691854D01*
X4558309Y-8691783D01*
X4557824Y-8691661D01*
X4557356Y-8691493D01*
X4556904Y-8691280D01*
X4556478Y-8691024D01*
X4556076Y-8690726D01*
X4555708Y-8690391D01*
X4555373Y-8690023D01*
X4555075Y-8689621D01*
X4554819Y-8689195D01*
X4554606Y-8688743D01*
X4554438Y-8688275D01*
X4554316Y-8687790D01*
X4554245Y-8687297D01*
X4554220Y-8686800D01*
X4554220Y-8534400D01*
X4554245Y-8533902D01*
X4554316Y-8533409D01*
X4554438Y-8532924D01*
X4554606Y-8532456D01*
X4554819Y-8532004D01*
X4555075Y-8531578D01*
X4555373Y-8531176D01*
X4555708Y-8530808D01*
X4556076Y-8530473D01*
X4556478Y-8530175D01*
X4556904Y-8529919D01*
X4557356Y-8529706D01*
X4557824Y-8529538D01*
X4558309Y-8529416D01*
X4558802Y-8529345D01*
X4559300Y-8529320D01*
X4762500Y-8529320D01*
X4762997Y-8529345D01*
X4763490Y-8529416D01*
X4763975Y-8529538D01*
X4764443Y-8529706D01*
X4764895Y-8529919D01*
X4765321Y-8530175D01*
X4765723Y-8530473D01*
X4766091Y-8530808D01*
X4766426Y-8531176D01*
X4766724Y-8531578D01*
X4766980Y-8532004D01*
X4767193Y-8532456D01*
X4767361Y-8532924D01*
X4767483Y-8533409D01*
X4767554Y-8533902D01*
X4767579Y-8534400D01*
X4767579Y-8686800D01*
X4767554Y-8687297D01*
X4767483Y-8687790D01*
X4767361Y-8688275D01*
X4767193Y-8688743D01*
X4766980Y-8689195D01*
X4766724Y-8689621D01*
X4766426Y-8690023D01*
X4766091Y-8690391D01*
X4765723Y-8690726D01*
X4765321Y-8691024D01*
X4764895Y-8691280D01*
X4764443Y-8691493D01*
X4763975Y-8691661D01*
X4763490Y-8691783D01*
X4762997Y-8691854D01*
X4762500Y-8691879D01*
G37*
G36*
X6388100Y-8691879D02*
G01*
X6387602Y-8691854D01*
X6387109Y-8691783D01*
X6386624Y-8691661D01*
X6386156Y-8691493D01*
X6385704Y-8691280D01*
X6385278Y-8691024D01*
X6384876Y-8690726D01*
X6384508Y-8690391D01*
X6384173Y-8690023D01*
X6383875Y-8689621D01*
X6383619Y-8689195D01*
X6383406Y-8688743D01*
X6383238Y-8688275D01*
X6383116Y-8687790D01*
X6383045Y-8687297D01*
X6383020Y-8686800D01*
X6383020Y-8534400D01*
X6383045Y-8533902D01*
X6383116Y-8533409D01*
X6383238Y-8532924D01*
X6383406Y-8532456D01*
X6383619Y-8532004D01*
X6383875Y-8531578D01*
X6384173Y-8531176D01*
X6384508Y-8530808D01*
X6384876Y-8530473D01*
X6385278Y-8530175D01*
X6385704Y-8529919D01*
X6386156Y-8529706D01*
X6386624Y-8529538D01*
X6387109Y-8529416D01*
X6387602Y-8529345D01*
X6388100Y-8529320D01*
X6591300Y-8529320D01*
X6591797Y-8529345D01*
X6592290Y-8529416D01*
X6592775Y-8529538D01*
X6593243Y-8529706D01*
X6593695Y-8529919D01*
X6594121Y-8530175D01*
X6594523Y-8530473D01*
X6594891Y-8530808D01*
X6595226Y-8531176D01*
X6595524Y-8531578D01*
X6595780Y-8532004D01*
X6595993Y-8532456D01*
X6596161Y-8532924D01*
X6596283Y-8533409D01*
X6596354Y-8533902D01*
X6596379Y-8534400D01*
X6596379Y-8686800D01*
X6596354Y-8687297D01*
X6596283Y-8687790D01*
X6596161Y-8688275D01*
X6595993Y-8688743D01*
X6595780Y-8689195D01*
X6595524Y-8689621D01*
X6595226Y-8690023D01*
X6594891Y-8690391D01*
X6594523Y-8690726D01*
X6594121Y-8691024D01*
X6593695Y-8691280D01*
X6593243Y-8691493D01*
X6592775Y-8691661D01*
X6592290Y-8691783D01*
X6591797Y-8691854D01*
X6591300Y-8691879D01*
G37*
G36*
X6388100Y-8437879D02*
G01*
X6387602Y-8437854D01*
X6387109Y-8437783D01*
X6386624Y-8437661D01*
X6386156Y-8437493D01*
X6385704Y-8437280D01*
X6385278Y-8437024D01*
X6384876Y-8436726D01*
X6384508Y-8436391D01*
X6384173Y-8436023D01*
X6383875Y-8435621D01*
X6383619Y-8435195D01*
X6383406Y-8434743D01*
X6383238Y-8434275D01*
X6383116Y-8433790D01*
X6383045Y-8433297D01*
X6383020Y-8432800D01*
X6383020Y-8280400D01*
X6383045Y-8279902D01*
X6383116Y-8279409D01*
X6383238Y-8278924D01*
X6383406Y-8278456D01*
X6383619Y-8278004D01*
X6383875Y-8277578D01*
X6384173Y-8277176D01*
X6384508Y-8276808D01*
X6384876Y-8276473D01*
X6385278Y-8276175D01*
X6385704Y-8275919D01*
X6386156Y-8275706D01*
X6386624Y-8275538D01*
X6387109Y-8275416D01*
X6387602Y-8275345D01*
X6388100Y-8275320D01*
X6591300Y-8275320D01*
X6591797Y-8275345D01*
X6592290Y-8275416D01*
X6592775Y-8275538D01*
X6593243Y-8275706D01*
X6593695Y-8275919D01*
X6594121Y-8276175D01*
X6594523Y-8276473D01*
X6594891Y-8276808D01*
X6595226Y-8277176D01*
X6595524Y-8277578D01*
X6595780Y-8278004D01*
X6595993Y-8278456D01*
X6596161Y-8278924D01*
X6596283Y-8279409D01*
X6596354Y-8279902D01*
X6596379Y-8280400D01*
X6596379Y-8432800D01*
X6596354Y-8433297D01*
X6596283Y-8433790D01*
X6596161Y-8434275D01*
X6595993Y-8434743D01*
X6595780Y-8435195D01*
X6595524Y-8435621D01*
X6595226Y-8436023D01*
X6594891Y-8436391D01*
X6594523Y-8436726D01*
X6594121Y-8437024D01*
X6593695Y-8437280D01*
X6593243Y-8437493D01*
X6592775Y-8437661D01*
X6592290Y-8437783D01*
X6591797Y-8437854D01*
X6591300Y-8437879D01*
G37*
G36*
X6388100Y-8183879D02*
G01*
X6387602Y-8183854D01*
X6387109Y-8183783D01*
X6386624Y-8183661D01*
X6386156Y-8183493D01*
X6385704Y-8183280D01*
X6385278Y-8183024D01*
X6384876Y-8182726D01*
X6384508Y-8182391D01*
X6384173Y-8182023D01*
X6383875Y-8181621D01*
X6383619Y-8181195D01*
X6383406Y-8180743D01*
X6383238Y-8180275D01*
X6383116Y-8179790D01*
X6383045Y-8179297D01*
X6383020Y-8178800D01*
X6383020Y-8026400D01*
X6383045Y-8025902D01*
X6383116Y-8025409D01*
X6383238Y-8024924D01*
X6383406Y-8024456D01*
X6383619Y-8024004D01*
X6383875Y-8023578D01*
X6384173Y-8023176D01*
X6384508Y-8022808D01*
X6384876Y-8022473D01*
X6385278Y-8022175D01*
X6385704Y-8021919D01*
X6386156Y-8021706D01*
X6386624Y-8021538D01*
X6387109Y-8021416D01*
X6387602Y-8021345D01*
X6388100Y-8021320D01*
X6591300Y-8021320D01*
X6591797Y-8021345D01*
X6592290Y-8021416D01*
X6592775Y-8021538D01*
X6593243Y-8021706D01*
X6593695Y-8021919D01*
X6594121Y-8022175D01*
X6594523Y-8022473D01*
X6594891Y-8022808D01*
X6595226Y-8023176D01*
X6595524Y-8023578D01*
X6595780Y-8024004D01*
X6595993Y-8024456D01*
X6596161Y-8024924D01*
X6596283Y-8025409D01*
X6596354Y-8025902D01*
X6596379Y-8026400D01*
X6596379Y-8178800D01*
X6596354Y-8179297D01*
X6596283Y-8179790D01*
X6596161Y-8180275D01*
X6595993Y-8180743D01*
X6595780Y-8181195D01*
X6595524Y-8181621D01*
X6595226Y-8182023D01*
X6594891Y-8182391D01*
X6594523Y-8182726D01*
X6594121Y-8183024D01*
X6593695Y-8183280D01*
X6593243Y-8183493D01*
X6592775Y-8183661D01*
X6592290Y-8183783D01*
X6591797Y-8183854D01*
X6591300Y-8183879D01*
G37*
G36*
X6388100Y-7929879D02*
G01*
X6387602Y-7929854D01*
X6387109Y-7929783D01*
X6386624Y-7929661D01*
X6386156Y-7929493D01*
X6385704Y-7929280D01*
X6385278Y-7929024D01*
X6384876Y-7928726D01*
X6384508Y-7928391D01*
X6384173Y-7928023D01*
X6383875Y-7927621D01*
X6383619Y-7927195D01*
X6383406Y-7926743D01*
X6383238Y-7926275D01*
X6383116Y-7925790D01*
X6383045Y-7925297D01*
X6383020Y-7924800D01*
X6383020Y-7772400D01*
X6383045Y-7771902D01*
X6383116Y-7771409D01*
X6383238Y-7770924D01*
X6383406Y-7770456D01*
X6383619Y-7770004D01*
X6383875Y-7769578D01*
X6384173Y-7769176D01*
X6384508Y-7768808D01*
X6384876Y-7768473D01*
X6385278Y-7768175D01*
X6385704Y-7767919D01*
X6386156Y-7767706D01*
X6386624Y-7767538D01*
X6387109Y-7767416D01*
X6387602Y-7767345D01*
X6388100Y-7767320D01*
X6591300Y-7767320D01*
X6591797Y-7767345D01*
X6592290Y-7767416D01*
X6592775Y-7767538D01*
X6593243Y-7767706D01*
X6593695Y-7767919D01*
X6594121Y-7768175D01*
X6594523Y-7768473D01*
X6594891Y-7768808D01*
X6595226Y-7769176D01*
X6595524Y-7769578D01*
X6595780Y-7770004D01*
X6595993Y-7770456D01*
X6596161Y-7770924D01*
X6596283Y-7771409D01*
X6596354Y-7771902D01*
X6596379Y-7772400D01*
X6596379Y-7924800D01*
X6596354Y-7925297D01*
X6596283Y-7925790D01*
X6596161Y-7926275D01*
X6595993Y-7926743D01*
X6595780Y-7927195D01*
X6595524Y-7927621D01*
X6595226Y-7928023D01*
X6594891Y-7928391D01*
X6594523Y-7928726D01*
X6594121Y-7929024D01*
X6593695Y-7929280D01*
X6593243Y-7929493D01*
X6592775Y-7929661D01*
X6592290Y-7929783D01*
X6591797Y-7929854D01*
X6591300Y-7929879D01*
G37*
G36*
X6388100Y-7675879D02*
G01*
X6387602Y-7675854D01*
X6387109Y-7675783D01*
X6386624Y-7675661D01*
X6386156Y-7675493D01*
X6385704Y-7675280D01*
X6385278Y-7675024D01*
X6384876Y-7674726D01*
X6384508Y-7674391D01*
X6384173Y-7674023D01*
X6383875Y-7673621D01*
X6383619Y-7673195D01*
X6383406Y-7672743D01*
X6383238Y-7672275D01*
X6383116Y-7671790D01*
X6383045Y-7671297D01*
X6383020Y-7670800D01*
X6383020Y-7518400D01*
X6383045Y-7517902D01*
X6383116Y-7517409D01*
X6383238Y-7516924D01*
X6383406Y-7516456D01*
X6383619Y-7516004D01*
X6383875Y-7515578D01*
X6384173Y-7515176D01*
X6384508Y-7514808D01*
X6384876Y-7514473D01*
X6385278Y-7514175D01*
X6385704Y-7513919D01*
X6386156Y-7513706D01*
X6386624Y-7513538D01*
X6387109Y-7513416D01*
X6387602Y-7513345D01*
X6388100Y-7513320D01*
X6591300Y-7513320D01*
X6591797Y-7513345D01*
X6592290Y-7513416D01*
X6592775Y-7513538D01*
X6593243Y-7513706D01*
X6593695Y-7513919D01*
X6594121Y-7514175D01*
X6594523Y-7514473D01*
X6594891Y-7514808D01*
X6595226Y-7515176D01*
X6595524Y-7515578D01*
X6595780Y-7516004D01*
X6595993Y-7516456D01*
X6596161Y-7516924D01*
X6596283Y-7517409D01*
X6596354Y-7517902D01*
X6596379Y-7518400D01*
X6596379Y-7670800D01*
X6596354Y-7671297D01*
X6596283Y-7671790D01*
X6596161Y-7672275D01*
X6595993Y-7672743D01*
X6595780Y-7673195D01*
X6595524Y-7673621D01*
X6595226Y-7674023D01*
X6594891Y-7674391D01*
X6594523Y-7674726D01*
X6594121Y-7675024D01*
X6593695Y-7675280D01*
X6593243Y-7675493D01*
X6592775Y-7675661D01*
X6592290Y-7675783D01*
X6591797Y-7675854D01*
X6591300Y-7675879D01*
G37*
G36*
X6388100Y-7421879D02*
G01*
X6387602Y-7421854D01*
X6387109Y-7421783D01*
X6386624Y-7421661D01*
X6386156Y-7421493D01*
X6385704Y-7421280D01*
X6385278Y-7421024D01*
X6384876Y-7420726D01*
X6384508Y-7420391D01*
X6384173Y-7420023D01*
X6383875Y-7419621D01*
X6383619Y-7419195D01*
X6383406Y-7418743D01*
X6383238Y-7418275D01*
X6383116Y-7417790D01*
X6383045Y-7417297D01*
X6383020Y-7416800D01*
X6383020Y-7264400D01*
X6383045Y-7263902D01*
X6383116Y-7263409D01*
X6383238Y-7262924D01*
X6383406Y-7262456D01*
X6383619Y-7262004D01*
X6383875Y-7261578D01*
X6384173Y-7261176D01*
X6384508Y-7260808D01*
X6384876Y-7260473D01*
X6385278Y-7260175D01*
X6385704Y-7259919D01*
X6386156Y-7259706D01*
X6386624Y-7259538D01*
X6387109Y-7259416D01*
X6387602Y-7259345D01*
X6388100Y-7259320D01*
X6591300Y-7259320D01*
X6591797Y-7259345D01*
X6592290Y-7259416D01*
X6592775Y-7259538D01*
X6593243Y-7259706D01*
X6593695Y-7259919D01*
X6594121Y-7260175D01*
X6594523Y-7260473D01*
X6594891Y-7260808D01*
X6595226Y-7261176D01*
X6595524Y-7261578D01*
X6595780Y-7262004D01*
X6595993Y-7262456D01*
X6596161Y-7262924D01*
X6596283Y-7263409D01*
X6596354Y-7263902D01*
X6596379Y-7264400D01*
X6596379Y-7416800D01*
X6596354Y-7417297D01*
X6596283Y-7417790D01*
X6596161Y-7418275D01*
X6595993Y-7418743D01*
X6595780Y-7419195D01*
X6595524Y-7419621D01*
X6595226Y-7420023D01*
X6594891Y-7420391D01*
X6594523Y-7420726D01*
X6594121Y-7421024D01*
X6593695Y-7421280D01*
X6593243Y-7421493D01*
X6592775Y-7421661D01*
X6592290Y-7421783D01*
X6591797Y-7421854D01*
X6591300Y-7421879D01*
G37*
G36*
X6388100Y-7167879D02*
G01*
X6387602Y-7167854D01*
X6387109Y-7167783D01*
X6386624Y-7167661D01*
X6386156Y-7167493D01*
X6385704Y-7167280D01*
X6385278Y-7167024D01*
X6384876Y-7166726D01*
X6384508Y-7166391D01*
X6384173Y-7166023D01*
X6383875Y-7165621D01*
X6383619Y-7165195D01*
X6383406Y-7164743D01*
X6383238Y-7164275D01*
X6383116Y-7163790D01*
X6383045Y-7163297D01*
X6383020Y-7162800D01*
X6383020Y-7010400D01*
X6383045Y-7009902D01*
X6383116Y-7009409D01*
X6383238Y-7008924D01*
X6383406Y-7008456D01*
X6383619Y-7008004D01*
X6383875Y-7007578D01*
X6384173Y-7007176D01*
X6384508Y-7006808D01*
X6384876Y-7006473D01*
X6385278Y-7006175D01*
X6385704Y-7005919D01*
X6386156Y-7005706D01*
X6386624Y-7005538D01*
X6387109Y-7005416D01*
X6387602Y-7005345D01*
X6388100Y-7005320D01*
X6591300Y-7005320D01*
X6591797Y-7005345D01*
X6592290Y-7005416D01*
X6592775Y-7005538D01*
X6593243Y-7005706D01*
X6593695Y-7005919D01*
X6594121Y-7006175D01*
X6594523Y-7006473D01*
X6594891Y-7006808D01*
X6595226Y-7007176D01*
X6595524Y-7007578D01*
X6595780Y-7008004D01*
X6595993Y-7008456D01*
X6596161Y-7008924D01*
X6596283Y-7009409D01*
X6596354Y-7009902D01*
X6596379Y-7010400D01*
X6596379Y-7162800D01*
X6596354Y-7163297D01*
X6596283Y-7163790D01*
X6596161Y-7164275D01*
X6595993Y-7164743D01*
X6595780Y-7165195D01*
X6595524Y-7165621D01*
X6595226Y-7166023D01*
X6594891Y-7166391D01*
X6594523Y-7166726D01*
X6594121Y-7167024D01*
X6593695Y-7167280D01*
X6593243Y-7167493D01*
X6592775Y-7167661D01*
X6592290Y-7167783D01*
X6591797Y-7167854D01*
X6591300Y-7167879D01*
G37*
G36*
X6388100Y-6913879D02*
G01*
X6387602Y-6913854D01*
X6387109Y-6913783D01*
X6386624Y-6913661D01*
X6386156Y-6913493D01*
X6385704Y-6913280D01*
X6385278Y-6913024D01*
X6384876Y-6912726D01*
X6384508Y-6912391D01*
X6384173Y-6912023D01*
X6383875Y-6911621D01*
X6383619Y-6911195D01*
X6383406Y-6910743D01*
X6383238Y-6910275D01*
X6383116Y-6909790D01*
X6383045Y-6909297D01*
X6383020Y-6908800D01*
X6383020Y-6756400D01*
X6383045Y-6755902D01*
X6383116Y-6755409D01*
X6383238Y-6754924D01*
X6383406Y-6754456D01*
X6383619Y-6754004D01*
X6383875Y-6753578D01*
X6384173Y-6753176D01*
X6384508Y-6752808D01*
X6384876Y-6752473D01*
X6385278Y-6752175D01*
X6385704Y-6751919D01*
X6386156Y-6751706D01*
X6386624Y-6751538D01*
X6387109Y-6751416D01*
X6387602Y-6751345D01*
X6388100Y-6751320D01*
X6591300Y-6751320D01*
X6591797Y-6751345D01*
X6592290Y-6751416D01*
X6592775Y-6751538D01*
X6593243Y-6751706D01*
X6593695Y-6751919D01*
X6594121Y-6752175D01*
X6594523Y-6752473D01*
X6594891Y-6752808D01*
X6595226Y-6753176D01*
X6595524Y-6753578D01*
X6595780Y-6754004D01*
X6595993Y-6754456D01*
X6596161Y-6754924D01*
X6596283Y-6755409D01*
X6596354Y-6755902D01*
X6596379Y-6756400D01*
X6596379Y-6908800D01*
X6596354Y-6909297D01*
X6596283Y-6909790D01*
X6596161Y-6910275D01*
X6595993Y-6910743D01*
X6595780Y-6911195D01*
X6595524Y-6911621D01*
X6595226Y-6912023D01*
X6594891Y-6912391D01*
X6594523Y-6912726D01*
X6594121Y-6913024D01*
X6593695Y-6913280D01*
X6593243Y-6913493D01*
X6592775Y-6913661D01*
X6592290Y-6913783D01*
X6591797Y-6913854D01*
X6591300Y-6913879D01*
G37*
G36*
X6388100Y-6659879D02*
G01*
X6387602Y-6659854D01*
X6387109Y-6659783D01*
X6386624Y-6659661D01*
X6386156Y-6659493D01*
X6385704Y-6659280D01*
X6385278Y-6659024D01*
X6384876Y-6658726D01*
X6384508Y-6658391D01*
X6384173Y-6658023D01*
X6383875Y-6657621D01*
X6383619Y-6657195D01*
X6383406Y-6656743D01*
X6383238Y-6656275D01*
X6383116Y-6655790D01*
X6383045Y-6655297D01*
X6383020Y-6654800D01*
X6383020Y-6502400D01*
X6383045Y-6501902D01*
X6383116Y-6501409D01*
X6383238Y-6500924D01*
X6383406Y-6500456D01*
X6383619Y-6500004D01*
X6383875Y-6499578D01*
X6384173Y-6499176D01*
X6384508Y-6498808D01*
X6384876Y-6498473D01*
X6385278Y-6498175D01*
X6385704Y-6497919D01*
X6386156Y-6497706D01*
X6386624Y-6497538D01*
X6387109Y-6497416D01*
X6387602Y-6497345D01*
X6388100Y-6497320D01*
X6591300Y-6497320D01*
X6591797Y-6497345D01*
X6592290Y-6497416D01*
X6592775Y-6497538D01*
X6593243Y-6497706D01*
X6593695Y-6497919D01*
X6594121Y-6498175D01*
X6594523Y-6498473D01*
X6594891Y-6498808D01*
X6595226Y-6499176D01*
X6595524Y-6499578D01*
X6595780Y-6500004D01*
X6595993Y-6500456D01*
X6596161Y-6500924D01*
X6596283Y-6501409D01*
X6596354Y-6501902D01*
X6596379Y-6502400D01*
X6596379Y-6654800D01*
X6596354Y-6655297D01*
X6596283Y-6655790D01*
X6596161Y-6656275D01*
X6595993Y-6656743D01*
X6595780Y-6657195D01*
X6595524Y-6657621D01*
X6595226Y-6658023D01*
X6594891Y-6658391D01*
X6594523Y-6658726D01*
X6594121Y-6659024D01*
X6593695Y-6659280D01*
X6593243Y-6659493D01*
X6592775Y-6659661D01*
X6592290Y-6659783D01*
X6591797Y-6659854D01*
X6591300Y-6659879D01*
G37*
G36*
X6388100Y-6405879D02*
G01*
X6387602Y-6405854D01*
X6387109Y-6405783D01*
X6386624Y-6405661D01*
X6386156Y-6405493D01*
X6385704Y-6405280D01*
X6385278Y-6405024D01*
X6384876Y-6404726D01*
X6384508Y-6404391D01*
X6384173Y-6404023D01*
X6383875Y-6403621D01*
X6383619Y-6403195D01*
X6383406Y-6402743D01*
X6383238Y-6402275D01*
X6383116Y-6401790D01*
X6383045Y-6401297D01*
X6383020Y-6400800D01*
X6383020Y-6248400D01*
X6383045Y-6247902D01*
X6383116Y-6247409D01*
X6383238Y-6246924D01*
X6383406Y-6246456D01*
X6383619Y-6246004D01*
X6383875Y-6245578D01*
X6384173Y-6245176D01*
X6384508Y-6244808D01*
X6384876Y-6244473D01*
X6385278Y-6244175D01*
X6385704Y-6243919D01*
X6386156Y-6243706D01*
X6386624Y-6243538D01*
X6387109Y-6243416D01*
X6387602Y-6243345D01*
X6388100Y-6243320D01*
X6591300Y-6243320D01*
X6591797Y-6243345D01*
X6592290Y-6243416D01*
X6592775Y-6243538D01*
X6593243Y-6243706D01*
X6593695Y-6243919D01*
X6594121Y-6244175D01*
X6594523Y-6244473D01*
X6594891Y-6244808D01*
X6595226Y-6245176D01*
X6595524Y-6245578D01*
X6595780Y-6246004D01*
X6595993Y-6246456D01*
X6596161Y-6246924D01*
X6596283Y-6247409D01*
X6596354Y-6247902D01*
X6596379Y-6248400D01*
X6596379Y-6400800D01*
X6596354Y-6401297D01*
X6596283Y-6401790D01*
X6596161Y-6402275D01*
X6595993Y-6402743D01*
X6595780Y-6403195D01*
X6595524Y-6403621D01*
X6595226Y-6404023D01*
X6594891Y-6404391D01*
X6594523Y-6404726D01*
X6594121Y-6405024D01*
X6593695Y-6405280D01*
X6593243Y-6405493D01*
X6592775Y-6405661D01*
X6592290Y-6405783D01*
X6591797Y-6405854D01*
X6591300Y-6405879D01*
G37*
G36*
X6388100Y-6151879D02*
G01*
X6387602Y-6151854D01*
X6387109Y-6151783D01*
X6386624Y-6151661D01*
X6386156Y-6151493D01*
X6385704Y-6151280D01*
X6385278Y-6151024D01*
X6384876Y-6150726D01*
X6384508Y-6150391D01*
X6384173Y-6150023D01*
X6383875Y-6149621D01*
X6383619Y-6149195D01*
X6383406Y-6148743D01*
X6383238Y-6148275D01*
X6383116Y-6147790D01*
X6383045Y-6147297D01*
X6383020Y-6146800D01*
X6383020Y-5994400D01*
X6383045Y-5993902D01*
X6383116Y-5993409D01*
X6383238Y-5992924D01*
X6383406Y-5992456D01*
X6383619Y-5992004D01*
X6383875Y-5991578D01*
X6384173Y-5991176D01*
X6384508Y-5990808D01*
X6384876Y-5990473D01*
X6385278Y-5990175D01*
X6385704Y-5989919D01*
X6386156Y-5989706D01*
X6386624Y-5989538D01*
X6387109Y-5989416D01*
X6387602Y-5989345D01*
X6388100Y-5989320D01*
X6591300Y-5989320D01*
X6591797Y-5989345D01*
X6592290Y-5989416D01*
X6592775Y-5989538D01*
X6593243Y-5989706D01*
X6593695Y-5989919D01*
X6594121Y-5990175D01*
X6594523Y-5990473D01*
X6594891Y-5990808D01*
X6595226Y-5991176D01*
X6595524Y-5991578D01*
X6595780Y-5992004D01*
X6595993Y-5992456D01*
X6596161Y-5992924D01*
X6596283Y-5993409D01*
X6596354Y-5993902D01*
X6596379Y-5994400D01*
X6596379Y-6146800D01*
X6596354Y-6147297D01*
X6596283Y-6147790D01*
X6596161Y-6148275D01*
X6595993Y-6148743D01*
X6595780Y-6149195D01*
X6595524Y-6149621D01*
X6595226Y-6150023D01*
X6594891Y-6150391D01*
X6594523Y-6150726D01*
X6594121Y-6151024D01*
X6593695Y-6151280D01*
X6593243Y-6151493D01*
X6592775Y-6151661D01*
X6592290Y-6151783D01*
X6591797Y-6151854D01*
X6591300Y-6151879D01*
G37*
G36*
X6388100Y-5897879D02*
G01*
X6387602Y-5897854D01*
X6387109Y-5897783D01*
X6386624Y-5897661D01*
X6386156Y-5897493D01*
X6385704Y-5897280D01*
X6385278Y-5897024D01*
X6384876Y-5896726D01*
X6384508Y-5896391D01*
X6384173Y-5896023D01*
X6383875Y-5895621D01*
X6383619Y-5895195D01*
X6383406Y-5894743D01*
X6383238Y-5894275D01*
X6383116Y-5893790D01*
X6383045Y-5893297D01*
X6383020Y-5892800D01*
X6383020Y-5740400D01*
X6383045Y-5739902D01*
X6383116Y-5739409D01*
X6383238Y-5738924D01*
X6383406Y-5738456D01*
X6383619Y-5738004D01*
X6383875Y-5737578D01*
X6384173Y-5737176D01*
X6384508Y-5736808D01*
X6384876Y-5736473D01*
X6385278Y-5736175D01*
X6385704Y-5735919D01*
X6386156Y-5735706D01*
X6386624Y-5735538D01*
X6387109Y-5735416D01*
X6387602Y-5735345D01*
X6388100Y-5735320D01*
X6591300Y-5735320D01*
X6591797Y-5735345D01*
X6592290Y-5735416D01*
X6592775Y-5735538D01*
X6593243Y-5735706D01*
X6593695Y-5735919D01*
X6594121Y-5736175D01*
X6594523Y-5736473D01*
X6594891Y-5736808D01*
X6595226Y-5737176D01*
X6595524Y-5737578D01*
X6595780Y-5738004D01*
X6595993Y-5738456D01*
X6596161Y-5738924D01*
X6596283Y-5739409D01*
X6596354Y-5739902D01*
X6596379Y-5740400D01*
X6596379Y-5892800D01*
X6596354Y-5893297D01*
X6596283Y-5893790D01*
X6596161Y-5894275D01*
X6595993Y-5894743D01*
X6595780Y-5895195D01*
X6595524Y-5895621D01*
X6595226Y-5896023D01*
X6594891Y-5896391D01*
X6594523Y-5896726D01*
X6594121Y-5897024D01*
X6593695Y-5897280D01*
X6593243Y-5897493D01*
X6592775Y-5897661D01*
X6592290Y-5897783D01*
X6591797Y-5897854D01*
X6591300Y-5897879D01*
G37*
G36*
X6388100Y-5643879D02*
G01*
X6387602Y-5643854D01*
X6387109Y-5643783D01*
X6386624Y-5643661D01*
X6386156Y-5643493D01*
X6385704Y-5643280D01*
X6385278Y-5643024D01*
X6384876Y-5642726D01*
X6384508Y-5642391D01*
X6384173Y-5642023D01*
X6383875Y-5641621D01*
X6383619Y-5641195D01*
X6383406Y-5640743D01*
X6383238Y-5640275D01*
X6383116Y-5639790D01*
X6383045Y-5639297D01*
X6383020Y-5638800D01*
X6383020Y-5486400D01*
X6383045Y-5485902D01*
X6383116Y-5485409D01*
X6383238Y-5484924D01*
X6383406Y-5484456D01*
X6383619Y-5484004D01*
X6383875Y-5483578D01*
X6384173Y-5483176D01*
X6384508Y-5482808D01*
X6384876Y-5482473D01*
X6385278Y-5482175D01*
X6385704Y-5481919D01*
X6386156Y-5481706D01*
X6386624Y-5481538D01*
X6387109Y-5481416D01*
X6387602Y-5481345D01*
X6388100Y-5481320D01*
X6591300Y-5481320D01*
X6591797Y-5481345D01*
X6592290Y-5481416D01*
X6592775Y-5481538D01*
X6593243Y-5481706D01*
X6593695Y-5481919D01*
X6594121Y-5482175D01*
X6594523Y-5482473D01*
X6594891Y-5482808D01*
X6595226Y-5483176D01*
X6595524Y-5483578D01*
X6595780Y-5484004D01*
X6595993Y-5484456D01*
X6596161Y-5484924D01*
X6596283Y-5485409D01*
X6596354Y-5485902D01*
X6596379Y-5486400D01*
X6596379Y-5638800D01*
X6596354Y-5639297D01*
X6596283Y-5639790D01*
X6596161Y-5640275D01*
X6595993Y-5640743D01*
X6595780Y-5641195D01*
X6595524Y-5641621D01*
X6595226Y-5642023D01*
X6594891Y-5642391D01*
X6594523Y-5642726D01*
X6594121Y-5643024D01*
X6593695Y-5643280D01*
X6593243Y-5643493D01*
X6592775Y-5643661D01*
X6592290Y-5643783D01*
X6591797Y-5643854D01*
X6591300Y-5643879D01*
G37*
G36*
X6388100Y-5389879D02*
G01*
X6387602Y-5389854D01*
X6387109Y-5389783D01*
X6386624Y-5389661D01*
X6386156Y-5389493D01*
X6385704Y-5389280D01*
X6385278Y-5389024D01*
X6384876Y-5388726D01*
X6384508Y-5388391D01*
X6384173Y-5388023D01*
X6383875Y-5387621D01*
X6383619Y-5387195D01*
X6383406Y-5386743D01*
X6383238Y-5386275D01*
X6383116Y-5385790D01*
X6383045Y-5385297D01*
X6383020Y-5384800D01*
X6383020Y-5232400D01*
X6383045Y-5231902D01*
X6383116Y-5231409D01*
X6383238Y-5230924D01*
X6383406Y-5230456D01*
X6383619Y-5230004D01*
X6383875Y-5229578D01*
X6384173Y-5229176D01*
X6384508Y-5228808D01*
X6384876Y-5228473D01*
X6385278Y-5228175D01*
X6385704Y-5227919D01*
X6386156Y-5227706D01*
X6386624Y-5227538D01*
X6387109Y-5227416D01*
X6387602Y-5227345D01*
X6388100Y-5227320D01*
X6591300Y-5227320D01*
X6591797Y-5227345D01*
X6592290Y-5227416D01*
X6592775Y-5227538D01*
X6593243Y-5227706D01*
X6593695Y-5227919D01*
X6594121Y-5228175D01*
X6594523Y-5228473D01*
X6594891Y-5228808D01*
X6595226Y-5229176D01*
X6595524Y-5229578D01*
X6595780Y-5230004D01*
X6595993Y-5230456D01*
X6596161Y-5230924D01*
X6596283Y-5231409D01*
X6596354Y-5231902D01*
X6596379Y-5232400D01*
X6596379Y-5384800D01*
X6596354Y-5385297D01*
X6596283Y-5385790D01*
X6596161Y-5386275D01*
X6595993Y-5386743D01*
X6595780Y-5387195D01*
X6595524Y-5387621D01*
X6595226Y-5388023D01*
X6594891Y-5388391D01*
X6594523Y-5388726D01*
X6594121Y-5389024D01*
X6593695Y-5389280D01*
X6593243Y-5389493D01*
X6592775Y-5389661D01*
X6592290Y-5389783D01*
X6591797Y-5389854D01*
X6591300Y-5389879D01*
G37*
G36*
X6388100Y-5135879D02*
G01*
X6387602Y-5135854D01*
X6387109Y-5135783D01*
X6386624Y-5135661D01*
X6386156Y-5135493D01*
X6385704Y-5135280D01*
X6385278Y-5135024D01*
X6384876Y-5134726D01*
X6384508Y-5134391D01*
X6384173Y-5134023D01*
X6383875Y-5133621D01*
X6383619Y-5133195D01*
X6383406Y-5132743D01*
X6383238Y-5132275D01*
X6383116Y-5131790D01*
X6383045Y-5131297D01*
X6383020Y-5130800D01*
X6383020Y-4978400D01*
X6383045Y-4977902D01*
X6383116Y-4977409D01*
X6383238Y-4976924D01*
X6383406Y-4976456D01*
X6383619Y-4976004D01*
X6383875Y-4975578D01*
X6384173Y-4975176D01*
X6384508Y-4974808D01*
X6384876Y-4974473D01*
X6385278Y-4974175D01*
X6385704Y-4973919D01*
X6386156Y-4973706D01*
X6386624Y-4973538D01*
X6387109Y-4973416D01*
X6387602Y-4973345D01*
X6388100Y-4973320D01*
X6591300Y-4973320D01*
X6591797Y-4973345D01*
X6592290Y-4973416D01*
X6592775Y-4973538D01*
X6593243Y-4973706D01*
X6593695Y-4973919D01*
X6594121Y-4974175D01*
X6594523Y-4974473D01*
X6594891Y-4974808D01*
X6595226Y-4975176D01*
X6595524Y-4975578D01*
X6595780Y-4976004D01*
X6595993Y-4976456D01*
X6596161Y-4976924D01*
X6596283Y-4977409D01*
X6596354Y-4977902D01*
X6596379Y-4978400D01*
X6596379Y-5130800D01*
X6596354Y-5131297D01*
X6596283Y-5131790D01*
X6596161Y-5132275D01*
X6595993Y-5132743D01*
X6595780Y-5133195D01*
X6595524Y-5133621D01*
X6595226Y-5134023D01*
X6594891Y-5134391D01*
X6594523Y-5134726D01*
X6594121Y-5135024D01*
X6593695Y-5135280D01*
X6593243Y-5135493D01*
X6592775Y-5135661D01*
X6592290Y-5135783D01*
X6591797Y-5135854D01*
X6591300Y-5135879D01*
G37*
D11*
G01*
X913993Y-4970703D03*
G01*
X978992Y-4970703D03*
G01*
X1043990Y-4970703D03*
G01*
X1108989Y-4970703D03*
G01*
X1174013Y-4970703D03*
G01*
X1239012Y-4970703D03*
G01*
X1304010Y-4970703D03*
G01*
X1369009Y-4970703D03*
G01*
X1434007Y-4970703D03*
G01*
X1499006Y-4970703D03*
G01*
X913993Y-5544896D03*
G01*
X978992Y-5544896D03*
G01*
X1043990Y-5544896D03*
G01*
X1108989Y-5544896D03*
G01*
X1174013Y-5544896D03*
G01*
X1239012Y-5544896D03*
G01*
X1304010Y-5544896D03*
G01*
X1369009Y-5544896D03*
G01*
X1434007Y-5544896D03*
G01*
X1499006Y-5544896D03*
D14*
G01*
X3824986Y-699998D03*
G01*
X5174995Y-699998D03*
D15*
G01*
X4139996Y-1299997D03*
G01*
X4859985Y-1299997D03*
D16*
G01*
X8499983Y-7680985D03*
D17*
G01*
X8499983Y-7426985D03*
G01*
X8499983Y-7172985D03*
G01*
X8499983Y-6918985D03*
D16*
G01*
X8499983Y-4680991D03*
D17*
G01*
X8499983Y-4426991D03*
G01*
X8499983Y-4172991D03*
G01*
X8499983Y-3918991D03*
D16*
G01*
X482600Y-6134100D03*
D17*
G01*
X482600Y-6388100D03*
G01*
X482600Y-6642100D03*
G01*
X482600Y-6896100D03*
G01*
X482600Y-7150100D03*
G01*
X482600Y-7404100D03*
G01*
X482600Y-7658100D03*
G01*
X482600Y-7912100D03*
G01*
X2425700Y-8750300D03*
G01*
X2171700Y-8750300D03*
G01*
X1917700Y-8750300D03*
G01*
X1663700Y-8750300D03*
G01*
X1409700Y-8750300D03*
D16*
G01*
X1155700Y-8750300D03*
D18*
G01*
X2672994Y-372999D03*
D19*
G01*
X2926994Y-372998D03*
G01*
X2672994Y-626998D03*
G01*
X2926994Y-626998D03*
D16*
G01*
X626999Y-1880997D03*
D17*
G01*
X372998Y-1880996D03*
G01*
X626998Y-1626996D03*
G01*
X372998Y-1626996D03*
G01*
X626998Y-1372996D03*
G01*
X372998Y-1372996D03*
G01*
X626998Y-1118996D03*
G01*
X372998Y-1118996D03*
G01*
X3606800Y-8750300D03*
G01*
X3352800Y-8750300D03*
D16*
G01*
X3098800Y-8750300D03*
D20*
G01*
X8499983Y-2767355D03*
G01*
X8499983Y-3268243D03*
G01*
X8499983Y-5749544D03*
G01*
X8499983Y-6250431D03*
G01*
X5749543Y-499998D03*
G01*
X6250431Y-499998D03*
M02*
