G04 Layer: TopLayer*
G04 EasyEDA v6.5.48, 2025-01-21 22:01:40*
G04 ce5bcd5d7360488599399ea35ca3f730,208856bd7ad64deca1bfdec547b981c7,10*
G04 Gerber Generator version 0.2*
G04 Scale: 100 percent, Rotated: No, Reflected: No *
G04 Dimensions in millimeters *
G04 leading zeros omitted , absolute positions ,4 integer and 5 decimal *
%FSLAX45Y45*%
%MOMM*%

%AMMACRO1*21,1,$1,$2,0,0,$3*%
%ADD10C,0.6000*%
%ADD11C,0.6540*%
%ADD12C,0.2540*%
%ADD13C,3.0000*%
%ADD14C,2.0000*%
%ADD15C,1.0000*%
%ADD16C,0.3640*%
%ADD17R,0.8000X0.9000*%
%ADD18R,1.6000X5.0000*%
%ADD19R,1.6500X4.5000*%
%ADD20R,1.8200X1.8200*%
%ADD21MACRO1,4.62X2.224X90.0000*%
%ADD22MACRO1,3.456X1.2825X-90.0000*%
%ADD23MACRO1,3.456X1.2825X90.0000*%
%ADD24O,0.6020054X1.9409918000000002*%
%ADD25R,3.0980X2.4100*%
%ADD26MACRO1,1.26X3.61X0.0000*%
%ADD27MACRO1,1.02X3.0828X0.0000*%
%ADD28R,11.0000X8.5000*%
%ADD29O,1.1999976X2.1999956000000003*%
%ADD30C,3.8000*%
%ADD31R,1.5748X1.5748*%
%ADD32C,1.5748*%
%ADD33R,1.5240X1.5240*%
%ADD34C,1.5240*%
%ADD35C,0.6096*%
%ADD36C,0.6200*%
%ADD37C,0.0162*%

%LPD*%
D10*
X7690358Y-2471928D02*
G01*
X7690358Y-2559557D01*
X7899400Y-2768600D01*
X8500109Y-2767329D01*
X7563484Y-2472054D02*
G01*
X7563484Y-2712085D01*
X7874000Y-3022600D01*
X8623300Y-3022600D01*
X8813800Y-2832100D01*
X8806611Y-2824911D01*
X8806611Y-2199995D01*
X7436484Y-2472054D02*
G01*
X7436484Y-2927985D01*
X7772400Y-3263900D01*
X8495644Y-3263900D01*
X8499983Y-3268238D01*
D11*
X6699994Y-2529492D02*
G01*
X6757431Y-2472054D01*
X7309484Y-2472054D01*
D10*
X7309358Y-2471928D02*
G01*
X7309104Y-2717800D01*
X6699994Y-5529486D02*
G01*
X6757431Y-5472048D01*
X7309484Y-5472048D01*
X7309358Y-5472176D02*
G01*
X7309104Y-5715000D01*
X7436484Y-5472048D02*
G01*
X7436484Y-5912485D01*
X7759700Y-6235700D01*
X8485250Y-6235700D01*
X8499983Y-6250431D01*
X7563484Y-5472048D02*
G01*
X7563484Y-5696585D01*
X7886700Y-6019800D01*
X8623300Y-6019800D01*
X8806611Y-5836488D01*
X8806611Y-5199989D01*
X7690484Y-5472048D02*
G01*
X7690484Y-5544185D01*
X7886700Y-5740400D01*
X8490838Y-5740400D01*
X8499983Y-5749544D01*
D12*
X8489800Y-7416800D02*
G01*
X8499983Y-7426982D01*
D13*
X4859985Y-1299997D02*
G01*
X5450433Y-1299997D01*
X6250431Y-499998D01*
D14*
X4860036Y-1299971D02*
G01*
X5414772Y-1299971D01*
X6642100Y-2527300D01*
X6426245Y-2311400D02*
G01*
X6299200Y-2529586D01*
X6299200Y-5105400D01*
X6629400Y-5435600D01*
D12*
X6489700Y-8102600D02*
G01*
X6032500Y-7645400D01*
X6032500Y-4445000D01*
D15*
X2725674Y-1990597D02*
G01*
X2725674Y-1224026D01*
X2687320Y-1224026D01*
X1930400Y-1129522D02*
G01*
X2024786Y-1223909D01*
X2687396Y-1223909D01*
X3065525Y-1990597D02*
G01*
X3065525Y-1655826D01*
X3077972Y-1655826D01*
X3053003Y-1223909D02*
G01*
X3077908Y-1248813D01*
X3077908Y-1655709D01*
X3235604Y-1990623D02*
G01*
X3273181Y-2028200D01*
X4191000Y-2028200D01*
X4191000Y-2028200D02*
G01*
X4859985Y-1359214D01*
X4859985Y-1299997D01*
X3179902Y-5237114D02*
G01*
X3192703Y-5224312D01*
X3192703Y-4419600D01*
X2827096Y-4419600D02*
G01*
X2839897Y-4432401D01*
X2839897Y-5237114D01*
X1981200Y-4591812D02*
G01*
X2342388Y-4591812D01*
X2514600Y-4419600D01*
X2827020Y-4419600D01*
X2672994Y-372998D02*
G01*
X2687396Y-387400D01*
X2687396Y-1223909D01*
X626998Y-1118996D02*
G01*
X626998Y-1880996D01*
X626998Y-1880996D02*
G01*
X1981200Y-3235197D01*
X1981200Y-4591913D01*
X3349904Y-5237114D02*
G01*
X3540927Y-5046090D01*
X4381500Y-5046090D01*
X4381500Y-5046090D02*
G01*
X4737100Y-4690490D01*
X4737100Y-1892300D01*
X4545149Y-1700349D01*
X4518850Y-1700349D01*
D16*
X2540000Y-4584700D02*
G01*
X2540000Y-4902200D01*
X2311400Y-5130800D01*
X1371600Y-5130800D01*
X3429000Y-6794500D02*
G01*
X3111500Y-6794500D01*
X1155700Y-8750300D01*
X3556000Y-6959600D02*
G01*
X3454400Y-6959600D01*
X1663700Y-8750300D01*
X3759200Y-6108700D02*
G01*
X3759200Y-7162800D01*
X2171700Y-8750300D01*
X2425700Y-8750300D02*
G01*
X3835400Y-7340600D01*
X3835400Y-6197600D01*
X1981200Y-7632700D02*
G01*
X2374900Y-7239000D01*
X2374900Y-5791200D01*
X2839897Y-5326202D01*
X2839897Y-5237114D01*
X7188200Y-4673600D02*
G01*
X7309484Y-4794885D01*
X7309484Y-4927930D01*
X8499983Y-7680985D02*
G01*
X7849768Y-8331200D01*
X6502400Y-8331200D01*
X5575300Y-7404100D01*
X5575300Y-4914900D01*
D10*
X8499983Y-4680991D02*
G01*
X8187791Y-4368800D01*
X7493000Y-4368800D01*
X7315200Y-1752600D02*
G01*
X7309484Y-1758314D01*
X7309484Y-1927936D01*
D14*
X2669895Y-5237114D02*
G01*
X2415123Y-5491886D01*
X1981200Y-5491886D01*
D16*
X3517900Y-6870700D02*
G01*
X3289300Y-6870700D01*
X1409700Y-8750300D01*
X3683000Y-5994400D02*
G01*
X3683000Y-6985000D01*
X1917700Y-8750300D01*
D12*
X7563484Y-1927936D02*
G01*
X7563484Y-1797685D01*
X7213600Y-1447800D01*
X6591300Y-1447800D01*
X6235700Y-1803400D01*
X6337300Y-1879600D02*
G01*
X6654800Y-1562100D01*
X7226300Y-1562100D01*
X7436358Y-1772157D01*
X7436358Y-1927860D01*
X5842000Y-6197600D02*
G01*
X5854700Y-6184900D01*
X5854700Y-2184400D01*
X5943600Y-2095500D01*
X5943600Y-6210300D02*
G01*
X5943600Y-2273300D01*
X6019800Y-2197100D01*
X6489700Y-7848600D02*
G01*
X6121400Y-7480300D01*
X6121400Y-4572000D01*
X6502400Y-4572000D02*
G01*
X7264400Y-4572000D01*
X7436358Y-4755642D01*
X7436358Y-4927854D01*
X7563484Y-4927930D02*
G01*
X7563484Y-4769485D01*
X7264400Y-4470400D01*
X7239000Y-4445000D01*
X6502400Y-4445000D01*
D16*
X3911600Y-6083300D02*
G01*
X3911600Y-7416800D01*
X3352800Y-7975600D01*
X3352800Y-8750300D01*
D17*
G01*
X7309002Y-5715000D03*
G01*
X7168997Y-5715000D03*
G01*
X7309002Y-2717800D03*
G01*
X7168997Y-2717800D03*
D18*
G01*
X4381500Y-5046090D03*
G01*
X4381500Y-6206109D03*
G01*
X4191000Y-2028215D03*
G01*
X4191000Y-3188207D03*
D19*
G01*
X1981200Y-4591913D03*
G01*
X1981200Y-5491886D03*
G01*
X1930400Y-1129512D03*
G01*
X1930400Y-2029510D03*
D20*
G01*
X3564204Y-4851400D03*
G01*
X3192195Y-4851400D03*
G01*
X3449904Y-1655724D03*
G01*
X3077895Y-1655724D03*
D21*
G01*
X3192699Y-4419600D03*
G01*
X2827100Y-4419600D03*
G01*
X3052999Y-1223909D03*
G01*
X2687400Y-1223909D03*
D22*
G01*
X8193356Y-2199995D03*
G01*
X8806609Y-2199995D03*
D23*
G01*
X8806609Y-5199989D03*
G01*
X8193356Y-5199989D03*
D24*
G01*
X7690484Y-4927930D03*
G01*
X7563484Y-4927930D03*
G01*
X7436484Y-4927930D03*
G01*
X7309484Y-4927930D03*
G01*
X7690484Y-5472048D03*
G01*
X7563484Y-5472048D03*
G01*
X7436484Y-5472048D03*
G01*
X7309484Y-5472048D03*
D25*
G01*
X7499984Y-5199989D03*
D24*
G01*
X7690484Y-1927936D03*
G01*
X7563484Y-1927936D03*
G01*
X7436484Y-1927936D03*
G01*
X7309484Y-1927936D03*
G01*
X7690484Y-2472054D03*
G01*
X7563484Y-2472054D03*
G01*
X7436484Y-2472054D03*
G01*
X7309484Y-2472054D03*
D25*
G01*
X7499984Y-2199995D03*
D26*
G01*
X6699994Y-2529502D03*
G01*
X6699994Y-1870504D03*
G01*
X6699994Y-5529496D03*
G01*
X6699994Y-4870498D03*
D27*
G01*
X3349900Y-5237102D03*
G01*
X3179899Y-5237102D03*
G01*
X3009900Y-5237102D03*
G01*
X2839900Y-5237102D03*
G01*
X2669899Y-5237102D03*
D28*
G01*
X3009900Y-6269075D03*
D27*
G01*
X3235600Y-1990611D03*
G01*
X3065599Y-1990611D03*
G01*
X2895600Y-1990611D03*
G01*
X2725600Y-1990611D03*
G01*
X2555599Y-1990611D03*
D28*
G01*
X2895600Y-3022600D03*
D29*
G01*
X3824986Y-699998D03*
G01*
X5174995Y-699998D03*
D30*
G01*
X4139996Y-1299997D03*
G01*
X4859985Y-1299997D03*
D31*
G01*
X8499983Y-7680985D03*
D32*
G01*
X8499983Y-7426985D03*
G01*
X8499983Y-7172985D03*
G01*
X8499983Y-6918985D03*
D31*
G01*
X8499983Y-4680991D03*
D32*
G01*
X8499983Y-4426991D03*
G01*
X8499983Y-4172991D03*
G01*
X8499983Y-3918991D03*
D31*
G01*
X482600Y-6134100D03*
D32*
G01*
X482600Y-6388100D03*
G01*
X482600Y-6642100D03*
G01*
X482600Y-6896100D03*
G01*
X482600Y-7150100D03*
G01*
X482600Y-7404100D03*
G01*
X482600Y-7658100D03*
G01*
X482600Y-7912100D03*
G01*
X2425700Y-8750300D03*
G01*
X2171700Y-8750300D03*
G01*
X1917700Y-8750300D03*
G01*
X1663700Y-8750300D03*
G01*
X1409700Y-8750300D03*
D31*
G01*
X1155700Y-8750300D03*
D33*
G01*
X2672994Y-372998D03*
D34*
G01*
X2926994Y-372998D03*
G01*
X2672994Y-626998D03*
G01*
X2926994Y-626998D03*
D31*
G01*
X626998Y-1880996D03*
D32*
G01*
X372998Y-1880996D03*
G01*
X626998Y-1626996D03*
G01*
X372998Y-1626996D03*
G01*
X626998Y-1372996D03*
G01*
X372998Y-1372996D03*
G01*
X626998Y-1118996D03*
G01*
X372998Y-1118996D03*
G01*
X3606800Y-8750300D03*
G01*
X3352800Y-8750300D03*
D31*
G01*
X3098800Y-8750300D03*
D14*
G01*
X8499983Y-2767355D03*
G01*
X8499983Y-3268243D03*
G01*
X8499983Y-5749544D03*
G01*
X8499983Y-6250431D03*
G01*
X5749543Y-499998D03*
G01*
X6250431Y-499998D03*
D35*
G01*
X7549972Y-5249976D03*
G01*
X7449972Y-5249976D03*
G01*
X7549972Y-5149977D03*
G01*
X7449972Y-5149977D03*
G01*
X7549972Y-2249982D03*
G01*
X7449972Y-2249982D03*
G01*
X7549972Y-2149982D03*
G01*
X7449972Y-2149982D03*
D36*
G01*
X6699986Y-4870500D03*
G01*
X7690484Y-4927930D03*
G01*
X8193354Y-5199989D03*
G01*
X7168997Y-5715000D03*
G01*
X8193354Y-2199995D03*
G01*
X7690484Y-1927936D03*
G01*
X6699986Y-1870506D03*
G01*
X7168997Y-2717800D03*
G01*
X6502400Y-4572000D03*
G01*
X6502400Y-4445000D03*
G01*
X6337300Y-1879600D03*
G01*
X6235700Y-1803400D03*
G01*
X6489700Y-7086600D03*
G01*
X6489700Y-6832600D03*
G01*
X6489700Y-7848600D03*
G01*
X6489700Y-8102600D03*
G01*
X6121400Y-4572000D03*
G01*
X6032500Y-4445000D03*
G01*
X5943600Y-6210300D03*
G01*
X6019800Y-2197100D03*
G01*
X5842000Y-6197600D03*
G01*
X5943600Y-2095500D03*
G01*
X2555595Y-1990623D03*
G01*
X2895600Y-3022600D03*
G01*
X1930400Y-2029485D03*
G01*
X4191000Y-3188207D03*
G01*
X3530600Y-1930400D03*
G01*
X3449904Y-1655698D03*
G01*
X2895600Y-1990623D03*
G01*
X1981200Y-5491886D03*
G01*
X2669895Y-5237124D03*
G01*
X3009900Y-5237124D03*
G01*
X3009900Y-6269101D03*
G01*
X3564204Y-4851400D03*
G01*
X5499100Y-3683000D03*
G01*
X4381500Y-6206109D03*
G01*
X2540000Y-4584700D03*
G01*
X1371600Y-5130800D03*
G01*
X3429000Y-6794500D03*
G01*
X3517900Y-6870700D03*
G01*
X3556000Y-6959600D03*
G01*
X3683000Y-5994400D03*
G01*
X3759200Y-6108700D03*
G01*
X3835400Y-6197600D03*
G01*
X3911600Y-6083300D03*
G01*
X1981200Y-7632700D03*
G01*
X7188200Y-4673600D03*
G01*
X7315200Y-1752600D03*
G01*
X6489700Y-5816600D03*
G01*
X6883400Y-5918200D03*
G01*
X4660900Y-5308600D03*
G01*
X4254500Y-5829300D03*
G01*
X7493000Y-4368800D03*
G01*
X5575300Y-4914900D03*
M02*
